<?xml version="1.0" encoding="iso-8859-1"?>
<!-- Generator: Adobe Illustrator 19.0.0, SVG Export Plug-In . SVG Version: 6.00 Build 0)  -->
<svg version="1.1" id="Capa_1" xmlns="http://www.w3.org/2000/svg" xmlns:xlink="http://www.w3.org/1999/xlink" x="0px" y="0px"
	 viewBox="0 0 512.001 512.001" style="enable-background:new 0 0 512.001 512.001;" xml:space="preserve">
<path style="fill:#9FD479;" d="M339.748,275.992H53.14c-12.672,0-22.981,10.31-22.981,22.981v118.846
	c0,12.672,10.31,22.981,22.981,22.981h207.228c0.708,0,1.366,0.471,1.678,1.201c10.234,23.93,31.668,40.657,57.336,44.744
	c3.92,0.624,7.901,0.938,11.881,0.938c1.243,0,2.486-0.031,3.726-0.092c2.921-0.145,5.492-1.974,6.586-4.687
	c1.093-2.713,0.509-5.814-1.496-7.944c-8.443-8.97-13.879-20.112-15.721-32.223c-0.09-0.597,0.161-1.037,0.388-1.301
	c0.204-0.237,0.653-0.634,1.377-0.634h13.625c12.672,0,22.981-10.31,22.981-22.981V298.974
	C362.729,286.302,352.419,275.992,339.748,275.992z"/>
<path style="fill:#8CC165;" d="M339.748,275.992h-3.699c3.733,4.088,6.013,9.523,6.013,15.482v118.847
	c0,12.672-10.31,22.981-22.981,22.981h-13.625c-0.724,0-1.174,0.397-1.377,0.634c-0.227,0.264-0.478,0.704-0.388,1.301
	c1.842,12.111,7.278,23.253,15.721,32.223c2.005,2.13,2.589,5.231,1.496,7.944c-1.094,2.713-3.665,4.542-6.586,4.687
	c-1.24,0.062-2.483,0.092-3.726,0.092c-3.979,0-7.961-0.314-11.881-0.938c-1.127-0.179-2.242-0.392-3.352-0.62
	c7.364,3.977,15.454,6.755,24.019,8.119c3.92,0.624,7.901,0.938,11.881,0.938c1.243,0,2.486-0.031,3.726-0.092
	c2.921-0.145,5.492-1.974,6.586-4.687c1.093-2.713,0.509-5.814-1.496-7.944c-8.443-8.97-13.879-20.112-15.721-32.223
	c-0.09-0.597,0.161-1.037,0.388-1.301c0.204-0.237,0.653-0.634,1.377-0.634h13.625c12.672,0,22.981-10.31,22.981-22.981V298.974
	C362.729,286.302,352.419,275.992,339.748,275.992z"/>
<path style="fill:#EBEEF2;" d="M458.86,24.318H172.252c-12.672,0-22.981,10.309-22.981,22.981v118.847
	c0,12.672,10.31,22.981,22.981,22.981h13.625c0.724,0,1.174,0.397,1.377,0.634c0.227,0.264,0.478,0.704,0.388,1.301
	c-1.842,12.111-7.278,23.254-15.721,32.224c-2.005,2.13-2.589,5.231-1.496,7.944c1.094,2.713,3.665,4.542,6.586,4.687
	c1.241,0.062,2.483,0.092,3.727,0.092c3.979,0,7.961-0.314,11.88-0.938c25.668-4.087,47.102-20.814,57.336-44.744
	c0.312-0.729,0.97-1.201,1.678-1.201H458.86c12.672,0,22.981-10.309,22.981-22.981V47.299
	C481.841,34.627,471.532,24.318,458.86,24.318z"/>
<path style="fill:#D1D6DE;" d="M458.86,24.318h-1.035c1.783,3.265,2.798,7.006,2.798,10.981v118.847
	c0,12.672-10.31,22.981-22.981,22.981H230.413c-0.708,0-1.366,0.471-1.678,1.201c-10.12,23.664-31.196,40.276-56.485,44.595
	c-0.111,0.12-0.217,0.244-0.33,0.364c-2.005,2.13-2.589,5.231-1.496,7.944c1.094,2.713,3.665,4.542,6.586,4.687
	c1.241,0.062,2.483,0.092,3.727,0.092c3.979,0,7.961-0.314,11.88-0.938c25.668-4.087,47.102-20.814,57.336-44.744
	c0.312-0.729,0.97-1.201,1.678-1.201H458.86c12.672,0,22.981-10.309,22.981-22.981V47.299
	C481.841,34.627,471.532,24.318,458.86,24.318z"/>
<path style="fill:#ED5575;" d="M76.619,116.953c11.833-7.489,19.389-21.125,18.151-36.427
	c-1.598-19.751-18.134-35.377-37.942-35.945c-22.19-0.636-40.379,17.163-40.379,39.21c0,13.961,7.299,26.209,18.283,33.161
	c-18.683,7.543-32.37,24.862-34.697,45.624c-0.378,3.373,2.333,6.304,5.727,6.304h99.827c3.394,0,6.105-2.931,5.727-6.304
	C108.989,141.815,95.302,124.496,76.619,116.953z"/>
<g>
	<path style="fill:#444966;" d="M405.01,74.441H226.103c-4.142,0-7.5-3.358-7.5-7.5s3.358-7.5,7.5-7.5H405.01
		c4.142,0,7.5,3.358,7.5,7.5S409.152,74.441,405.01,74.441z"/>
	<path style="fill:#444966;" d="M405.01,114.222H226.103c-4.142,0-7.5-3.358-7.5-7.5s3.358-7.5,7.5-7.5H405.01
		c4.142,0,7.5,3.358,7.5,7.5S409.152,114.222,405.01,114.222z"/>
	<path style="fill:#444966;" d="M315.556,154.004h-89.454c-4.142,0-7.5-3.358-7.5-7.5s3.358-7.5,7.5-7.5h89.454
		c4.142,0,7.5,3.358,7.5,7.5S319.698,154.004,315.556,154.004z"/>
</g>
<path style="fill:#5C9CEE;" d="M435.381,368.627c-11.833-7.489-19.389-21.125-18.151-36.427
	c1.599-19.751,18.135-35.377,37.942-35.945c22.19-0.636,40.379,17.163,40.379,39.21c0,13.961-7.299,26.209-18.283,33.161
	c18.683,7.543,32.37,24.862,34.697,45.624c0.378,3.373-2.333,6.304-5.727,6.304H406.41c-3.394,0-6.105-2.931-5.727-6.304
	C403.011,393.489,416.698,376.17,435.381,368.627z"/>
<g>
	<path style="fill:#EBEEF2;" d="M285.897,326.116H106.99c-4.142,0-7.5-3.358-7.5-7.5s3.358-7.5,7.5-7.5h178.908
		c4.142,0,7.5,3.358,7.5,7.5S290.04,326.116,285.897,326.116z"/>
	<path style="fill:#EBEEF2;" d="M285.897,365.897H106.99c-4.142,0-7.5-3.358-7.5-7.5s3.358-7.5,7.5-7.5h178.908
		c4.142,0,7.5,3.358,7.5,7.5S290.04,365.897,285.897,365.897z"/>
	<path style="fill:#EBEEF2;" d="M285.897,405.678h-89.454c-4.142,0-7.5-3.358-7.5-7.5s3.358-7.5,7.5-7.5h89.454
		c4.142,0,7.5,3.358,7.5,7.5S290.04,405.678,285.897,405.678z"/>
</g>
<g>
</g>
<g>
</g>
<g>
</g>
<g>
</g>
<g>
</g>
<g>
</g>
<g>
</g>
<g>
</g>
<g>
</g>
<g>
</g>
<g>
</g>
<g>
</g>
<g>
</g>
<g>
</g>
<g>
</g>
</svg>
