<?xml version="1.0" encoding="iso-8859-1"?>
<!-- Generator: Adobe Illustrator 19.0.0, SVG Export Plug-In . SVG Version: 6.00 Build 0)  -->
<svg version="1.1" id="Capa_1" xmlns="http://www.w3.org/2000/svg" xmlns:xlink="http://www.w3.org/1999/xlink" x="0px" y="0px"
	 viewBox="0 0 512.001 512.001" style="enable-background:new 0 0 512.001 512.001;" xml:space="preserve">
<path style="fill:#5C9CEE;" d="M293.837,91.3h-75.674c-4.143,0-7.5-3.358-7.5-7.5c0-24.998,20.338-45.336,45.337-45.336
	s45.337,20.338,45.337,45.336C301.337,87.942,297.979,91.3,293.837,91.3z M226.602,76.3h58.797
	C282.053,63.187,270.141,53.463,256,53.463S229.947,63.187,226.602,76.3z"/>
<path style="fill:#1B3D66;" d="M256,76.671c-1.213,0-2.427-0.294-3.529-0.882L136.841,14.12c-3.655-1.949-5.037-6.492-3.088-10.147
	c1.948-3.654,6.49-5.04,10.146-3.088L256,60.671L368.1,0.885c3.656-1.949,8.198-0.566,10.146,3.088
	c1.949,3.655,0.567,8.198-3.088,10.147L259.529,75.789C258.427,76.377,257.213,76.671,256,76.671z"/>
<path style="fill:#EBEEF2;" d="M382.667,76.3H129.333c-17.075,0-30.968,13.892-30.968,30.968v373.765
	c0,17.076,13.893,30.968,30.968,30.968h253.335c17.075,0,30.968-13.892,30.968-30.968V107.267
	C413.635,90.192,399.743,76.3,382.667,76.3z"/>
<path style="fill:#D1D6DE;" d="M382.667,76.3H358.22c17.075,0,30.968,13.892,30.968,30.968v373.765
	c0,17.076-13.893,30.968-30.968,30.968h24.447c17.075,0,30.968-13.892,30.968-30.968V107.267
	C413.635,90.192,399.743,76.3,382.667,76.3z"/>
<path style="fill:#48CFB7;" d="M382.667,76.3H129.333c-17.075,0-30.968,13.892-30.968,30.968v169.065h315.27V107.267
	C413.635,90.192,399.743,76.3,382.667,76.3z"/>
<path style="fill:#35B5A0;" d="M382.667,76.3H358.22c17.075,0,30.968,13.892,30.968,30.968v169.065h24.447V107.267
	C413.635,90.192,399.743,76.3,382.667,76.3z"/>
<path style="fill:#5C9CEE;" d="M347.403,236.252c0,31.483-15.912,59.246-40.127,75.69c-14.622,9.925-32.27,15.722-51.276,15.722
	s-36.654-5.797-51.276-15.722c-24.215-16.444-40.127-44.207-40.127-75.69c0-50.479,40.924-91.402,91.403-91.402
	S347.403,185.773,347.403,236.252z"/>
<path style="fill:#F9C295;" d="M256,170.644L256,170.644c-20.434,0-37,16.565-37,37v17.838c0,20.434,16.566,37,37,37l0,0
	c20.434,0,37-16.565,37-37v-17.838C293,187.21,276.434,170.644,256,170.644z"/>
<path style="fill:#444966;" d="M307.276,311.941c-14.622,9.925-32.27,15.722-51.276,15.722s-36.654-5.797-51.276-15.722
	c1.67-14.316,11.578-26.097,24.845-30.531l-0.014-0.022c0.455-0.152,0.911-0.294,1.367-0.427c0.085-0.028,0.161-0.047,0.247-0.076
	c0.389-0.104,0.787-0.209,1.186-0.313c0.455-0.114,0.93-0.218,1.395-0.313c0.029-0.009,0.057-0.009,0.076-0.019
	c0.465-0.095,0.94-0.18,1.414-0.256c0.427-0.076,0.863-0.142,1.309-0.199c0.066-0.009,0.142-0.019,0.218-0.028
	c0.474-0.057,0.949-0.104,1.433-0.142c0.38-0.028,0.759-0.057,1.139-0.076c0.19-0.01,0.37-0.019,0.56-0.019
	c0.436-0.019,0.882-0.029,1.328-0.029h29.547c0.446,0,0.892,0.01,1.328,0.029c0.19,0,0.37,0.009,0.56,0.019
	c0.379,0.019,0.759,0.047,1.139,0.076c0.484,0.038,0.958,0.085,1.433,0.142c0.076,0.009,0.152,0.019,0.218,0.028
	c0.446,0.057,0.882,0.123,1.309,0.199c0.474,0.076,0.949,0.161,1.414,0.256c0.019,0.01,0.047,0.01,0.076,0.019
	c0.465,0.095,0.939,0.199,1.395,0.313c0.399,0.104,0.797,0.209,1.186,0.313c0.085,0.028,0.161,0.047,0.247,0.076
	c0.455,0.133,0.911,0.275,1.367,0.427l-0.014,0.022C295.697,285.844,305.606,297.625,307.276,311.941z"/>
<path style="fill:#EBEEF2;" d="M256,322.888l26.447-41.497c-3.669-1.229-7.592-1.905-11.675-1.905h-29.546
	c-4.083,0-8.005,0.676-11.675,1.905L256,322.888z"/>
<path style="fill:#444966;" d="M280.073,179.565c0-0.001,0.001-0.003,0.001-0.004c-0.068-0.059-0.14-0.113-0.208-0.171
	c-0.284-0.24-0.57-0.476-0.86-0.707c-0.133-0.105-0.266-0.209-0.4-0.312c-0.266-0.206-0.535-0.408-0.807-0.607
	c-0.159-0.116-0.318-0.231-0.479-0.344c-0.249-0.176-0.501-0.348-0.755-0.518c-0.186-0.125-0.373-0.249-0.562-0.371
	c-0.228-0.147-0.458-0.289-0.689-0.43c-0.219-0.134-0.437-0.269-0.658-0.398c-0.195-0.114-0.394-0.224-0.591-0.335
	c-0.26-0.146-0.52-0.293-0.784-0.433c-0.136-0.072-0.275-0.14-0.411-0.21c-5.059-2.601-10.789-4.079-16.87-4.079
	c-20.434,0-37,16.565-37,37v3.42c5.448,2.404,11.468,3.749,17.806,3.749c13.015,0,24.708-5.636,32.792-14.593
	c5.111,7.876,13.59,13.363,23.402,14.408v-6.984C293,196.406,287.983,186.347,280.073,179.565z"/>
<path style="fill:#9FD479;" d="M341.896,365.98H170.104c-4.143,0-7.5,3.358-7.5,7.5v28.638c0,4.142,3.357,7.5,7.5,7.5h171.792
	c4.143,0,7.5-3.358,7.5-7.5V373.48C349.396,369.338,346.039,365.98,341.896,365.98z"/>
<g>
	<path style="fill:#444966;" d="M341.896,451.826H170.104c-4.143,0-7.5-3.358-7.5-7.5s3.357-7.5,7.5-7.5h171.792
		c4.143,0,7.5,3.358,7.5,7.5S346.039,451.826,341.896,451.826z"/>
	<path style="fill:#444966;" d="M290.633,482.909h-69.265c-4.143,0-7.5-3.358-7.5-7.5s3.357-7.5,7.5-7.5h69.265
		c4.143,0,7.5,3.358,7.5,7.5S294.775,482.909,290.633,482.909z"/>
</g>
<path style="fill:#5C9CEE;" d="M279.818,45.246l-16.973,9.002c8.098,1.875,14.965,6.997,19.144,13.92l13.293-6.958
	C291.523,54.698,286.199,49.202,279.818,45.246z"/>
<g>
</g>
<g>
</g>
<g>
</g>
<g>
</g>
<g>
</g>
<g>
</g>
<g>
</g>
<g>
</g>
<g>
</g>
<g>
</g>
<g>
</g>
<g>
</g>
<g>
</g>
<g>
</g>
<g>
</g>
</svg>
