<?xml version="1.0" encoding="iso-8859-1"?>
<!-- Generator: Adobe Illustrator 19.0.0, SVG Export Plug-In . SVG Version: 6.00 Build 0)  -->
<svg version="1.1" id="Capa_1" xmlns="http://www.w3.org/2000/svg" xmlns:xlink="http://www.w3.org/1999/xlink" x="0px" y="0px"
	 viewBox="0 0 512 512" style="enable-background:new 0 0 512 512;" xml:space="preserve">
<path style="fill:#EBEEF2;" d="M349.368,0H64.073C53.49,0,44.881,8.609,44.881,19.192V474.85c0,10.583,8.609,19.192,19.192,19.192
	h285.295c28.3,0,51.325-23.024,51.325-51.325V51.325C400.693,23.024,377.668,0,349.368,0z"/>
<path style="fill:#D1D6DE;" d="M349.368,0h-26.446c28.3,0,51.325,23.024,51.325,51.325v391.392
	c0,28.301-23.024,51.325-51.325,51.325h26.446c28.3,0,51.325-23.024,51.325-51.325V51.325C400.693,23.024,377.668,0,349.368,0z"/>
<path style="fill:#656D88;" d="M292.821,472.527v34.036c0,3.003,2.434,5.437,5.437,5.437h189.87c3.003,0,5.437-2.434,5.437-5.437
	v-34.036c0-9.833-7.971-17.804-17.804-17.804H310.625C300.792,454.723,292.821,462.694,292.821,472.527z"/>
<path style="fill:#4B546B;" d="M475.76,454.723h-23.19c9.833,0,17.804,7.971,17.804,17.804V512h17.753
	c3.003,0,5.437-2.434,5.437-5.437v-34.036C493.565,462.694,485.594,454.723,475.76,454.723z"/>
<path style="fill:#656D88;" d="M448.381,218.539v19.344h-28.135l-2.383-20.076c-0.371-3.125-3.021-5.479-6.168-5.479H374.69
	c-3.147,0-5.797,2.354-6.168,5.479l-2.383,20.076h-28.135v-19.344c0-3.43-2.781-6.211-6.211-6.211H312.62
	c-3.655,0-6.52,3.141-6.185,6.78l5.983,64.957c0.548,5.951,5.54,10.504,11.516,10.504H462.45c5.976,0,10.968-4.553,11.516-10.504
	l5.983-64.957c0.335-3.64-2.53-6.78-6.185-6.78h-19.173C451.161,212.328,448.381,215.109,448.381,218.539z"/>
<g>
	<path style="fill:#4B546B;" d="M321.505,218.539v19.344h16.5v-19.344c0-3.43-2.781-6.211-6.211-6.211h-16.5
		C318.724,212.328,321.505,215.109,321.505,218.539z"/>
	<path style="fill:#4B546B;" d="M401.363,217.807l2.383,20.076h16.5l-2.383-20.076c-0.371-3.125-3.021-5.479-6.167-5.479h-16.5
		C398.342,212.328,400.992,214.682,401.363,217.807z"/>
	<path style="fill:#4B546B;" d="M473.765,212.328h-16.5c3.655,0,6.52,3.141,6.185,6.78l-5.983,64.957
		c-0.548,5.951-5.54,10.504-11.516,10.504h16.5c5.976,0,10.968-4.553,11.516-10.504l5.983-64.957
		C480.284,215.469,477.42,212.328,473.765,212.328z"/>
</g>
<path style="fill:#8088A0;" d="M453.791,429.293l-5.556-134.724H338.15l-5.556,134.724c-7.347,0-13.302,5.956-13.302,13.302v12.127
	h147.802v-12.127C467.094,435.248,461.138,429.293,453.791,429.293z"/>
<path style="fill:#656D88;" d="M453.791,429.293l-5.556-134.724h-23.49l5.556,134.724c7.347,0,13.302,5.956,13.302,13.302v12.127
	h23.49v-12.127C467.094,435.248,461.138,429.293,453.791,429.293z"/>
<g>
	<path style="fill:#9FD479;" d="M68.365,79.127H36.396c-9.92,0-17.961,8.042-17.961,17.961l0,0c0,9.92,8.041,17.961,17.961,17.961
		h31.969c9.92,0,17.961-8.042,17.961-17.961l0,0C86.326,87.169,78.285,79.127,68.365,79.127z"/>
	<path style="fill:#9FD479;" d="M68.365,179.082H36.396c-9.92,0-17.961,8.042-17.961,17.961l0,0c0,9.919,8.041,17.961,17.961,17.961
		h31.969c9.92,0,17.961-8.042,17.961-17.961l0,0C86.326,187.124,78.285,179.082,68.365,179.082z"/>
	<path style="fill:#9FD479;" d="M68.365,279.037H36.396c-9.92,0-17.961,8.042-17.961,17.961l0,0c0,9.919,8.041,17.961,17.961,17.961
		h31.969c9.92,0,17.961-8.042,17.961-17.961l0,0C86.326,287.079,78.285,279.037,68.365,279.037z"/>
	<path style="fill:#9FD479;" d="M68.365,378.992H36.396c-9.92,0-17.961,8.042-17.961,17.961l0,0c0,9.919,8.041,17.961,17.961,17.961
		h31.969c9.92,0,17.961-8.042,17.961-17.961l0,0C86.326,387.034,78.285,378.992,68.365,378.992z"/>
</g>
<path style="fill:#5C9CEE;" d="M183.041,125.401c-18.108,0-32.84-14.732-32.84-32.84s14.732-32.84,32.84-32.84
	s32.84,14.732,32.84,32.84S201.149,125.401,183.041,125.401z M183.041,74.722c-9.837,0-17.84,8.003-17.84,17.84
	s8.003,17.84,17.84,17.84c9.837,0,17.84-8.003,17.84-17.84S192.878,74.722,183.041,74.722z"/>
<g>
	<path style="fill:#656D88;" d="M281.64,350.114c-0.927,0-1.869-0.173-2.782-0.538c-4.844-1.937-9.654-4.135-14.297-6.531
		c-3.681-1.9-5.124-6.424-3.224-10.105c1.899-3.68,6.423-5.125,10.105-3.224c4.217,2.177,8.587,4.173,12.986,5.933
		c3.846,1.538,5.717,5.903,4.179,9.749C287.434,348.33,284.617,350.114,281.64,350.114z M242.815,327.659
		c-1.626,0-3.263-0.526-4.639-1.611c-4.095-3.229-8.084-6.695-11.856-10.302c-2.994-2.862-3.101-7.61-0.238-10.604
		c2.862-2.996,7.609-3.101,10.604-0.238c3.429,3.278,7.055,6.429,10.778,9.365c3.252,2.565,3.81,7.281,1.245,10.533
		C247.229,326.679,245.033,327.659,242.815,327.659z M211.924,295.167c-2.347,0-4.658-1.098-6.121-3.157
		c-3.021-4.254-5.872-8.703-8.473-13.223c-2.065-3.59-0.83-8.175,2.761-10.241c3.592-2.065,8.175-0.829,10.241,2.761
		c2.363,4.107,4.954,8.15,7.7,12.017c2.398,3.377,1.605,8.059-1.771,10.458C214.943,294.717,213.426,295.167,211.924,295.167z
		 M191.457,255.287c-3.118,0-6.029-1.958-7.095-5.073c-1.691-4.938-3.16-10.017-4.368-15.095c-0.958-4.03,1.531-8.074,5.562-9.032
		c4.029-0.958,8.073,1.531,9.031,5.561c1.097,4.611,2.431,9.223,3.966,13.707c1.342,3.919-0.748,8.183-4.667,9.525
		C193.082,255.156,192.262,255.287,191.457,255.287z M183.178,211.219c-3.997,0-7.317-3.152-7.488-7.183
		c-0.099-2.339-0.149-4.716-0.149-7.063v-8.252c0-4.142,3.358-7.5,7.5-7.5s7.5,3.358,7.5,7.5v8.252c0,2.137,0.046,4.299,0.136,6.428
		c0.175,4.139-3.038,7.635-7.176,7.811C183.393,211.217,183.285,211.219,183.178,211.219z M183.041,166.222
		c-4.142,0-7.5-3.358-7.5-7.5v-1.658c0-4.142,3.358-7.5,7.5-7.5s7.5,3.358,7.5,7.5v1.658
		C190.541,162.864,187.183,166.222,183.041,166.222z"/>
	<path style="fill:#656D88;" d="M148.853,195.288c-2.054,0-4.1-0.839-5.581-2.487c-2.769-3.081-2.515-7.823,0.565-10.592
		l34.19-30.725c2.851-2.563,7.175-2.563,10.026,0l34.19,30.725c3.081,2.769,3.334,7.511,0.565,10.592s-7.511,3.333-10.592,0.565
		l-29.177-26.22l-29.177,26.22C152.431,194.654,150.639,195.288,148.853,195.288z"/>
</g>
<g>
	<path style="fill:#ED5575;" d="M206.942,431.551c-1.919,0-3.839-0.732-5.303-2.197l-47.802-47.802
		c-2.929-2.929-2.929-7.678,0-10.606c2.929-2.929,7.678-2.929,10.606,0l47.802,47.802c2.929,2.929,2.929,7.678,0,10.606
		C210.781,430.819,208.861,431.551,206.942,431.551z"/>
	<path style="fill:#ED5575;" d="M159.14,431.551c-1.919,0-3.839-0.732-5.303-2.197c-2.929-2.929-2.929-7.678,0-10.606l47.802-47.802
		c2.929-2.929,7.678-2.929,10.606,0c2.929,2.929,2.929,7.678,0,10.606l-47.802,47.802
		C162.979,430.819,161.059,431.551,159.14,431.551z"/>
</g>
<polygon style="fill:#656D88;" points="332.963,420.333 332.594,429.293 438.509,429.293 438.509,420.333 "/>
<g>
</g>
<g>
</g>
<g>
</g>
<g>
</g>
<g>
</g>
<g>
</g>
<g>
</g>
<g>
</g>
<g>
</g>
<g>
</g>
<g>
</g>
<g>
</g>
<g>
</g>
<g>
</g>
<g>
</g>
</svg>
