<?xml version="1.0" encoding="iso-8859-1"?>
<!-- Generator: Adobe Illustrator 19.0.0, SVG Export Plug-In . SVG Version: 6.00 Build 0)  -->
<svg version="1.1" id="Capa_1" xmlns="http://www.w3.org/2000/svg" xmlns:xlink="http://www.w3.org/1999/xlink" x="0px" y="0px"
	 viewBox="0 0 512 512" style="enable-background:new 0 0 512 512;" xml:space="preserve">
<path style="fill:#9FD479;" d="M415.379,0H97.874c-17.45,0-31.647,14.197-31.647,31.647v92.029c0,17.45,14.197,31.647,31.647,31.647
	h317.505c17.45,0,31.647-14.197,31.647-31.647V31.647C447.026,14.197,432.83,0,415.379,0z"/>
<path style="fill:#7DB24F;" d="M415.379,0h-26.267c17.45,0,31.647,14.197,31.647,31.647v92.029c0,17.45-14.197,31.647-31.647,31.647
	h26.267c17.45,0,31.647-14.197,31.647-31.647V31.647C447.026,14.197,432.83,0,415.379,0z"/>
<path style="fill:#FCAB29;" d="M83.327,399.95c-30.892,0-56.025,25.133-56.025,56.025S52.435,512,83.327,512
	s56.025-25.133,56.025-56.025S114.219,399.95,83.327,399.95z"/>
<circle style="fill:#EBEEF2;" cx="83.33" cy="455.98" r="20.673"/>
<g>
	<path style="fill:#FCAB29;" d="M256,399.95c-30.892,0-56.025,25.133-56.025,56.025S225.108,512,256,512
		s56.025-25.133,56.025-56.025S286.892,399.95,256,399.95z"/>
	<path style="fill:#FCAB29;" d="M428.673,399.95c-30.892,0-56.025,25.133-56.025,56.025S397.781,512,428.673,512
		s56.025-25.133,56.025-56.025S459.565,399.95,428.673,399.95z"/>
</g>
<g>
	<path style="fill:#444966;" d="M428.673,382.613c-4.142,0-7.5-3.358-7.5-7.5v-55.089c0-10.814-8.797-19.611-19.611-19.611H110.438
		c-10.814,0-19.611,8.797-19.611,19.611v55.089c0,4.142-3.358,7.5-7.5,7.5s-7.5-3.358-7.5-7.5v-55.089
		c0-19.085,15.526-34.611,34.611-34.611h291.124c19.085,0,34.611,15.526,34.611,34.611v55.089
		C436.173,379.255,432.815,382.613,428.673,382.613z"/>
	<path style="fill:#444966;" d="M256,382.613c-4.142,0-7.5-3.358-7.5-7.5V223.937c0-4.142,3.358-7.5,7.5-7.5s7.5,3.358,7.5,7.5
		v151.177C263.5,379.255,260.142,382.613,256,382.613z"/>
</g>
<g>
	<path style="fill:#EBEEF2;" d="M371.322,60.584H141.931c-4.142,0-7.5-3.358-7.5-7.5s3.358-7.5,7.5-7.5h229.391
		c4.142,0,7.5,3.358,7.5,7.5S375.464,60.584,371.322,60.584z"/>
	<path style="fill:#EBEEF2;" d="M371.322,109.739H141.931c-4.142,0-7.5-3.358-7.5-7.5s3.358-7.5,7.5-7.5h229.391
		c4.142,0,7.5,3.358,7.5,7.5S375.464,109.739,371.322,109.739z"/>
	<circle style="fill:#EBEEF2;" cx="256" cy="455.98" r="20.673"/>
	<circle style="fill:#EBEEF2;" cx="428.67" cy="455.98" r="20.673"/>
</g>
<g>
	<path style="fill:#1B3D66;" d="M119.721,382.613H46.933c-4.142,0-7.5-3.358-7.5-7.5s3.358-7.5,7.5-7.5h72.788
		c4.142,0,7.5,3.358,7.5,7.5S123.863,382.613,119.721,382.613z"/>
	<path style="fill:#1B3D66;" d="M292.394,382.613h-72.787c-4.142,0-7.5-3.358-7.5-7.5s3.358-7.5,7.5-7.5h72.787
		c4.142,0,7.5,3.358,7.5,7.5S296.536,382.613,292.394,382.613z"/>
	<path style="fill:#1B3D66;" d="M465.067,382.613h-72.788c-4.142,0-7.5-3.358-7.5-7.5s3.358-7.5,7.5-7.5h72.788
		c4.142,0,7.5,3.358,7.5,7.5S469.209,382.613,465.067,382.613z"/>
</g>
<circle style="fill:#ED5575;" cx="256" cy="202.3" r="21.64"/>
<path style="fill:#1B3D66;" d="M256,231.437c-16.068,0-29.14-13.072-29.14-29.14s13.072-29.14,29.14-29.14s29.14,13.072,29.14,29.14
	S272.068,231.437,256,231.437z M256,188.156c-7.797,0-14.14,6.343-14.14,14.14s6.343,14.14,14.14,14.14s14.14-6.343,14.14-14.14
	S263.797,188.156,256,188.156z"/>
<g>
</g>
<g>
</g>
<g>
</g>
<g>
</g>
<g>
</g>
<g>
</g>
<g>
</g>
<g>
</g>
<g>
</g>
<g>
</g>
<g>
</g>
<g>
</g>
<g>
</g>
<g>
</g>
<g>
</g>
</svg>
