<?xml version="1.0" encoding="iso-8859-1"?>
<!-- Generator: Adobe Illustrator 19.0.0, SVG Export Plug-In . SVG Version: 6.00 Build 0)  -->
<svg version="1.1" id="Capa_1" xmlns="http://www.w3.org/2000/svg" xmlns:xlink="http://www.w3.org/1999/xlink" x="0px" y="0px"
	 viewBox="0 0 512 512" style="enable-background:new 0 0 512 512;" xml:space="preserve">
<circle style="fill:#9FD479;" cx="255.99" cy="256" r="153.62"/>
<path style="fill:#7DB24F;" d="M333.695,123.469c32.572,28.168,53.182,69.796,53.182,116.238
	c0,84.84-68.776,153.617-153.617,153.617c-28.353,0-54.906-7.69-77.704-21.086c26.93,23.289,62.036,37.378,100.434,37.378
	c84.84,0,153.617-68.777,153.617-153.617C409.607,199.513,379.113,150.156,333.695,123.469z"/>
<g>
	<path style="fill:#444966;" d="M410.671,127.039c-1.272,0-2.562-0.324-3.743-1.006l-113.852-65.73
		c-3.587-2.071-4.816-6.658-2.745-10.245c2.07-3.587,6.656-4.817,10.245-2.745l113.852,65.729c3.587,2.071,4.816,6.658,2.745,10.245
		C415.784,125.693,413.263,127.039,410.671,127.039z"/>
	<path style="fill:#444966;" d="M60.467,329.206c-4.142,0-7.5-3.358-7.5-7.5V190.294c0-4.142,3.358-7.5,7.5-7.5s7.5,3.358,7.5,7.5
		v131.412C67.967,325.848,64.609,329.206,60.467,329.206z"/>
	<path style="fill:#444966;" d="M296.833,465.693c-2.592,0-5.113-1.345-6.502-3.751c-2.071-3.587-0.842-8.174,2.745-10.245
		l113.828-65.718c3.586-2.072,8.175-0.842,10.245,2.745c2.071,3.587,0.842,8.174-2.745,10.245l-113.828,65.718
		C299.396,465.369,298.106,465.693,296.833,465.693z"/>
	<path style="fill:#444966;" d="M451.514,329.206c-4.143,0-7.5-3.358-7.5-7.5V190.294c0-4.142,3.357-7.5,7.5-7.5s7.5,3.358,7.5,7.5
		v131.412C459.014,325.848,455.657,329.206,451.514,329.206z"/>
	<path style="fill:#444966;" d="M215.147,465.693c-1.272,0-2.562-0.324-3.743-1.006L97.553,398.958
		c-3.587-2.071-4.816-6.658-2.745-10.245s6.658-4.817,10.245-2.745l113.851,65.729c3.587,2.071,4.816,6.658,2.745,10.245
		C220.26,464.348,217.739,465.693,215.147,465.693z"/>
	<path style="fill:#444966;" d="M101.333,127.027c-2.592,0-5.113-1.345-6.502-3.751c-2.071-3.587-0.842-8.174,2.745-10.245
		l113.828-65.718c3.587-2.071,8.173-0.842,10.245,2.745c2.071,3.587,0.842,8.174-2.745,10.245l-113.828,65.718
		C103.895,126.703,102.606,127.027,101.333,127.027z"/>
</g>
<path style="fill:#EBEEF2;" d="M232.777,104.128c-9.91,8.292-18.775,22.004-25.973,40.533
	c-11.599,29.859-17.987,69.4-17.987,111.339s6.388,81.479,17.987,111.339c7.197,18.529,16.063,32.241,25.973,40.533
	c7.571,1.148,15.322,1.745,23.213,1.745c7.891,0,15.642-0.597,23.213-1.745c9.91-8.292,18.775-22.004,25.972-40.533
	c11.6-29.859,17.987-69.4,17.987-111.339s-6.388-81.479-17.987-111.339c-7.197-18.529-16.063-32.241-25.972-40.533
	c-7.571-1.147-15.322-1.745-23.213-1.745C248.099,102.384,240.348,102.981,232.777,104.128z M291.195,150.092
	c10.942,28.17,16.969,65.782,16.969,105.908c0,86.109-27.496,146.117-52.173,146.117c-12.446,0-25.278-14.656-35.204-40.209
	c-10.942-28.169-16.969-65.782-16.969-105.908c0-86.109,27.496-146.117,52.173-146.117
	C268.437,109.883,281.268,124.539,291.195,150.092z"/>
<g>
	<circle style="fill:#5C9CEE;" cx="255.99" cy="30.23" r="22.73"/>
	<circle style="fill:#5C9CEE;" cx="60.47" cy="143.12" r="22.73"/>
	<circle style="fill:#5C9CEE;" cx="60.47" cy="368.88" r="22.73"/>
	<circle style="fill:#5C9CEE;" cx="255.99" cy="481.77" r="22.73"/>
	<circle style="fill:#5C9CEE;" cx="451.51" cy="368.88" r="22.73"/>
	<circle style="fill:#5C9CEE;" cx="451.51" cy="143.12" r="22.73"/>
</g>
<g>
	<path style="fill:#1B3D66;" d="M255.991,60.46c-16.669,0-30.23-13.561-30.23-30.23S239.322,0,255.991,0s30.23,13.562,30.23,30.23
		S272.659,60.46,255.991,60.46z M255.991,15c-8.398,0-15.23,6.833-15.23,15.23s6.833,15.23,15.23,15.23
		c8.398,0,15.23-6.832,15.23-15.23S264.389,15,255.991,15z"/>
	<path style="fill:#1B3D66;" d="M60.417,173.339c-5.126,0-10.315-1.302-15.064-4.044c-14.436-8.334-19.4-26.859-11.065-41.295l0,0
		c8.335-14.436,26.861-19.4,41.295-11.065c14.436,8.334,19.399,26.859,11.065,41.295C81.055,167.917,70.872,173.339,60.417,173.339z
		 M47.278,135.5c-4.199,7.273-1.698,16.606,5.575,20.805c7.273,4.198,16.605,1.697,20.805-5.575
		c4.199-7.273,1.698-16.606-5.575-20.805c-3.523-2.035-7.627-2.575-11.557-1.521S49.312,131.977,47.278,135.5L47.278,135.5z"/>
	<path style="fill:#1B3D66;" d="M60.519,399.109c-10.456,0-20.638-5.422-26.231-15.109l0,0
		c-8.334-14.436-3.371-32.961,11.065-41.295c14.435-8.334,32.96-3.371,41.295,11.065c8.334,14.436,3.371,32.961-11.065,41.295
		C70.835,397.806,65.644,399.109,60.519,399.109z M47.278,376.5c2.034,3.523,5.318,6.043,9.248,7.096
		c3.928,1.052,8.034,0.513,11.557-1.521c7.273-4.199,9.773-13.532,5.575-20.805c-4.2-7.273-13.532-9.774-20.805-5.575
		C45.58,359.894,43.079,369.227,47.278,376.5L47.278,376.5z"/>
	<path style="fill:#1B3D66;" d="M255.991,512c-16.669,0-30.23-13.562-30.23-30.23s13.562-30.23,30.23-30.23
		s30.23,13.561,30.23,30.23S272.659,512,255.991,512z M255.991,466.54c-8.398,0-15.23,6.832-15.23,15.23s6.833,15.23,15.23,15.23
		c8.398,0,15.23-6.833,15.23-15.23S264.389,466.54,255.991,466.54z"/>
	<path style="fill:#1B3D66;" d="M451.464,399.128c-5.239,0-10.408-1.374-15.066-4.063c-14.436-8.334-19.399-26.859-11.065-41.295
		c8.336-14.437,26.861-19.399,41.296-11.065c6.993,4.038,11.995,10.557,14.085,18.356c2.09,7.8,1.018,15.947-3.021,22.94
		c-4.037,6.992-10.556,11.995-18.355,14.084C456.734,398.783,454.089,399.128,451.464,399.128z M451.538,353.658
		c-5.268,0-10.397,2.731-13.216,7.612c-4.198,7.272-1.697,16.606,5.575,20.805c3.522,2.034,7.628,2.575,11.557,1.521
		c3.93-1.053,7.214-3.573,9.248-7.096l0,0c2.034-3.522,2.574-7.627,1.521-11.557s-3.573-7.214-7.096-9.248
		C456.736,354.314,454.12,353.658,451.538,353.658z"/>
	<path style="fill:#1B3D66;" d="M451.564,173.339c-10.456,0-20.638-5.421-26.231-15.108c-8.334-14.437-3.37-32.962,11.065-41.296
		c6.993-4.038,15.14-5.109,22.939-3.02c7.8,2.09,14.318,7.092,18.355,14.085l0,0c4.038,6.993,5.11,15.14,3.021,22.94
		c-2.09,7.799-7.092,14.318-14.085,18.356C461.88,172.037,456.689,173.339,451.564,173.339z M451.489,127.878
		c-2.64,0-5.244,0.692-7.591,2.047c-7.272,4.199-9.773,13.532-5.575,20.806c4.201,7.272,13.534,9.773,20.806,5.574
		c3.522-2.034,6.043-5.318,7.096-9.248s0.513-8.034-1.521-11.557l0,0c-2.034-3.523-5.318-6.043-9.248-7.096
		C454.143,128.052,452.811,127.878,451.489,127.878z"/>
</g>
<g>
	<path style="fill:#EBEEF2;" d="M102.374,256c0,2.515,0.065,5.015,0.184,7.5h306.864c0.12-2.485,0.184-4.985,0.184-7.5
		s-0.065-5.015-0.184-7.5H102.559C102.439,250.985,102.374,253.485,102.374,256z"/>
	<path style="fill:#EBEEF2;" d="M125.913,174.263h260.155c-3.287-5.22-6.879-10.228-10.753-15h-238.65
		C132.792,164.034,129.2,169.042,125.913,174.263z"/>
	<path style="fill:#EBEEF2;" d="M386.068,337.737H125.913c3.287,5.22,6.879,10.228,10.753,15h238.65
		C379.189,347.966,382.781,342.958,386.068,337.737z"/>
</g>
<g>
</g>
<g>
</g>
<g>
</g>
<g>
</g>
<g>
</g>
<g>
</g>
<g>
</g>
<g>
</g>
<g>
</g>
<g>
</g>
<g>
</g>
<g>
</g>
<g>
</g>
<g>
</g>
<g>
</g>
</svg>
