<?xml version="1.0" encoding="iso-8859-1"?>
<!-- Generator: Adobe Illustrator 19.0.0, SVG Export Plug-In . SVG Version: 6.00 Build 0)  -->
<svg version="1.1" id="Capa_1" xmlns="http://www.w3.org/2000/svg" xmlns:xlink="http://www.w3.org/1999/xlink" x="0px" y="0px"
	 viewBox="0 0 512 512" style="enable-background:new 0 0 512 512;" xml:space="preserve">
<g>
	<path style="fill:#1B3D66;" d="M341.128,283.87c-27.47,0-49.819-22.349-49.819-49.819s22.348-49.819,49.819-49.819
		c27.47,0,49.819,22.348,49.819,49.819S368.598,283.87,341.128,283.87z M341.128,199.238c-19.196,0-34.814,15.617-34.814,34.814
		s15.618,34.814,34.814,34.814s34.814-15.618,34.814-34.814S360.323,199.238,341.128,199.238z"/>
	<path style="fill:#1B3D66;" d="M341.128,376.161c-78.36,0-142.11-63.75-142.11-142.11c0-78.359,63.75-142.109,142.11-142.109
		s142.11,63.75,142.11,142.109C483.237,312.411,419.487,376.161,341.128,376.161z M341.128,106.947
		c-70.085,0-127.105,57.019-127.105,127.104c0,70.086,57.019,127.105,127.105,127.105s127.105-57.019,127.105-127.105
		C468.232,163.966,411.213,106.947,341.128,106.947z"/>
	<path style="fill:#1B3D66;" d="M341.128,135.71c-4.144,0-7.503-3.359-7.503-7.503V70.681c0-4.144,3.359-7.503,7.503-7.503
		c4.144,0,7.503,3.359,7.503,7.503v57.526C348.63,132.351,345.271,135.71,341.128,135.71z"/>
	<path style="fill:#1B3D66;" d="M341.128,404.924c-4.144,0-7.503-3.359-7.503-7.503v-57.526c0-4.143,3.359-7.503,7.503-7.503
		c4.144,0,7.503,3.359,7.503,7.503v57.526C348.63,401.565,345.271,404.924,341.128,404.924z"/>
	<path style="fill:#1B3D66;" d="M504.497,241.554h-57.526c-4.144,0-7.503-3.359-7.503-7.503c0-4.144,3.359-7.503,7.503-7.503h57.526
		c4.144,0,7.503,3.359,7.503,7.503S508.641,241.554,504.497,241.554z"/>
</g>
<path style="fill:#ED5575;" d="M176.164,446.312c1.248,2.161,3.901,3.083,6.212,2.143c4.751-1.932,9.429-4.196,13.996-6.833
	c54.537-31.487,73.223-101.224,41.736-155.761s-101.224-73.223-155.761-41.736c-4.567,2.637-8.867,5.556-12.915,8.704
	c-1.97,1.532-2.498,4.29-1.25,6.451L176.164,446.312z"/>
<path style="fill:#CC3A60;" d="M238.109,285.861c-1.134-1.964-2.324-3.877-3.554-5.747c23.541,47.767,1.639,109.067-50.935,139.42
	c-5.866,3.387-11.879,6.218-17.967,8.572l10.512,18.207c1.248,2.161,3.901,3.083,6.212,2.143c4.751-1.932,9.429-4.196,13.996-6.833
	C250.91,410.135,269.596,340.398,238.109,285.861z"/>
<path style="fill:#EBEEF2;" d="M122.167,397.184c0.607,1.052,1.782,1.64,2.986,1.48c55.739-7.409,131.051-29.841,167.583-50.932
	c50.642-29.238,48.141-121.204,48.141-121.204s-78.395-48.149-129.037-18.911c-36.532,21.092-93.614,75.098-127.9,119.665
	c-0.741,0.963-0.819,2.274-0.212,3.326L122.167,397.184z"/>
<path style="fill:#D1D6DE;" d="M281.136,327.639c-36.967,21.343-110.966,48.694-163.766,61.237l4.797,8.308
	c0.607,1.052,1.782,1.64,2.986,1.479c55.739-7.409,131.051-29.841,167.583-50.932c50.642-29.238,48.141-121.204,48.141-121.204
	C340.877,226.529,331.777,298.401,281.136,327.639z"/>
<circle style="fill:#444966;" cx="227.9" cy="291.75" r="30.22"/>
<path style="fill:#5C9CEE;" d="M249.164,198.211l70.379,121.9c22.826-38.462,21.334-93.584,21.334-93.584
	S293.886,197.674,249.164,198.211z"/>
<path style="fill:#3580D3;" d="M340.897,228.291c0-0.099-0.001-0.195-0.001-0.287c0-0.095-0.001-0.183-0.002-0.269
	c-0.001-0.074-0.001-0.153-0.002-0.221c-0.001-0.139-0.003-0.267-0.004-0.377c0-0.038-0.001-0.066-0.001-0.1
	c-0.001-0.081-0.002-0.16-0.004-0.221c0-0.019-0.001-0.036-0.001-0.053c-0.001-0.065-0.002-0.121-0.003-0.158
	c0-0.006,0-0.016,0-0.021c-0.001-0.033-0.001-0.058-0.001-0.058l0,0c0,0.003-5.461,43.082-31.426,76.104l10.092,17.48
	c18.872-31.799,21.121-74.983,21.334-88.992c0.001-0.054,0.002-0.108,0.002-0.161c0.003-0.225,0.006-0.444,0.008-0.653
	c0-0.029,0-0.057,0.001-0.086c0.004-0.402,0.006-0.772,0.008-1.112c0-0.052,0-0.109,0-0.159c0-0.132,0-0.254,0-0.376
	C340.897,228.476,340.897,228.38,340.897,228.291z"/>
<path style="fill:#FCAB29;" d="M79.655,372.615c-16.628-8.442-36.178-7.927-52.3,1.379C11.236,383.3,1.014,399.975,0.011,418.597
	c-0.159,2.967,1.447,5.749,4.095,7.093c7.871,3.996,16.395,5.985,24.902,5.985c9.465,0,18.909-2.463,27.398-7.365
	c16.119-9.306,26.341-25.981,27.344-44.602C83.91,376.742,82.304,373.961,79.655,372.615z"/>
<path style="fill:#DD8D19;" d="M82.802,378.065c-4.623,12.352-17.007,25.283-33.126,34.589c-8.489,4.901-17.333,8.403-25.702,10.302
	c-7.521,1.707-14.659,2.119-20.817,1.091c-1.036-0.173-1.769-0.633-2.152-1.295c0.713,1.234,1.776,2.266,3.101,2.939
	c7.871,3.996,16.395,5.985,24.902,5.985c9.465,0,18.909-2.463,27.398-7.365c16.119-9.306,26.341-25.981,27.344-44.602
	c0.08-1.484-0.282-2.921-0.994-4.155C83.138,376.216,83.17,377.081,82.802,378.065z"/>
<g>
</g>
<g>
</g>
<g>
</g>
<g>
</g>
<g>
</g>
<g>
</g>
<g>
</g>
<g>
</g>
<g>
</g>
<g>
</g>
<g>
</g>
<g>
</g>
<g>
</g>
<g>
</g>
<g>
</g>
</svg>
