<?xml version="1.0" encoding="iso-8859-1"?>
<!-- Generator: Adobe Illustrator 19.0.0, SVG Export Plug-In . SVG Version: 6.00 Build 0)  -->
<svg version="1.1" id="Capa_1" xmlns="http://www.w3.org/2000/svg" xmlns:xlink="http://www.w3.org/1999/xlink" x="0px" y="0px"
	 viewBox="0 0 512 512" style="enable-background:new 0 0 512 512;" xml:space="preserve">
<path style="fill:#D1D6DE;" d="M95.737,100.443h45.908V18.252C141.645,8.172,133.473,0,123.393,0l0,0
	c-8.327,0-15.598,5.635-17.675,13.699L86.457,88.47C84.895,94.534,89.474,100.443,95.737,100.443z"/>
<path style="fill:#EBEEF2;" d="M183.81,0h-42.165h-18.252c10.08,0,18.252,8.172,18.252,18.252v82.191v146.944H454.75V27.376
	C454.75,12.257,442.493,0,427.374,0H183.81z"/>
<path style="fill:#D1D6DE;" d="M427.374,0h-23.551c15.119,0,27.376,12.257,27.376,27.376v220.011h23.551V27.376
	C454.75,12.257,442.493,0,427.374,0z"/>
<g>
	<path style="fill:#656D88;" d="M395.622,71.67H200.773c-4.271,0-7.734-3.463-7.734-7.734s3.463-7.734,7.734-7.734h194.849
		c4.271,0,7.734,3.463,7.734,7.734S399.893,71.67,395.622,71.67z"/>
	<path style="fill:#656D88;" d="M395.622,129.213H200.773c-4.271,0-7.734-3.463-7.734-7.734s3.463-7.734,7.734-7.734h194.849
		c4.271,0,7.734,3.463,7.734,7.734S399.893,129.213,395.622,129.213z"/>
	<path style="fill:#656D88;" d="M395.622,186.755H200.773c-4.271,0-7.734-3.463-7.734-7.734s3.463-7.734,7.734-7.734h194.849
		c4.271,0,7.734,3.463,7.734,7.734C403.356,183.292,399.893,186.755,395.622,186.755z"/>
</g>
<path style="fill:#FCAB29;" d="M287.207,203.609l-18.241-37.395c-2.42-4.962-7.458-8.11-12.979-8.11H128.526
	c-7.975,0-14.44,6.465-14.44,14.44v39.174v247.34c0,7.975,6.465,14.44,14.44,14.44h337.578c7.975,0,14.44-6.465,14.44-14.44v-232.9
	c0-7.975-6.465-14.44-14.44-14.44H300.185C294.665,211.719,289.627,208.571,287.207,203.609z"/>
<g>
	<path style="fill:#DD8D19;" d="M244.048,166.214l18.241,37.396c2.42,4.962,7.458,8.109,12.979,8.109h24.917
		c-5.521,0-10.558-3.148-12.979-8.109l-18.241-37.396c-2.42-4.962-7.458-8.11-12.979-8.11h-24.917
		C236.59,158.104,241.628,161.252,244.048,166.214z"/>
	<path style="fill:#DD8D19;" d="M466.105,211.719h-24.917c7.975,0,14.44,6.465,14.44,14.441v232.9c0,7.975-6.465,14.44-14.44,14.44
		h24.917c7.975,0,14.44-6.465,14.44-14.44v-232.9C480.545,218.184,474.08,211.719,466.105,211.719z"/>
</g>
<g>
	<path style="fill:#5C9CEE;" d="M286.242,380.843c0,42.588-21.525,80.144-54.281,102.388c-19.78,13.426-43.653,21.268-69.363,21.268
		c-25.71,0-49.583-7.842-69.363-21.268c-32.756-22.244-54.281-59.8-54.281-102.388c0-68.285,55.359-123.644,123.644-123.644
		S286.242,312.559,286.242,380.843z"/>
	<path style="fill:#5C9CEE;" d="M278.74,380.84c0,38.55-19.06,74.5-50.99,96.19C208.5,490.09,185.97,497,162.6,497
		s-45.9-6.91-65.15-19.97c-31.93-21.69-50.99-57.64-50.99-96.19c0-64.04,52.1-116.14,116.14-116.14S278.74,316.8,278.74,380.84z"/>
</g>
<path style="fill:#9FD479;" d="M162.599,512c-26.387,0-51.829-7.802-73.575-22.563c-36.048-24.479-57.569-65.075-57.569-108.594
	c0-72.313,58.831-131.144,131.144-131.144s131.144,58.831,131.144,131.144c0,43.519-21.521,84.114-57.568,108.593
	C214.428,504.198,188.986,512,162.599,512z M162.599,264.7c-64.042,0-116.144,52.102-116.144,116.144
	c0,38.543,19.063,74.5,50.994,96.184c19.25,13.065,41.778,19.972,65.15,19.972c23.372,0,45.9-6.907,65.15-19.974
	c31.93-21.683,50.994-57.639,50.994-96.183C278.743,316.801,226.641,264.7,162.599,264.7z"/>
<path style="fill:#F9C295;" d="M162.599,292.009L162.599,292.009c-25.874,0-46.849,20.975-46.849,46.849v22.587
	c0,25.874,20.975,46.849,46.849,46.849l0,0c25.874,0,46.849-20.975,46.849-46.849v-22.587
	C209.448,312.985,188.473,292.009,162.599,292.009z"/>
<path style="fill:#444966;" d="M230.34,475.21c-0.86,0.62-1.72,1.23-2.59,1.82c-19.07,12.94-41.35,19.84-64.48,19.96
	c-0.22,0.01-0.45,0.01-0.67,0.01s-0.45,0-0.67-0.01c-23.13-0.12-45.41-7.02-64.48-19.96c-0.87-0.59-1.73-1.2-2.59-1.82
	c4.54-15.67,16.58-28.12,31.98-33.28h0.01l-0.02-0.02v-0.01c0.61-0.2,1.23-0.4,1.84-0.58c0.12-0.03,0.22-0.06,0.34-0.1
	c0.52-0.14,1.06-0.28,1.6-0.42c0.61-0.15,1.22-0.29,1.84-0.42c0.09-0.02,0.17-0.04,0.25-0.05c0.45-0.09,0.89-0.18,1.34-0.25
	c0.16-0.03,0.31-0.06,0.47-0.08c0.29-0.05,0.58-0.1,0.88-0.14c0.13-0.02,0.26-0.04,0.39-0.06c0.17-0.02,0.34-0.05,0.51-0.07
	c0.09-0.01,0.19-0.02,0.29-0.04c0.24-0.03,0.48-0.05,0.72-0.07c0.4-0.05,0.81-0.09,1.22-0.12c0.33-0.03,0.67-0.05,1.01-0.07
	c0.3-0.02,0.61-0.04,0.91-0.05c0.13,0,0.25-0.01,0.38-0.01c0.25-0.01,0.51-0.02,0.76-0.03c0.35-0.01,0.69-0.01,1.04-0.01h39.96
	c0.35,0,0.69,0,1.04,0.01c0.25,0.01,0.51,0.02,0.76,0.03c0.13,0,0.25,0.01,0.38,0.01c0.3,0.01,0.61,0.03,0.91,0.05
	c0.34,0.02,0.68,0.04,1.01,0.07c0.43,0.03,0.85,0.07,1.27,0.12c0.22,0.02,0.45,0.05,0.67,0.07c0.1,0.02,0.2,0.03,0.29,0.04
	c0.11,0.01,0.22,0.03,0.32,0.05c0.49,0.06,0.97,0.14,1.45,0.22c0.19,0.03,0.37,0.06,0.56,0.09c0.41,0.07,0.82,0.15,1.23,0.24
	c0.09,0.01,0.18,0.03,0.28,0.05c0.57,0.12,1.14,0.25,1.71,0.39c0.12,0.03,0.24,0.06,0.36,0.09c0.46,0.12,0.92,0.24,1.37,0.36
	c0.1,0.04,0.21,0.07,0.31,0.1c0.01,0,0.01,0.01,0.02,0c0.62,0.18,1.24,0.38,1.85,0.58v0.01l-0.02,0.02h0.01
	C213.76,447.09,225.8,459.54,230.34,475.21z"/>
<path style="fill:#EBEEF2;" d="M198.38,441.91l-0.02,0.02l-35.09,55.06c-0.22,0.01-0.45,0.01-0.67,0.01s-0.45,0-0.67-0.01
	l-35.09-55.06l-0.02-0.02h0.01c1.24-0.42,2.5-0.79,3.78-1.11c0.61-0.15,1.22-0.29,1.84-0.42c0.09-0.02,0.17-0.04,0.25-0.05
	c0.45-0.09,0.89-0.18,1.34-0.25c0.16-0.03,0.31-0.06,0.47-0.08c0.29-0.05,0.58-0.1,0.88-0.14c0.13-0.02,0.26-0.04,0.39-0.06
	c0.5-0.07,1.01-0.13,1.52-0.18c0.4-0.05,0.81-0.09,1.22-0.12c0.33-0.03,0.67-0.05,1.01-0.07c0.3-0.02,0.61-0.04,0.91-0.05
	c0.38-0.02,0.76-0.03,1.14-0.04c0.35-0.01,0.69-0.01,1.04-0.01h39.96c0.35,0,0.69,0,1.04,0.01c0.38,0.01,0.76,0.02,1.14,0.04
	c0.3,0.01,0.61,0.03,0.91,0.05c0.34,0.02,0.68,0.04,1.01,0.07c0.43,0.03,0.85,0.07,1.27,0.12c0.43,0.05,0.86,0.1,1.28,0.16
	c0.49,0.06,0.97,0.14,1.45,0.22c0.19,0.03,0.37,0.06,0.56,0.09c0.41,0.07,0.82,0.15,1.23,0.24c0.09,0.01,0.18,0.03,0.28,0.05
	c0.57,0.12,1.14,0.25,1.71,0.39c0.12,0.03,0.24,0.06,0.36,0.09c0.56,0.15,1.12,0.3,1.68,0.46c0.01,0,0.01,0.01,0.02,0
	c0.62,0.19,1.24,0.38,1.85,0.59H198.38z"/>
<path style="fill:#444966;" d="M193.08,303.304c0-0.002,0.001-0.004,0.001-0.006c-0.087-0.074-0.177-0.143-0.264-0.217
	c-0.359-0.303-0.721-0.602-1.089-0.895c-0.168-0.133-0.337-0.264-0.507-0.396c-0.337-0.261-0.678-0.517-1.022-0.769
	c-0.201-0.147-0.403-0.292-0.606-0.436c-0.316-0.223-0.634-0.441-0.955-0.656c-0.236-0.158-0.472-0.316-0.711-0.47
	c-0.288-0.186-0.58-0.366-0.873-0.545c-0.277-0.17-0.553-0.34-0.833-0.504c-0.247-0.145-0.498-0.283-0.749-0.424
	c-0.33-0.185-0.659-0.371-0.993-0.548c-0.172-0.091-0.348-0.177-0.521-0.266c-6.406-3.294-13.661-5.164-21.36-5.164
	c-25.874,0-46.849,20.975-46.849,46.849v4.331c6.899,3.044,14.521,4.746,22.546,4.746c16.48,0,31.286-7.136,41.521-18.478
	c6.472,9.972,17.208,16.921,29.631,18.244v-8.843C209.448,324.629,203.096,311.893,193.08,303.304z"/>
<g>
</g>
<g>
</g>
<g>
</g>
<g>
</g>
<g>
</g>
<g>
</g>
<g>
</g>
<g>
</g>
<g>
</g>
<g>
</g>
<g>
</g>
<g>
</g>
<g>
</g>
<g>
</g>
<g>
</g>
</svg>
