<?xml version="1.0" encoding="iso-8859-1"?>
<!-- Generator: Adobe Illustrator 19.0.0, SVG Export Plug-In . SVG Version: 6.00 Build 0)  -->
<svg version="1.1" id="Capa_1" xmlns="http://www.w3.org/2000/svg" xmlns:xlink="http://www.w3.org/1999/xlink" x="0px" y="0px"
	 viewBox="0 0 512 512" style="enable-background:new 0 0 512 512;" xml:space="preserve">
<path style="fill:#656D88;" d="M274.191,94.918H237.81c-38.494,0-69.699,31.206-69.699,69.699v48.291h175.78v-48.291
	C343.89,126.123,312.685,94.918,274.191,94.918z"/>
<path style="fill:#444966;" d="M274.191,94.918h-23.194c38.494,0,69.699,31.205,69.699,69.699v48.291h23.194v-48.291
	C343.89,126.123,312.685,94.918,274.191,94.918z"/>
<path style="fill:#48CFB7;" d="M278.723,145.827h-45.446c-24.198,0-43.814,19.616-43.814,43.814v23.267h133.075v-23.267
	C322.537,165.443,302.921,145.827,278.723,145.827z"/>
<path style="fill:#ED5575;" d="M272.753,212.908l-7.539-45.387c7.292-3.458,12.348-10.865,12.348-19.472
	c0-0.751-0.039-1.492-0.114-2.223h-42.895c-0.075,0.731-0.114,1.472-0.114,2.223c0,8.607,5.055,16.014,12.348,19.472l-7.539,45.387
	L272.753,212.908L272.753,212.908z"/>
<path style="fill:#F9C295;" d="M208.842,48.784v28.822c0,26.045,21.113,47.158,47.158,47.158l0,0
	c26.045,0,47.158-21.113,47.158-47.158V48.784H208.842z"/>
<path style="fill:#E59F6A;" d="M283.15,48.784v28.822c0,24.15-14.305,44.047-32.746,46.816c1.836,0.217,3.701,0.342,5.595,0.342l0,0
	c26.045,0,47.158-21.113,47.158-47.158V48.784H283.15z"/>
<path style="fill:#444966;" d="M224.95,16.471L224.95,16.471c0,2.927-2.373,5.3-5.3,5.3l0,0c-5.969,0-10.808,4.839-10.808,10.808
	v16.205h95.529c11.05,0,20.008-8.958,20.008-20.008V5.38c0-2.971-2.409-5.38-5.38-5.38h-77.578
	C232.324,0,224.95,7.374,224.95,16.471z"/>
<path style="fill:#2E344C;" d="M303.158,0v28.776c0,11.05-8.958,20.008-20.008,20.008h21.221c11.05,0,20.008-8.958,20.008-20.008
	V4.233c0-2.338-1.895-4.233-4.233-4.233H303.158z"/>
<path style="fill:#D39053;" d="M417.379,237.294H94.621c-4.142,0-7.5,3.358-7.5,7.5v148.528c0,4.142,3.358,7.5,7.5,7.5h322.758
	c4.142,0,7.5-3.358,7.5-7.5V244.794C424.879,240.652,421.521,237.294,417.379,237.294z"/>
<g>
	<path style="fill:#AF713E;" d="M417.379,237.294h-21.562c4.142,0,7.5,3.358,7.5,7.5v148.528c0,4.142-3.358,7.5-7.5,7.5h21.562
		c4.142,0,7.5-3.358,7.5-7.5V244.794C424.879,240.652,421.521,237.294,417.379,237.294z"/>
	<rect x="87.12" y="244.79" style="fill:#AF713E;" width="337.76" height="22.501"/>
</g>
<g>
	<path style="fill:#CDD1DE;" d="M134.492,277.366V509c0,1.657,1.343,3,3,3h25.815c1.657,0,3-1.343,3-3V277.366c0-1.657-1.343-3-3-3
		h-25.815C135.835,274.366,134.492,275.709,134.492,277.366z"/>
	<path style="fill:#CDD1DE;" d="M278.297,277.366V509c0,1.657,1.343,3,3,3h25.815c1.657,0,3-1.343,3-3V277.366c0-1.657-1.343-3-3-3
		h-25.815C279.64,274.366,278.297,275.709,278.297,277.366z"/>
</g>
<path style="fill:#5C9CEE;" d="M278.297,451.768v24.604h-111.99v-24.604H278.297z M166.307,379.23v24.604h111.989V379.23H166.307z
	 M166.307,306.691v24.604h111.989v-24.604H166.307z"/>
<path style="fill:#3580D3;" d="M179.667,451.768v24.604h-13.36v-24.604H179.667z M166.307,379.23v24.604h13.36V379.23H166.307z
	 M166.307,306.691v24.604h13.36v-24.604H166.307z"/>
<path style="fill:#5C9CEE;" d="M421.51,177.872h-54.38c-1.913,0-3.463,1.551-3.463,3.463v24.073h58.232
	c7.825,0,14.125-6.527,13.752-14.434C435.302,183.569,428.923,177.872,421.51,177.872z"/>
<path style="fill:#D39053;" d="M440.832,205.408H71.168c-5.486,0-9.95,4.464-9.95,9.95v26.985c0,5.486,4.463,9.95,9.95,9.95h369.664
	c5.486,0,9.95-4.464,9.95-9.95v-26.985C450.782,209.872,446.318,205.408,440.832,205.408z"/>
<path style="fill:#AF713E;" d="M440.832,205.408h-25c5.486,0,9.95,4.464,9.95,9.95v26.985c0,5.486-4.463,9.95-9.95,9.95h25
	c5.486,0,9.95-4.464,9.95-9.95v-26.985C450.782,209.872,446.318,205.408,440.832,205.408z"/>
<g>
</g>
<g>
</g>
<g>
</g>
<g>
</g>
<g>
</g>
<g>
</g>
<g>
</g>
<g>
</g>
<g>
</g>
<g>
</g>
<g>
</g>
<g>
</g>
<g>
</g>
<g>
</g>
<g>
</g>
</svg>
