<?xml version="1.0" encoding="iso-8859-1"?>
<!-- Generator: Adobe Illustrator 19.0.0, SVG Export Plug-In . SVG Version: 6.00 Build 0)  -->
<svg version="1.1" id="Capa_1" xmlns="http://www.w3.org/2000/svg" xmlns:xlink="http://www.w3.org/1999/xlink" x="0px" y="0px"
	 viewBox="0 0 512 512" style="enable-background:new 0 0 512 512;" xml:space="preserve">
<path style="fill:#FCAB29;" d="M502.68,109.502l-44.8-27.886c-1.189-0.74-2.563-1.133-3.963-1.133H20.072
	C9.004,80.484,0,89.488,0,100.556v51.453c0,11.068,9.004,20.072,20.072,20.072h433.844c1.401,0,2.774-0.393,3.963-1.133l44.8-27.885
	c5.836-3.633,9.32-9.906,9.32-16.78S508.516,113.135,502.68,109.502z"/>
<path style="fill:#DD8D19;" d="M502.68,131.988l-44.8,9.481c-1.189,0.252-2.563,0.385-3.963,0.385H20.072
	C9.004,141.854,0,138.793,0,135.03v16.979c0,11.068,9.004,20.072,20.072,20.072h433.844c1.401,0,2.774-0.393,3.963-1.133
	l44.8-27.885c5.836-3.633,9.32-9.906,9.32-16.78l0,0C512,128.62,508.516,130.753,502.68,131.988z"/>
<path style="fill:#444966;" d="M502.68,109.502l-44.8-27.886c-1.189-0.74-2.563-1.133-3.963-1.133h-7.5v91.597h7.5
	c1.401,0,2.774-0.393,3.963-1.133l44.8-27.885c5.836-3.633,9.32-9.906,9.32-16.78S508.516,113.135,502.68,109.502z"/>
<path style="fill:#2E344C;" d="M502.68,131.988l-44.8,9.481c-1.189,0.252-2.563,0.385-3.963,0.385h-7.5v30.227h7.5
	c1.401,0,2.774-0.393,3.963-1.133l44.8-27.885c5.836-3.633,9.32-9.906,9.32-16.78C512,128.62,508.516,130.753,502.68,131.988z"/>
<path style="fill:#EC86C8;" d="M43.883,152.009v-51.453c0-11.068,9.004-20.072,20.072-20.072H20.072
	C9.004,80.484,0,89.488,0,100.556v51.453c0,11.068,9.004,20.072,20.072,20.072h43.883C52.888,172.081,43.883,163.077,43.883,152.009
	z"/>
<path style="fill:#D770B7;" d="M43.883,152.009v-10.155H20.072C9.004,141.854,0,138.793,0,135.03v16.979
	c0,11.068,9.004,20.072,20.072,20.072h43.883C52.888,172.081,43.883,163.077,43.883,152.009z"/>
<path style="fill:#EBEEF2;" d="M384.708,50.994H86.064c-4.142,0-7.5,3.358-7.5,7.5v388.271c0,20.052,16.313,36.365,36.365,36.365
	h215.746c1.989,0,3.897-0.79,5.303-2.197l82.898-82.898c1.407-1.406,2.197-3.314,2.197-5.303V87.359
	C421.074,67.307,404.76,50.994,384.708,50.994z"/>
<path style="fill:#DCE0E5;" d="M384.708,50.994h-26c20.052,0,36.365,16.313,36.365,36.365v305.373c0,1.989-0.79,3.897-2.197,5.303
	l-4.021,4.021h26l4.021-4.021c1.407-1.406,2.197-3.314,2.197-5.303V87.359C421.074,67.307,404.76,50.994,384.708,50.994z"/>
<path style="fill:#D1D6DE;" d="M420.503,389.861c-1.161-2.803-3.896-4.63-6.929-4.63h-82.899c-4.142,0-7.5,3.358-7.5,7.5v82.898
	c0,3.034,1.827,5.768,4.63,6.929c0.928,0.384,1.902,0.571,2.869,0.571c1.952,0,3.87-0.762,5.305-2.197l82.899-82.898
	C421.022,395.89,421.664,392.664,420.503,389.861z"/>
<g>
	<path style="fill:#444966;" d="M135.689,88.117c-4.142,0-7.5-3.358-7.5-7.5V36.37c0-4.142,3.358-7.5,7.5-7.5s7.5,3.358,7.5,7.5
		v44.247C143.189,84.759,139.832,88.117,135.689,88.117z"/>
	<path style="fill:#444966;" d="M211.776,88.117c-4.142,0-7.5-3.358-7.5-7.5V36.37c0-4.142,3.358-7.5,7.5-7.5s7.5,3.358,7.5,7.5
		v44.247C219.276,84.759,215.918,88.117,211.776,88.117z"/>
	<path style="fill:#444966;" d="M287.863,88.117c-4.142,0-7.5-3.358-7.5-7.5V36.37c0-4.142,3.358-7.5,7.5-7.5s7.5,3.358,7.5,7.5
		v44.247C295.363,84.759,292.005,88.117,287.863,88.117z"/>
	<path style="fill:#444966;" d="M363.95,88.117c-4.142,0-7.5-3.358-7.5-7.5V36.37c0-4.142,3.358-7.5,7.5-7.5s7.5,3.358,7.5,7.5
		v44.247C371.45,84.759,368.092,88.117,363.95,88.117z"/>
</g>
<path style="fill:#48CFB7;" d="M156.49,176.961c-1.919,0-3.839-0.732-5.303-2.197l-14.833-14.833c-2.929-2.929-2.929-7.678,0-10.606
	c2.929-2.929,7.678-2.929,10.606,0l9.53,9.53l22.304-22.304c2.929-2.929,7.678-2.929,10.606,0c2.929,2.929,2.929,7.678,0,10.606
	l-27.607,27.607C160.329,176.229,158.41,176.961,156.49,176.961z"/>
<g>
	<path style="fill:#1B3D66;" d="M352.419,145.511H247.347c-4.142,0-7.5-3.358-7.5-7.5s3.358-7.5,7.5-7.5h105.072
		c4.142,0,7.5,3.358,7.5,7.5S356.561,145.511,352.419,145.511z"/>
	<path style="fill:#1B3D66;" d="M284.431,180.805h-37.084c-4.142,0-7.5-3.358-7.5-7.5s3.358-7.5,7.5-7.5h37.084
		c4.142,0,7.5,3.358,7.5,7.5S288.573,180.805,284.431,180.805z"/>
</g>
<path style="fill:#48CFB7;" d="M156.49,282.24L156.49,282.24c-1.989,0-3.897-0.79-5.303-2.197l-14.833-14.834
	c-2.929-2.929-2.929-7.678,0-10.606c2.929-2.929,7.678-2.93,10.606,0l9.53,9.531l22.304-22.304c2.929-2.929,7.678-2.929,10.606,0
	c2.929,2.929,2.929,7.678,0,10.606l-27.607,27.607C160.387,281.45,158.479,282.24,156.49,282.24z"/>
<g>
	<path style="fill:#1B3D66;" d="M352.419,250.789H247.347c-4.142,0-7.5-3.358-7.5-7.5s3.358-7.5,7.5-7.5h105.072
		c4.142,0,7.5,3.358,7.5,7.5S356.561,250.789,352.419,250.789z"/>
	<path style="fill:#1B3D66;" d="M284.431,286.083h-37.084c-4.142,0-7.5-3.358-7.5-7.5s3.358-7.5,7.5-7.5h37.084
		c4.142,0,7.5,3.358,7.5,7.5S288.573,286.083,284.431,286.083z"/>
	<path style="fill:#1B3D66;" d="M352.419,356.067H247.347c-4.142,0-7.5-3.358-7.5-7.5s3.358-7.5,7.5-7.5h105.072
		c4.142,0,7.5,3.358,7.5,7.5S356.561,356.067,352.419,356.067z"/>
	<path style="fill:#1B3D66;" d="M284.431,391.361h-37.084c-4.142,0-7.5-3.358-7.5-7.5s3.358-7.5,7.5-7.5h37.084
		c4.142,0,7.5,3.358,7.5,7.5S288.573,391.361,284.431,391.361z"/>
</g>
<path style="fill:#ED5575;" d="M162.877,399.055c-18.904,0-34.283-15.379-34.283-34.283s15.379-34.283,34.283-34.283
	c18.903,0,34.283,15.379,34.283,34.283S181.781,399.055,162.877,399.055z M162.877,345.489c-10.633,0-19.283,8.65-19.283,19.283
	s8.65,19.283,19.283,19.283c10.632,0,19.283-8.65,19.283-19.283S173.51,345.489,162.877,345.489z"/>
<g>
</g>
<g>
</g>
<g>
</g>
<g>
</g>
<g>
</g>
<g>
</g>
<g>
</g>
<g>
</g>
<g>
</g>
<g>
</g>
<g>
</g>
<g>
</g>
<g>
</g>
<g>
</g>
<g>
</g>
</svg>
