<?xml version="1.0" encoding="iso-8859-1"?>
<!-- Generator: Adobe Illustrator 19.0.0, SVG Export Plug-In . SVG Version: 6.00 Build 0)  -->
<svg version="1.1" id="Capa_1" xmlns="http://www.w3.org/2000/svg" xmlns:xlink="http://www.w3.org/1999/xlink" x="0px" y="0px"
	 viewBox="0 0 512 512" style="enable-background:new 0 0 512 512;" xml:space="preserve">
<path style="fill:#EBEEF2;" d="M443.73,402.055c-0.001-17.703-12.915-32.383-29.842-35.133c0.048-0.795,0.08-1.594,0.08-2.401
	c0-21.056-16.555-38.245-37.358-39.265c0.571-3.211,0.886-6.511,0.886-9.886c0-30.982-25.116-56.097-56.097-56.097
	c-8.275,0-16.129,1.794-23.197,5.013c-7.503,3.416-16.037-1.895-16.037-10.139V228.63h-52.329v25.517
	c0,8.244-8.535,13.555-16.037,10.139c-7.069-3.219-14.923-5.013-23.197-5.013c-30.981,0-56.097,25.116-56.097,56.097
	c0,3.375,0.315,6.675,0.886,9.886c-20.804,1.019-37.358,18.208-37.358,39.265c0,0.807,0.032,1.606,0.08,2.401
	c-16.926,2.749-29.84,17.43-29.842,35.133H443.73z"/>
<g>
	<path style="fill:#D1D6DE;" d="M279.976,264.286c1.757-0.869,3.57-1.624,5.426-2.278c-1.973-1.972-3.237-4.697-3.237-7.861V228.63
		H265.21v25.517C265.21,262.391,273.068,267.702,279.976,264.286z"/>
	<path style="fill:#D1D6DE;" d="M413.888,366.922c0.048-0.795,0.08-1.594,0.08-2.4c0-21.057-16.555-38.245-37.358-39.265
		c0.571-3.211,0.886-6.511,0.886-9.886c0-30.982-25.116-56.097-56.097-56.097c-3.567,0-7.049,0.352-10.431,0.99
		c23.919,4.904,42.016,27.704,42.016,55.108c0,3.375-0.29,6.675-0.816,9.886c19.155,1.019,34.397,18.208,34.397,39.265
		c0,0.807-0.029,1.606-0.074,2.4c15.585,2.75,27.475,17.43,27.476,35.133h29.762C443.729,384.352,430.815,369.672,413.888,366.922z"
		/>
</g>
<path style="fill:#1B3D66;" d="M478.5,409.555h-445c-4.142,0-7.5-3.358-7.5-7.5s3.358-7.5,7.5-7.5h445c4.142,0,7.5,3.358,7.5,7.5
	S482.643,409.555,478.5,409.555z"/>
<path style="fill:#ED5575;" d="M256,292.11c-60.624,0-109.945,49.321-109.945,109.945S195.376,512,256,512
	s109.945-49.321,109.945-109.945S316.624,292.11,256,292.11z"/>
<circle style="fill:#EBEEF2;" cx="256" cy="402.06" r="73.74"/>
<path style="fill:#5C9CEE;" d="M256,458.933c-31.363,0-56.878-25.515-56.878-56.878c0-6.197,0.992-12.293,2.949-18.118
	c1.319-3.926,5.574-6.038,9.498-4.721c3.927,1.319,6.041,5.571,4.721,9.498c-1.438,4.283-2.168,8.771-2.168,13.342
	c0,23.092,18.786,41.878,41.878,41.878s41.878-18.786,41.878-41.878S279.092,360.177,256,360.177c-4.142,0-7.5-3.358-7.5-7.5
	s3.358-7.5,7.5-7.5c31.363,0,56.878,25.515,56.878,56.878S287.363,458.933,256,458.933z"/>
<path style="fill:#1B3D66;" d="M256,409.555c-1.919,0-3.839-0.732-5.303-2.197l-31.46-31.46c-2.929-2.929-2.929-7.678,0-10.606
	c2.929-2.929,7.678-2.929,10.606,0l31.46,31.46c2.929,2.929,2.929,7.678,0,10.606C259.839,408.823,257.919,409.555,256,409.555z"/>
<path style="fill:#ED5575;" d="M256,83.898c-45.766,0-83,37.234-83,83c0,4.759,0.429,9.616,1.276,14.438
	c0.607,3.454,3.606,5.972,7.112,5.972H330.61c3.506,0,6.506-2.519,7.112-5.972c0.847-4.822,1.276-9.679,1.276-14.438
	C339,121.132,301.766,83.898,256,83.898z"/>
<path style="fill:#CC3A60;" d="M203.649,102.549c3.583,25.722,11.696,57.963,21.543,84.759h79.615
	c7.852-21.366,14.602-46.192,18.833-68.422C308.582,97.734,283.884,83.898,256,83.898
	C236.166,83.898,217.942,90.899,203.649,102.549z"/>
<path style="fill:#EBEEF2;" d="M259.572,0.905c-2.229-1.207-4.916-1.207-7.145,0c-2.44,1.322-59.762,32.88-59.762,77.198
	c0,29.714,12.786,84.406,28.502,121.919c1.168,2.788,3.895,4.602,6.917,4.602h55.83c3.022,0,5.75-1.814,6.917-4.602
	c15.716-37.513,28.502-92.205,28.502-121.919C319.334,33.785,262.012,2.227,259.572,0.905z"/>
<path style="fill:#D1D6DE;" d="M259.572,0.905C258.458,0.302,257.229,0,256,0c0.705,0,1.41,0.302,2.049,0.905
	c1.4,1.322,34.284,32.88,34.284,77.198c0,29.714-7.335,84.406-16.351,121.919c-0.67,2.788-2.234,4.602-3.968,4.602h11.901
	c3.022,0,5.75-1.814,6.917-4.602c15.716-37.513,28.502-92.205,28.502-121.919C319.334,33.785,262.012,2.227,259.572,0.905z"/>
<path style="fill:#5C9CEE;" d="M252.428,0.905c-2.094,1.134-44.588,24.529-56.614,59.143h120.372
	c-12.026-34.614-54.52-58.009-56.614-59.143C257.344-0.302,254.656-0.302,252.428,0.905z"/>
<path style="fill:#3580D3;" d="M290.509,60.048h25.677C307.841,36.286,283.6,14.862,261.732,2.13C259.633,0.902,258.273,0,256,0
	c0.705,0,1.41,0.302,2.049,0.905C259.25,2.039,283.608,25.439,290.509,60.048z"/>
<circle style="fill:#8088A0;" cx="256" cy="94.53" r="18.19"/>
<g>
</g>
<g>
</g>
<g>
</g>
<g>
</g>
<g>
</g>
<g>
</g>
<g>
</g>
<g>
</g>
<g>
</g>
<g>
</g>
<g>
</g>
<g>
</g>
<g>
</g>
<g>
</g>
<g>
</g>
</svg>
