<?xml version="1.0" encoding="iso-8859-1"?>
<!-- Generator: Adobe Illustrator 19.0.0, SVG Export Plug-In . SVG Version: 6.00 Build 0)  -->
<svg version="1.1" id="Capa_1" xmlns="http://www.w3.org/2000/svg" xmlns:xlink="http://www.w3.org/1999/xlink" x="0px" y="0px"
	 viewBox="0 0 512 512" style="enable-background:new 0 0 512 512;" xml:space="preserve">
<path style="fill:#F9C295;" d="M368.862,197.984h-51.063h-189.39v143.618c0,18.086,14.656,32.743,32.743,32.743h17.337v87.392
	H340.97v-87.392h8.984c6.903,0,13.382-1.891,18.907-5.188c10.846-6.449,18.1-18.277,18.1-31.804V197.984H368.862z"/>
<path style="fill:#E59F6A;" d="M368.862,197.984h-8.675v117.572c0,13.528-7.255,25.356-18.1,31.804
	c-5.526,3.298-12.004,5.188-18.907,5.188h-8.984v109.188h26.775v-87.392h8.984c6.903,0,13.381-1.891,18.907-5.188
	c10.846-6.449,18.1-18.277,18.1-31.805V197.984H368.862z"/>
<path style="fill:#5C9CEE;" d="M106.905,434.818c0,4.085-0.862,7.655-2.373,10.778c-10.476,21.68-52.089,21.68-52.089,21.68
	l7.454-28.115l-23.045-16.598c0,0,49.985,0,54.17-28.54C100.268,407.139,106.905,420.167,106.905,434.818z"/>
<path style="fill:#3580D3;" d="M104.533,445.596c1.511-3.123,2.373-6.693,2.373-10.778c0-14.651-6.637-27.678-15.882-40.796
	c-2.194-3.1-4.522-6.223-6.962-9.357c0-0.011-0.011-0.022-0.022-0.034c-6.245-13.52-10.375-28.686-10.375-46.314
	c0-28.462,6.973-48.283,18.042-62.016C72.064,313.628,140.113,394.526,104.533,445.596z"/>
<path style="fill:#5C9CEE;" d="M405.094,434.818c0,4.085,0.862,7.655,2.373,10.778c10.476,21.68,52.089,21.68,52.089,21.68
	l-7.454-28.115l23.045-16.598c0,0-49.985,0-54.171-28.54C411.731,407.139,405.094,420.167,405.094,434.818z"/>
<path style="fill:#3580D3;" d="M407.467,445.596c-1.511-3.123-2.373-6.693-2.373-10.778c0-14.651,6.637-27.678,15.882-40.796
	c2.194-3.1,4.522-6.223,6.962-9.357c0-0.011,0.011-0.022,0.022-0.034c6.245-13.52,10.375-28.686,10.375-46.314
	c0-28.462-6.973-48.283-18.042-62.016C439.936,313.628,371.887,394.526,407.467,445.596z"/>
<path style="fill:#5C9CEE;" d="M476.725,282.614c0-108.822-103.719-122.376-151.476-122.376H186.751
	c-47.757,0-151.476,13.554-151.476,122.376c0,45.788,27.801,74.921,48.765,102.017c-6.245-13.52-10.375-28.686-10.375-46.314
	c0-28.462,6.973-48.283,18.042-62.016c0.011,0,0.011-0.011,0.011-0.011c31.215-38.747,94.977-29.122,126.372-29.122h75.822
	c31.394,0,95.156-9.625,126.371,29.122c0,0,0,0.011,0.011,0.011c11.069,13.733,18.042,33.554,18.042,62.016
	c0,17.628-4.13,32.793-10.375,46.314C448.924,357.535,476.725,328.402,476.725,282.614z"/>
<path style="fill:#F4B07D;" d="M158.464,132.587c-16.6,0-30.056,13.456-30.056,30.056v63.602c0,16.6,13.456,30.056,30.056,30.056
	s30.056-13.456,30.056-30.056v-63.602C188.52,146.043,175.064,132.587,158.464,132.587z"/>
<path style="fill:#FCD0AE;" d="M218.576,132.587c-16.6,0-30.056,13.456-30.056,30.056v63.602c0,16.6,13.456,30.056,30.056,30.056
	s30.056-13.456,30.056-30.056v-63.602C248.632,146.043,235.176,132.587,218.576,132.587z"/>
<path style="fill:#EF9E67;" d="M278.688,132.587c-16.599,0-30.056,13.456-30.056,30.056v63.602c0,16.6,13.456,30.056,30.056,30.056
	s30.056-13.456,30.056-30.056v-63.602C308.744,146.043,295.288,132.587,278.688,132.587z"/>
<path style="fill:#FCD0AE;" d="M338.8,132.587c-16.6,0-30.056,13.456-30.056,30.056v63.602c0,16.6,13.456,30.056,30.056,30.056
	c16.599,0,30.056-13.456,30.056-30.056v-63.602C368.856,146.043,355.4,132.587,338.8,132.587z"/>
<path style="fill:#F9A973;" d="M386.955,213.124V197.32c0-13.442-10.897-24.338-24.338-24.338H259.859
	c-6.2,0-11.227,5.026-11.227,11.227v14.549c0,19.672,15.947,35.619,35.619,35.619h39.821v28.957c0,6.153-4.988,11.141-11.141,11.141
	h-5.991c-28.987,0-52.485,23.499-52.485,52.485v8.616c0,15.22,17.232,38.769,52.485,38.769h34.031h8.984
	c6.903,0,13.382-1.891,18.907-5.188c10.846-6.449,18.1-18.277,18.1-31.804V213.124H386.955z"/>
<path style="fill:#E88D4F;" d="M386.955,213.124v-15.14v-0.663c0-13.442-10.897-24.339-24.339-24.339h-26.638
	c13.442,0,24.339,10.897,24.339,24.339v0.663h-0.129v117.572c0,13.528-7.255,25.356-18.1,31.804
	c-5.526,3.298-12.004,5.188-18.907,5.188l0,0c-4.962,0-8.984,4.022-8.984,8.984v12.811h9.121h17.654h8.984
	c0.863,0,1.719-0.029,2.568-0.088c0.843-0.058,1.679-0.144,2.506-0.257c0.417-0.057,0.828-0.142,1.242-0.214
	c0.416-0.072,0.837-0.13,1.248-0.215c0.725-0.15,1.44-0.33,2.15-0.522c0.151-0.041,0.303-0.081,0.454-0.124
	c0.69-0.196,1.372-0.41,2.045-0.645c0.111-0.039,0.221-0.082,0.332-0.122c0.615-0.222,1.225-0.46,1.827-0.714
	c0.107-0.045,0.215-0.087,0.322-0.133c0.649-0.281,1.287-0.582,1.916-0.899c0.138-0.069,0.274-0.141,0.411-0.212
	c0.639-0.332,1.271-0.676,1.888-1.044c10.846-6.449,18.1-18.277,18.1-31.805V213.124H386.955z"/>
<path style="fill:#ED5575;" d="M346.009,419.528H173.095c-11.086,0-20.105,9.02-20.105,20.105v52.262
	c0,11.086,9.02,20.105,20.105,20.105h172.914c11.086,0,20.104-9.019,20.104-20.105v-52.262
	C366.113,428.547,357.095,419.528,346.009,419.528z"/>
<path style="fill:#CC3A60;" d="M346.009,419.528h-26c11.086,0,20.104,9.02,20.104,20.105v52.262
	c0,11.086-9.019,20.105-20.104,20.105h26c11.086,0,20.104-9.019,20.104-20.105v-52.262
	C366.113,428.547,357.095,419.528,346.009,419.528z"/>
<circle style="fill:#EBEEF2;" cx="203.81" cy="465.76" r="14.359"/>
<path style="fill:#F2DF33;" d="M238.991,40.797c-18.797,6.017-25.916,13.137-31.934,31.934c-1.01,3.156-5.486,3.156-6.496,0
	c-6.017-18.797-13.137-25.916-31.934-31.934c-3.156-1.01-3.156-5.486,0-6.496c18.797-6.017,25.916-13.137,31.934-31.934
	c1.01-3.156,5.486-3.156,6.496,0c6.017,18.797,13.137,25.916,31.934,31.934C242.147,35.311,242.147,39.787,238.991,40.797z"/>
<path style="fill:#5C9CEE;" d="M135.955,121.243c-18.797,6.017-25.916,13.137-31.934,31.934c-1.01,3.156-5.486,3.156-6.496,0
	c-6.017-18.797-13.137-25.916-31.934-31.934c-3.156-1.01-3.156-5.486,0-6.496c18.797-6.017,25.916-13.137,31.934-31.934
	c1.01-3.156,5.486-3.156,6.496,0c6.017,18.797,13.137,25.916,31.934,31.934C139.111,115.757,139.111,120.232,135.955,121.243z"/>
<path style="fill:#EBEEF2;" d="M445.145,107.793c-18.797,6.017-25.916,13.137-31.934,31.934c-1.01,3.156-5.486,3.156-6.496,0
	c-6.017-18.797-13.137-25.916-31.934-31.934c-3.156-1.01-3.156-5.486,0-6.496c18.797-6.017,25.916-13.137,31.934-31.934
	c1.01-3.156,5.486-3.156,6.496,0c6.017,18.797,13.137,25.916,31.934,31.934C448.301,102.307,448.301,106.783,445.145,107.793z"/>
<g>
</g>
<g>
</g>
<g>
</g>
<g>
</g>
<g>
</g>
<g>
</g>
<g>
</g>
<g>
</g>
<g>
</g>
<g>
</g>
<g>
</g>
<g>
</g>
<g>
</g>
<g>
</g>
<g>
</g>
</svg>
