<?xml version="1.0" encoding="iso-8859-1"?>
<!-- Generator: Adobe Illustrator 19.0.0, SVG Export Plug-In . SVG Version: 6.00 Build 0)  -->
<svg version="1.1" id="Capa_1" xmlns="http://www.w3.org/2000/svg" xmlns:xlink="http://www.w3.org/1999/xlink" x="0px" y="0px"
	 viewBox="0 0 512 512" style="enable-background:new 0 0 512 512;" xml:space="preserve">
<g>
	<path style="fill:#D1D6DE;" d="M234.398,182.544l-99.004,99.004c-2.619,2.619-7.101,0.842-7.214-2.86l-0.808-26.417l-26.418-0.808
		c-3.702-0.113-5.479-4.595-2.86-7.214l99.004-99.004L234.398,182.544z"/>
	<path style="fill:#D1D6DE;" d="M230.973,171.62H90.96c-3.704,0-5.617-4.425-3.079-7.123l18.109-19.251l-18.109-19.251
		c-2.538-2.698-0.625-7.123,3.079-7.123h140.013L230.973,171.62L230.973,171.62z"/>
</g>
<g>
	<path style="fill:#F9C295;" d="M143.196,204.949h23.006v-45.798h-23.006c-12.647,0-22.899,10.252-22.899,22.899l0,0
		C120.297,194.697,130.549,204.949,143.196,204.949z"/>
	<path style="fill:#F9C295;" d="M368.803,204.949h-23.006v-45.798h23.006c12.647,0,22.899,10.252,22.899,22.899l0,0
		C391.702,194.697,381.45,204.949,368.803,204.949z"/>
	<path style="fill:#F9C295;" d="M255.999,43.869L255.999,43.869c-53.983,0-97.746,43.763-97.746,97.746v47.125
		c0,53.984,43.763,97.746,97.746,97.746l0,0c53.983,0,97.746-43.763,97.746-97.746v-47.125
		C353.746,87.632,309.983,43.869,255.999,43.869z"/>
</g>
<path style="fill:#E59F6A;" d="M255.999,43.869c-4.226,0-8.389,0.269-12.474,0.789c48.093,6.126,85.272,47.2,85.272,96.957v47.125
	c0,49.758-37.179,90.832-85.272,96.958c4.085,0.521,8.248,0.789,12.474,0.789c53.983,0,97.746-43.762,97.746-97.746v-47.125
	C353.746,87.632,309.983,43.869,255.999,43.869z"/>
<path style="fill:#FCAB29;" d="M406.659,0H231.287c-44.406,0-80.533,36.127-80.533,80.533v11.964c0,4.142,3.357,7.5,7.5,7.5h195.492
	c33.312,0,60.413-27.101,60.413-60.413V7.5C414.159,3.358,410.801,0,406.659,0z"/>
<path style="fill:#DD8D19;" d="M406.659,0h-26.457c4.143,0,7.5,3.358,7.5,7.5v32.084c0,33.312-27.102,60.413-60.413,60.413h26.457
	c33.312,0,60.413-27.101,60.413-60.413V7.5C414.159,3.358,410.801,0,406.659,0z"/>
<path style="fill:#656D88;" d="M291.79,315.317h-71.581c-12.963,0-25.279,0.77-36.388,5.751
	c-31.031,13.913-52.647,45.075-52.647,81.284V512h249.652V402.352c0-36.319-21.745-67.558-52.927-81.409
	C316.863,316.04,304.645,315.317,291.79,315.317z"/>
<path style="fill:#FCAB29;" d="M324.628,381.693l-28.28,77.7l26.705,9.72l28.28-77.7c2.684-7.374-1.118-15.528-8.493-18.213l0,0
	C335.466,370.516,327.312,374.318,324.628,381.693z"/>
<path style="fill:#EC86C8;" d="M342.841,373.2c-7.374-2.684-15.528,1.118-18.212,8.493l-5.204,14.298l26.705,9.72l5.204-14.298
	C354.017,384.038,350.215,375.884,342.841,373.2z"/>
<g>
	<path style="fill:#F9C295;" d="M308.467,509.053h31.782v-59.179h-31.782c-14.448,0-26.161,11.713-26.161,26.161v6.857
		C282.306,497.34,294.019,509.053,308.467,509.053z"/>
	<path style="fill:#F9C295;" d="M203.532,509.053H171.75v-59.179h31.782c14.448,0,26.161,11.713,26.161,26.161v6.857
		C229.693,497.34,217.98,509.053,203.532,509.053z"/>
</g>
<g>
	<path style="fill:#444966;" d="M441.309,479.463c0-105.349-72.529-144.121-113.419-158.498
		c31.18,13.852,52.936,45.069,52.936,81.386v44.575h-37.509c-2.885,0-5.223,2.338-5.223,5.223v54.627
		c0,2.885,2.338,5.223,5.223,5.223h65.456C426.742,512,441.309,497.433,441.309,479.463L441.309,479.463L441.309,479.463z"/>
	<path style="fill:#444966;" d="M131.175,446.927v-44.575c0-36.317,21.756-67.535,52.936-81.386
		c-40.891,14.377-113.42,53.149-113.42,158.497l0,0l0,0c0,17.969,14.567,32.537,32.537,32.537h70.678v-65.073H131.175z"/>
</g>
<path style="fill:#EBEEF2;" d="M255.999,463.932l71.889-142.966c-11.037-4.903-23.243-7.649-36.099-7.649h-71.582
	c-12.855,0-25.062,2.746-36.099,7.649L255.999,463.932z"/>
<path style="fill:#ED5575;" d="M244.455,342.41l-10.765,77.155l22.309,44.367l22.309-44.367l-10.765-77.155
	c11.572-4.596,19.757-15.885,19.757-29.094h-62.603C224.698,326.525,232.884,337.815,244.455,342.41z"/>
<path style="fill:#EBEEF2;" d="M143.249,102.127v33.489c0,5.318,4.311,9.63,9.63,9.63H359.12c5.318,0,9.63-4.311,9.63-9.63v-33.489
	c0-5.318-4.311-9.63-9.63-9.63H152.879C147.561,92.497,143.249,96.808,143.249,102.127z"/>
<path style="fill:#D1D6DE;" d="M359.12,92.497h-23.751c5.319,0,9.63,4.312,9.63,9.63v33.489c0,5.318-4.312,9.63-9.63,9.63h23.751
	c5.318,0,9.63-4.312,9.63-9.63v-33.489C368.75,96.809,364.438,92.497,359.12,92.497z"/>
<path style="fill:#E59F6A;" d="M271.666,219.167h-15.667c-4.143,0-7.5-3.358-7.5-7.5v-41.64c0-4.142,3.357-7.5,7.5-7.5
	s7.5,3.358,7.5,7.5v34.14h8.167c4.143,0,7.5,3.358,7.5,7.5S275.809,219.167,271.666,219.167z"/>
<g>
</g>
<g>
</g>
<g>
</g>
<g>
</g>
<g>
</g>
<g>
</g>
<g>
</g>
<g>
</g>
<g>
</g>
<g>
</g>
<g>
</g>
<g>
</g>
<g>
</g>
<g>
</g>
<g>
</g>
</svg>
