<?xml version="1.0" encoding="iso-8859-1"?>
<!-- Generator: Adobe Illustrator 19.0.0, SVG Export Plug-In . SVG Version: 6.00 Build 0)  -->
<svg version="1.1" id="Capa_1" xmlns="http://www.w3.org/2000/svg" xmlns:xlink="http://www.w3.org/1999/xlink" x="0px" y="0px"
	 viewBox="0 0 512 512" style="enable-background:new 0 0 512 512;" xml:space="preserve">
<path style="fill:#F2DF33;" d="M368.549,88.963c-0.022-0.021-0.057-0.054-0.086-0.081c-3.078-3.01-6.448-6.112-10.015-9.395
	c-26.583-24.468-45.933-45.036-33.536-68.296c1.551-2.909,1.052-6.486-1.235-8.86c-2.286-2.374-5.841-3.005-8.807-1.567
	c-24.775,12.03-42.681,28.184-53.221,48.013c-11.109,20.899-10.503,39.409-9.151,48.597c0.757,5.08,2.045,9.696,3.831,13.725
	c0.628,1.413,0.768,2.288,0.792,2.718c-1.074,0.357-4.037,0.368-7.116-1.562c-2.495-1.554-5.407-4.632-5.112-10.472
	c0.148-2.933-1.404-5.688-3.987-7.083c-2.585-1.394-5.741-1.177-8.11,0.557c-12.764,9.342-21.026,27.872-20.559,46.11
	c0.464,18.122,9,33.538,24.036,43.407c1.24,0.814,2.691,1.247,4.176,1.247h126.745c2.19,0,4.275-0.944,5.72-2.59
	c11.125-12.672,17.252-28.631,17.252-44.939C390.165,119.92,382.488,102.331,368.549,88.963z"/>
<g>
	<path style="fill:#FCAB29;" d="M368.549,88.963c-0.022-0.021-0.057-0.054-0.086-0.081c-3.078-3.01-6.448-6.112-10.015-9.395
		c-26.583-24.468-45.933-45.036-33.536-68.296c1.551-2.909,1.052-6.486-1.235-8.86c-2.286-2.374-5.841-3.005-8.807-1.567
		c-3.103,1.507-6.098,3.079-8.986,4.715c0.45,1.865,0.309,3.916-0.483,5.713c-10.25,23.261,5.749,43.828,27.73,68.296
		c2.948,3.282,5.735,6.385,8.28,9.395c0.024,0.027,0.053,0.06,0.071,0.081c11.526,13.368,17.873,30.957,17.873,49.528
		c0,16.308-5.066,32.268-14.265,44.939c-1.196,1.646-2.919,2.59-4.729,2.59h26.83c2.19,0,4.275-0.944,5.72-2.59
		c11.125-12.672,17.252-28.631,17.252-44.939C390.165,119.92,382.488,102.331,368.549,88.963z"/>
	<path style="fill:#FCAB29;" d="M235.939,94.698c2.137,1.394,3.42,4.151,3.297,7.083c-0.245,5.841,2.164,8.919,4.227,10.472
		c2.546,1.93,4.996,1.919,5.884,1.562c-0.018-0.399-0.133-1.202-0.562-2.44c-2.128-1.743-4.14-4.694-3.892-9.596
		c0.148-2.933-1.404-5.688-3.987-7.083c-1.871-1.01-4.038-1.162-5.993-0.519C235.263,94.318,235.608,94.482,235.939,94.698z"/>
</g>
<path style="fill:#F2DF33;" d="M125.248,173.002c-3.617,11.298-7.896,15.576-19.193,19.193c-1.897,0.607-1.897,3.297,0,3.904
	c11.297,3.617,15.576,7.896,19.193,19.193c0.607,1.897,3.297,1.897,3.904,0c3.617-11.297,7.896-15.576,19.193-19.193
	c1.897-0.607,1.897-3.297,0-3.904c-11.297-3.617-15.576-7.896-19.193-19.193C128.545,171.105,125.855,171.105,125.248,173.002z"/>
<path style="fill:#5C9CEE;" d="M170.384,49.296c-3.617,11.297-7.896,15.576-19.193,19.193c-1.897,0.607-1.897,3.297,0,3.904
	c11.298,3.617,15.576,7.896,19.193,19.193c0.607,1.897,3.297,1.897,3.904,0c3.617-11.297,7.896-15.576,19.193-19.193
	c1.897-0.607,1.897-3.297,0-3.904c-11.298-3.617-15.576-7.896-19.193-19.193C173.682,47.399,170.992,47.399,170.384,49.296z"/>
<path style="fill:#EBEEF2;" d="M429.349,83.922c-3.617,11.297-7.896,15.576-19.193,19.193c-1.897,0.607-1.897,3.297,0,3.904
	c11.297,3.617,15.576,7.896,19.193,19.193c0.607,1.897,3.297,1.897,3.904,0c3.617-11.297,7.896-15.576,19.193-19.193
	c1.897-0.607,1.897-3.297,0-3.904c-11.297-3.617-15.576-7.896-19.193-19.193C432.646,82.025,429.957,82.025,429.349,83.922z"/>
<path style="fill:#F9C295;" d="M340.517,274.449v38.477v142.707H232.3c-13.628,0-24.671-11.044-24.671-24.671v-13.063h-65.851
	V295.465h65.851v-6.77c0-5.201,1.425-10.083,3.909-14.247c4.859-8.173,13.772-13.639,23.965-13.639h105.015v13.64H340.517z"/>
<path style="fill:#EBEEF2;" d="M175.35,288.272v136.814c0,5.503-4.464,9.967-9.977,9.967h-31.661V278.305h31.661
	C170.885,278.305,175.35,282.771,175.35,288.272z"/>
<path style="fill:#D1D6DE;" d="M165.373,411.204h-31.661v23.849h31.661c5.513,0,9.977-4.465,9.977-9.967v-23.849
	C175.35,406.739,170.885,411.204,165.373,411.204z"/>
<path style="fill:#656D88;" d="M133.712,257.238h-67.97c-2.223,0-4.334,0.971-5.78,2.659c-1.446,1.687-2.083,3.922-1.742,6.119
	l28.477,183.659c0.575,3.708,3.768,6.445,7.522,6.445h39.493c4.204,0,7.611-3.407,7.611-7.612V264.849
	C141.324,260.646,137.916,257.238,133.712,257.238z"/>
<path style="fill:#444966;" d="M135.537,427.704H87.083c-1.396,0-2.727-0.313-3.927-0.87l3.542,22.841
	c0.575,3.708,3.768,6.445,7.522,6.445h39.493c4.204,0,7.611-3.407,7.611-7.612v-22.822
	C139.731,426.947,137.724,427.704,135.537,427.704z"/>
<path style="fill:#ED5575;" d="M215.037,180.508v22.861h172.304v-22.861c0-1.554-1.928-2.813-4.308-2.813H219.345
	C216.966,177.695,215.037,178.954,215.037,180.508z"/>
<path style="fill:#CC3A60;" d="M383.033,177.695h-26.387c2.379,0,4.308,1.259,4.308,2.813v22.862h26.387v-22.862
	C387.341,178.954,385.412,177.695,383.033,177.695z"/>
<path style="fill:#ED5575;" d="M223.558,240.956l59.806,261.283c1.307,5.711,6.388,9.76,12.246,9.76h11.157
	c5.858,0,10.939-4.049,12.246-9.76l59.806-261.283H223.558z"/>
<path style="fill:#CC3A60;" d="M350.796,240.956L301.785,502.24c-0.94,5.007-4.257,8.736-8.297,9.578
	c0.692,0.118,1.401,0.181,2.122,0.181h11.157c5.858,0,10.939-4.049,12.246-9.76l59.806-261.283h-28.025V240.956z"/>
<path style="fill:#F4B07D;" d="M389.794,432.985c0,12.508-10.14,22.648-22.648,22.648h-47.924c-12.508,0-22.648-10.14-22.648-22.648
	s10.14-22.648,22.648-22.648h47.924C379.655,410.337,389.794,420.477,389.794,432.985z"/>
<path style="fill:#FCD0AE;" d="M389.794,387.69c0,12.508-10.14,22.648-22.648,22.648h-47.924c-12.508,0-22.648-10.14-22.648-22.648
	s10.14-22.648,22.648-22.648h47.924C379.655,365.043,389.794,375.183,389.794,387.69z"/>
<path style="fill:#EF9E67;" d="M389.794,342.395c0,12.508-10.14,22.648-22.648,22.648h-47.924c-12.508,0-22.648-10.14-22.648-22.648
	s10.14-22.648,22.648-22.648h47.924C379.655,319.747,389.794,329.887,389.794,342.395z"/>
<path style="fill:#FCD0AE;" d="M389.794,297.101c0,12.508-10.14,22.648-22.648,22.648h-47.924c-12.508,0-22.648-10.14-22.648-22.648
	s10.14-22.648,22.648-22.648h47.924C379.655,274.453,389.794,284.592,389.794,297.101z"/>
<path style="fill:#F0B27D;" d="M329.109,260.815h11.908c10.128,0,18.34,8.21,18.34,18.34v77.429c0,4.672-3.787,8.459-8.459,8.459
	h-10.963c-14.823,0-26.839-12.016-26.839-26.839v-30.006h-21.82c-4.636,0-8.395,3.758-8.395,8.395v4.514
	c0,21.842-17.706,39.548-39.548,39.548h-6.492c-11.468,0-29.213-12.985-29.213-39.548v-25.643v-6.77
	c0-5.201,1.425-10.083,3.909-14.247c4.859-8.173,13.772-13.639,23.965-13.639h93.606L329.109,260.815L329.109,260.815z"/>
<path style="fill:#EBEEF2;" d="M399.191,240.956H203.187c-2.851,0-5.001-2.588-4.481-5.39l4.4-23.672
	c0.996-5.354,5.667-9.238,11.114-9.238h173.937c5.447,0,10.118,3.884,11.114,9.238l4.4,23.672
	C404.193,238.368,402.042,240.956,399.191,240.956z"/>
<path style="fill:#D1D6DE;" d="M399.272,211.895c-0.996-5.354-5.667-9.238-11.114-9.238h-24.864c5.447,0,10.118,3.884,11.114,9.238
	l5.402,29.062h19.382c2.851,0,5.001-2.588,4.481-5.39L399.272,211.895z"/>
<g>
</g>
<g>
</g>
<g>
</g>
<g>
</g>
<g>
</g>
<g>
</g>
<g>
</g>
<g>
</g>
<g>
</g>
<g>
</g>
<g>
</g>
<g>
</g>
<g>
</g>
<g>
</g>
<g>
</g>
</svg>
