<?xml version="1.0" encoding="iso-8859-1"?>
<!-- Generator: Adobe Illustrator 19.0.0, SVG Export Plug-In . SVG Version: 6.00 Build 0)  -->
<svg version="1.1" id="Capa_1" xmlns="http://www.w3.org/2000/svg" xmlns:xlink="http://www.w3.org/1999/xlink" x="0px" y="0px"
	 viewBox="0 0 512 512" style="enable-background:new 0 0 512 512;" xml:space="preserve">
<path style="fill:#F2DF33;" d="M468.97,193.34c-1.87-2.664-5.242-3.818-8.355-2.855l-81.247,25.146l34.356-136.384
	c0.77-3.059-0.455-6.271-3.065-8.041c-2.611-1.769-6.05-1.715-8.604,0.133l-104.771,75.818L271.888,72.52
	c-1.003-2.949-3.726-4.972-6.839-5.079c-3.125-0.114-5.971,1.72-7.176,4.592l-31.921,76.04l-85.56-54.634
	c-2.795-1.785-6.429-1.521-8.938,0.645c-2.51,2.166-3.299,5.723-1.942,8.747l40.842,91.012l-59.024-17.594
	c-3.232-0.963-6.708,0.35-8.498,3.205c-1.79,2.857-1.454,6.558,0.822,9.045l31.834,34.791l-47.261-8.105
	c-2.984-0.516-5.981,0.818-7.602,3.376c-1.621,2.556-1.546,5.836,0.189,8.315l80.269,114.718c1.403,2.006,3.697,3.2,6.145,3.2
	h190.176c2.352,0,4.568-1.104,5.986-2.981l105.427-139.645C470.779,199.57,470.841,196.004,468.97,193.34z"/>
<g>
	<path style="fill:#D9B92C;" d="M260.505,72.52l26.534,82.491l10.212-7.854L271.887,72.52c-1.003-2.949-3.726-4.972-6.839-5.079
		c-2.31-0.084-4.464,0.901-5.919,2.579C259.72,70.741,260.202,71.576,260.505,72.52z"/>
	<path style="fill:#D9B92C;" d="M393.952,79.246L361.628,215.63l19.342-6.363l32.753-130.021c0.77-3.059-0.455-6.271-3.065-8.041
		c-2.611-1.769-6.05-1.715-8.604,0.133l-7.903,5.719C394.184,77.781,394.124,78.518,393.952,79.246z"/>
	<path style="fill:#D9B92C;" d="M468.97,193.34c-1.87-2.664-5.242-3.818-8.355-2.855l-13.953,4.318
		c0.935,2.414,0.651,5.218-0.875,7.365l-99.191,139.645c-1.334,1.878-3.419,2.981-5.632,2.981h16.44
		c2.352,0,4.568-1.104,5.986-2.981l105.427-139.645C470.779,199.57,470.841,196.004,468.97,193.34z"/>
</g>
<path style="fill:#F9C295;" d="M204.005,262.779v28.801v106.821h-81.004c-10.201,0-18.468-8.267-18.468-18.468v-9.778H55.242
	v-91.644h49.291v-5.067c0-3.894,1.066-7.547,2.926-10.664c3.637-6.117,10.308-10.209,17.938-10.209h78.607v10.208H204.005z"/>
<path style="fill:#EBEEF2;" d="M80.372,273.127v102.409c0,4.118-3.342,7.461-7.468,7.461H49.205v-117.33h23.699
	C77.03,265.666,80.372,269.008,80.372,273.127z"/>
<path style="fill:#D1D6DE;" d="M72.904,365.144H49.205v17.852h23.699c4.126,0,7.468-3.342,7.468-7.461v-17.852
	C80.372,361.802,77.03,365.144,72.904,365.144z"/>
<path style="fill:#656D88;" d="M49.205,248.094H7.5c-2.19,0-4.27,0.957-5.695,2.62s-2.052,3.865-1.716,6.029l21.316,137.475
	c0.567,3.654,3.713,6.351,7.412,6.351h20.388c4.142,0,7.5-3.357,7.5-7.5V255.594C56.705,251.451,53.347,248.094,49.205,248.094z"/>
<path style="fill:#444966;" d="M48.447,378.626H25.999c-3.744,0-6.968-2.512-7.949-6.044l3.355,21.636
	c0.567,3.654,3.713,6.351,7.412,6.351h20.388c4.142,0,7.5-3.357,7.5-7.5v-22.7C56.705,374.929,53.008,378.626,48.447,378.626z"/>
<path style="fill:#F4B07D;" d="M229.418,381.448c0,9.363-7.59,16.952-16.952,16.952h-24.4c-9.363,0-16.952-7.59-16.952-16.952
	s7.59-16.952,16.952-16.952h24.4C221.828,364.496,229.418,372.086,229.418,381.448z"/>
<path style="fill:#FCD0AE;" d="M240.89,347.544c0,9.363-7.59,16.952-16.952,16.952h-35.873c-9.363,0-16.952-7.59-16.952-16.952
	s7.59-16.952,16.952-16.952h35.873C233.301,330.591,240.89,338.181,240.89,347.544z"/>
<path style="fill:#EF9E67;" d="M240.89,313.639c0,9.363-7.59,16.952-16.952,16.952h-35.873c-9.363,0-16.952-7.59-16.952-16.952
	s7.59-16.952,16.952-16.952h35.873C233.301,296.687,240.89,304.276,240.89,313.639z"/>
<path style="fill:#FCD0AE;" d="M240.89,279.734c0,9.363-7.59,16.952-16.952,16.952h-35.873c-9.363,0-16.952-7.59-16.952-16.952
	s7.59-16.952,16.952-16.952h35.873C233.301,262.782,240.89,270.372,240.89,279.734z"/>
<path style="fill:#F0B27D;" d="M195.465,252.574h8.914c7.581,0,13.727,6.146,13.727,13.727v57.958c0,3.497-2.835,6.332-6.332,6.332
	h-8.206c-11.095,0-20.09-8.995-20.09-20.09v-22.46h-16.332c-3.471,0-6.284,2.813-6.284,6.284v3.379
	c0,16.349-13.254,29.603-29.603,29.603h-4.86c-8.584,0-21.867-9.72-21.867-29.603v-19.195v-5.067c0-3.894,1.066-7.547,2.926-10.664
	c3.637-6.117,10.308-10.209,17.938-10.209h70.067v0.005H195.465z"/>
<path style="fill:#F29F5C;" d="M307.995,262.779v28.801v106.821H389c10.201,0,18.468-8.267,18.468-18.468v-9.778h49.291v-91.644
	h-49.291v-5.067c0-3.894-1.066-7.547-2.926-10.664c-3.637-6.117-10.308-10.209-17.938-10.209h-78.607v10.208H307.995z"/>
<path style="fill:#EBEEF2;" d="M431.628,273.127v102.409c0,4.118,3.342,7.461,7.468,7.461h23.699v-117.33h-23.699
	C434.971,265.666,431.628,269.008,431.628,273.127z"/>
<path style="fill:#D1D6DE;" d="M439.097,365.144h23.699v17.852h-23.699c-4.126,0-7.468-3.342-7.468-7.461v-17.852
	C431.628,361.802,434.971,365.144,439.097,365.144z"/>
<path style="fill:#656D88;" d="M510.196,250.714c-1.425-1.663-3.505-2.62-5.695-2.62h-41.705c-4.142,0-7.5,3.357-7.5,7.5v137.475
	c0,4.143,3.358,7.5,7.5,7.5h20.388c3.698,0,6.845-2.696,7.412-6.351l21.316-137.475C512.247,254.579,511.62,252.377,510.196,250.714
	z"/>
<path style="fill:#444966;" d="M463.553,378.626h22.448c3.744,0,6.968-2.512,7.949-6.044l-3.355,21.636
	c-0.567,3.654-3.713,6.351-7.412,6.351h-20.388c-4.142,0-7.5-3.357-7.5-7.5v-22.7C455.296,374.929,458.993,378.626,463.553,378.626z
	"/>
<path style="fill:#E08546;" d="M282.583,381.448c0,9.363,7.59,16.952,16.952,16.952h24.4c9.363,0,16.952-7.59,16.952-16.952
	s-7.59-16.952-16.952-16.952h-24.4C290.172,364.496,282.583,372.086,282.583,381.448z"/>
<path style="fill:#F9B78A;" d="M271.11,347.544c0,9.363,7.59,16.952,16.952,16.952h35.873c9.363,0,16.952-7.59,16.952-16.952
	s-7.59-16.952-16.952-16.952h-35.873C278.7,330.591,271.11,338.181,271.11,347.544z"/>
<path style="fill:#ED9051;" d="M271.11,313.639c0,9.363,7.59,16.952,16.952,16.952h35.873c9.363,0,16.952-7.59,16.952-16.952
	s-7.59-16.952-16.952-16.952h-35.873C278.7,296.687,271.11,304.276,271.11,313.639z"/>
<path style="fill:#F9B78A;" d="M271.11,279.734c0,9.363,7.59,16.952,16.952,16.952h35.873c9.363,0,16.952-7.59,16.952-16.952
	s-7.59-16.952-16.952-16.952h-35.873C278.7,262.782,271.11,270.372,271.11,279.734z"/>
<path style="fill:#EB944E;" d="M316.535,252.574h-8.914c-7.581,0-13.727,6.146-13.727,13.727v57.958
	c0,3.497,2.835,6.332,6.332,6.332h8.206c11.095,0,20.09-8.995,20.09-20.09v-22.46h16.332c3.47,0,6.284,2.813,6.284,6.284v3.379
	c0,16.349,13.254,29.603,29.603,29.603h4.86c8.584,0,21.867-9.72,21.867-29.603v-19.195v-5.067c0-3.894-1.066-7.547-2.926-10.664
	c-3.637-6.117-10.308-10.209-17.938-10.209h-70.067v0.005H316.535z"/>
<path style="fill:#656D88;" d="M422.687,444.562c-0.21,0-0.421-0.009-0.634-0.026c-110.185-9.221-221.922-9.221-332.106,0
	c-4.136,0.353-7.754-2.721-8.1-6.849c-0.345-4.127,2.721-7.754,6.849-8.099c111.015-9.291,223.594-9.291,334.608,0
	c4.127,0.345,7.194,3.972,6.849,8.099C429.825,441.602,426.546,444.562,422.687,444.562z"/>
<g>
</g>
<g>
</g>
<g>
</g>
<g>
</g>
<g>
</g>
<g>
</g>
<g>
</g>
<g>
</g>
<g>
</g>
<g>
</g>
<g>
</g>
<g>
</g>
<g>
</g>
<g>
</g>
<g>
</g>
</svg>
