<?xml version="1.0" encoding="iso-8859-1"?>
<!-- Generator: Adobe Illustrator 19.0.0, SVG Export Plug-In . SVG Version: 6.00 Build 0)  -->
<svg version="1.1" id="Capa_1" xmlns="http://www.w3.org/2000/svg" xmlns:xlink="http://www.w3.org/1999/xlink" x="0px" y="0px"
	 viewBox="0 0 512 512" style="enable-background:new 0 0 512 512;" xml:space="preserve">
<path style="fill:#ED5575;" d="M249.382,510.479L362.71,397.15c4.134-4.134,4.134-10.837,0-14.971l-69.216-69.216
	c-4.134-4.134-10.837-4.134-14.971,0L165.195,426.292c-2.028,2.028-2.028,5.317,0,7.346l76.841,76.841
	C244.064,512.507,247.353,512.507,249.382,510.479z"/>
<path style="fill:#CC3A60;" d="M347.542,381.981L230.54,498.983l11.496,11.496c2.028,2.028,5.317,2.028,7.346,0L362.71,397.15
	c4.134-4.134,4.134-10.837,0-14.971l-15.169-15.169C351.676,371.144,351.676,377.847,347.542,381.981z"/>
<path style="fill:#9FD479;" d="M510.479,262.618L397.15,149.29c-4.134-4.134-10.837-4.134-14.971,0l-69.216,69.216
	c-4.134,4.134-4.134,10.837,0,14.971l113.329,113.329c2.028,2.028,5.317,2.028,7.346,0l76.841-76.841
	C512.507,267.936,512.507,264.647,510.479,262.618z"/>
<path style="fill:#7DB24F;" d="M381.981,164.458L498.983,281.46l11.496-11.496c2.028-2.028,2.028-5.317,0-7.346L397.15,149.29
	c-4.134-4.134-10.837-4.134-14.971,0l-15.169,15.169C371.144,160.324,377.847,160.324,381.981,164.458z"/>
<path style="fill:#F9C295;" d="M262.622,487.921c4.886-4.551,4.989-12.204,0.308-16.885l9.736,9.736
	c4.497,4.497,11.824,4.83,16.479,0.496c4.886-4.551,4.989-12.204,0.308-16.885l4.363,4.363c4.497,4.497,11.824,4.83,16.479,0.496
	c4.886-4.551,4.989-12.204,0.308-16.885l-4.562-4.562c4.681,4.681,12.334,4.578,16.885-0.308c4.335-4.654,4.001-11.981-0.496-16.479
	l-27.429-27.429l-1.4-1.4l-22.083-22.083c-2.825-2.825-2.825-7.404,0-10.229l0,0c2.825-2.825,7.404-2.825,10.229,0l15.422,15.422
	c4.497,4.497,11.824,4.83,16.479,0.496c4.886-4.551,4.989-12.204,0.308-16.885l-22.152-22.152l-8.666-8.666
	c-6.348-6.348-14.981-9.876-23.958-9.792l-37.457,0.352l-11.96-11.96l-56.752,56.752l11.66,11.66
	c-4.353,7.67-3.265,17.59,3.274,24.129l59.304,59.304l1.4,1.4l17.495,17.495C250.641,491.922,257.968,492.255,262.622,487.921z"/>
<path style="fill:#E59F6A;" d="M255.561,478.007l-17.495-17.495l-1.4-1.4l-59.304-59.304c-6.539-6.539-7.627-16.459-3.274-24.129
	l-11.66-11.66l-9.418,9.418l11.66,11.66c-4.353,7.67-3.265,17.59,3.274,24.129l59.304,59.304l1.4,1.4l17.495,17.495
	c4.497,4.497,11.824,4.831,16.479,0.496c1.944-1.811,3.118-4.115,3.548-6.525C262.433,482.037,258.424,480.87,255.561,478.007z"/>
<path style="fill:#EBEEF2;" d="M143.979,374.322l-12.885-12.885l66.67-66.67l12.885,12.885c3.636,3.636,3.636,9.532,0,13.168
	l-53.502,53.502C153.51,377.959,147.615,377.959,143.979,374.322z"/>
<path style="fill:#D1D6DE;" d="M159.361,358.94l-12.885-12.885l-15.382,15.382l12.885,12.885c3.636,3.636,9.532,3.636,13.168,0
	l15.382-15.382C168.892,362.577,162.997,362.577,159.361,358.94z"/>
<path style="fill:#F2DF33;" d="M1.521,249.382L114.85,362.71c4.134,4.134,10.837,4.134,14.971,0l69.216-69.216
	c4.134-4.134,4.134-10.837,0-14.971L85.708,165.195c-2.028-2.028-5.317-2.028-7.346,0L1.521,242.036
	C-0.507,244.064-0.507,247.353,1.521,249.382z"/>
<path style="fill:#D9B92C;" d="M130.019,347.542L13.017,230.54L1.521,242.036c-2.028,2.028-2.028,5.317,0,7.346L114.85,362.71
	c4.134,4.134,10.837,4.134,14.971,0l15.169-15.169C140.856,351.676,134.153,351.676,130.019,347.542z"/>
<path style="fill:#F9C295;" d="M487.921,249.378c-4.551-4.886-12.204-4.989-16.885-0.308l9.736-9.736
	c4.497-4.497,4.83-11.824,0.496-16.479c-4.551-4.886-12.204-4.989-16.885-0.308l4.363-4.363c4.497-4.497,4.83-11.824,0.496-16.479
	c-4.551-4.886-12.204-4.989-16.885-0.308l-4.562,4.562c4.681-4.681,4.578-12.334-0.308-16.885
	c-4.654-4.335-11.981-4.001-16.479,0.496l-27.429,27.429l-1.4,1.4l-22.083,22.083c-2.825,2.825-7.404,2.825-10.229,0l0,0
	c-2.825-2.825-2.825-7.404,0-10.229l15.422-15.422c4.497-4.497,4.83-11.824,0.496-16.479c-4.551-4.886-12.204-4.989-16.885-0.308
	l-22.152,22.152l-8.666,8.666c-6.348,6.348-9.876,14.981-9.792,23.958l0.352,37.457l-11.96,11.96l56.752,56.752l11.66-11.66
	c7.67,4.353,17.59,3.265,24.129-3.274l59.304-59.304l1.4-1.4l17.495-17.495C491.922,261.359,492.255,254.032,487.921,249.378z"/>
<path style="fill:#E59F6A;" d="M478.007,256.439l-17.495,17.495l-1.4,1.4l-59.304,59.304c-6.539,6.539-16.459,7.627-24.129,3.274
	l-11.66,11.66l9.418,9.418l11.66-11.66c7.67,4.353,17.59,3.265,24.129-3.274l59.304-59.304l1.4-1.4l17.495-17.495
	c4.497-4.497,4.831-11.824,0.496-16.479c-1.811-1.944-4.115-3.118-6.525-3.548C482.037,249.567,480.87,253.576,478.007,256.439z"/>
<path style="fill:#EBEEF2;" d="M374.322,368.021l-12.885,12.885l-66.67-66.67l12.885-12.885c3.636-3.636,9.532-3.636,13.168,0
	l53.502,53.502C377.959,358.49,377.959,364.385,374.322,368.021z"/>
<path style="fill:#D1D6DE;" d="M358.94,352.639l-12.885,12.885l15.382,15.382l12.885-12.885c3.636-3.636,3.636-9.532,0-13.168
	l-15.382-15.382C362.577,343.108,362.577,349.003,358.94,352.639z"/>
<path style="fill:#F9C295;" d="M24.079,262.622c4.551,4.886,12.204,4.989,16.885,0.308l-9.736,9.736
	c-4.497,4.497-4.83,11.824-0.496,16.479c4.551,4.886,12.204,4.989,16.885,0.308l-4.363,4.363c-4.497,4.497-4.83,11.824-0.496,16.479
	c4.551,4.886,12.204,4.989,16.885,0.308l4.562-4.562c-4.681,4.681-4.578,12.334,0.308,16.885c4.654,4.335,11.981,4.001,16.479-0.496
	l27.429-27.429l1.4-1.4l22.083-22.083c2.825-2.825,7.404-2.825,10.229,0l0,0c2.825,2.825,2.825,7.404,0,10.229l-15.422,15.422
	c-4.497,4.497-4.83,11.824-0.496,16.479c4.551,4.886,12.204,4.989,16.885,0.308l22.152-22.152l8.666-8.666
	c6.348-6.348,9.876-14.981,9.792-23.958l-0.352-37.457l11.96-11.96l-56.752-56.752l-11.66,11.66
	c-7.67-4.353-17.59-3.265-24.129,3.274L43.47,227.248l-1.4,1.4l-17.495,17.495C20.078,250.641,19.745,257.968,24.079,262.622z"/>
<path style="fill:#E59F6A;" d="M33.993,255.561l17.495-17.495l1.4-1.4l59.304-59.304c6.539-6.539,16.459-7.627,24.129-3.274
	l11.66-11.66l-9.418-9.418l-11.66,11.66c-7.67-4.353-17.59-3.265-24.129,3.274L43.47,227.248l-1.4,1.4l-17.495,17.495
	c-4.497,4.497-4.831,11.824-0.496,16.479c1.811,1.944,4.115,3.118,6.525,3.548C29.963,262.433,31.13,258.424,33.993,255.561z"/>
<path style="fill:#EBEEF2;" d="M137.678,143.979l12.885-12.885l66.67,66.67l-12.885,12.885c-3.636,3.636-9.532,3.636-13.168,0
	l-53.502-53.502C134.041,153.51,134.041,147.615,137.678,143.979z"/>
<path style="fill:#D1D6DE;" d="M153.06,159.361l12.885-12.885l-15.382-15.382l-12.885,12.885c-3.636,3.636-3.636,9.532,0,13.168
	l15.382,15.382C149.423,168.892,149.423,162.997,153.06,159.361z"/>
<path style="fill:#5C9CEE;" d="M262.618,1.521L149.29,114.85c-4.134,4.134-4.134,10.837,0,14.971l69.216,69.216
	c4.134,4.134,10.837,4.134,14.971,0L346.805,85.708c2.028-2.028,2.028-5.317,0-7.346L269.964,1.521
	C267.936-0.507,264.647-0.507,262.618,1.521z"/>
<path style="fill:#3580D3;" d="M164.458,130.019L281.46,13.017L269.964,1.521c-2.028-2.028-5.317-2.028-7.346,0L149.29,114.85
	c-4.134,4.134-4.134,10.837,0,14.971l15.169,15.169C160.324,140.856,160.324,134.153,164.458,130.019z"/>
<path style="fill:#F9C295;" d="M249.378,24.079c-4.886,4.551-4.989,12.204-0.308,16.885l-9.736-9.736
	c-4.497-4.497-11.824-4.83-16.479-0.496c-4.886,4.551-4.989,12.204-0.308,16.885l-4.363-4.363
	c-4.497-4.497-11.824-4.83-16.479-0.496c-4.886,4.551-4.989,12.204-0.308,16.885l4.562,4.562
	c-4.681-4.681-12.334-4.578-16.885,0.308c-4.335,4.654-4.001,11.981,0.496,16.479l27.429,27.429l1.4,1.4l22.083,22.083
	c2.825,2.825,2.825,7.404,0,10.229l0,0c-2.825,2.825-7.404,2.825-10.229,0l-15.422-15.422c-4.497-4.497-11.824-4.83-16.479-0.496
	c-4.886,4.551-4.989,12.204-0.308,16.885l22.152,22.152l8.666,8.666c6.348,6.348,14.981,9.876,23.958,9.792l37.457-0.352
	l11.96,11.96l56.752-56.752l-11.66-11.66c4.353-7.67,3.265-17.59-3.274-24.129L284.752,43.47l-1.4-1.4l-17.495-17.495
	C261.359,20.078,254.032,19.745,249.378,24.079z"/>
<path style="fill:#E59F6A;" d="M256.439,33.993l17.495,17.495l1.4,1.4l59.304,59.304c6.539,6.539,7.627,16.459,3.274,24.129
	l11.66,11.66l9.418-9.418l-11.66-11.66c4.353-7.67,3.265-17.59-3.274-24.129L284.752,43.47l-1.4-1.4l-17.495-17.495
	c-4.497-4.497-11.824-4.831-16.479-0.496c-1.944,1.811-3.118,4.115-3.548,6.525C249.567,29.963,253.576,31.13,256.439,33.993z"/>
<path style="fill:#EBEEF2;" d="M368.021,137.678l12.885,12.885l-66.67,66.67l-12.885-12.885c-3.636-3.636-3.636-9.532,0-13.168
	l53.502-53.502C358.49,134.041,364.385,134.041,368.021,137.678z"/>
<path style="fill:#D1D6DE;" d="M352.639,153.06l12.885,12.885l15.382-15.382l-12.885-12.885c-3.636-3.636-9.532-3.636-13.168,0
	l-15.382,15.382C343.108,149.423,349.003,149.423,352.639,153.06z"/>
<g>
</g>
<g>
</g>
<g>
</g>
<g>
</g>
<g>
</g>
<g>
</g>
<g>
</g>
<g>
</g>
<g>
</g>
<g>
</g>
<g>
</g>
<g>
</g>
<g>
</g>
<g>
</g>
<g>
</g>
</svg>
