<?xml version="1.0" encoding="iso-8859-1"?>
<!-- Generator: Adobe Illustrator 19.0.0, SVG Export Plug-In . SVG Version: 6.00 Build 0)  -->
<svg version="1.1" id="Capa_1" xmlns="http://www.w3.org/2000/svg" xmlns:xlink="http://www.w3.org/1999/xlink" x="0px" y="0px"
	 viewBox="0 0 512.001 512.001" style="enable-background:new 0 0 512.001 512.001;" xml:space="preserve">
<path style="fill:#F9C295;" d="M247.898,115.131c-76.659,0-139.026,62.367-139.026,139.026c0,2.425,0.07,4.945,0.209,7.513
	L69.735,367.602c-0.855,2.302-0.529,4.877,0.873,6.893s3.702,3.218,6.158,3.218h36.268v33.251c0,20.516,16.691,37.207,37.207,37.207
	h52.695v56.33c0,4.142,3.358,7.5,7.5,7.5h124.207c4.143,0,7.5-3.358,7.5-7.5V356.354c28.502-26.301,44.781-63.35,44.781-102.197
	C386.924,177.498,324.558,115.131,247.898,115.131z"/>
<g>
	<path style="fill:#E59F6A;" d="M247.898,115.131c-4.926,0-9.791,0.262-14.586,0.764c69.829,7.314,124.439,66.528,124.439,138.262
		c0,38.847-16.279,75.896-44.781,102.197v148.147c0,4.142-3.357,7.5-7.5,7.5h29.173c4.143,0,7.5-3.358,7.5-7.5V356.354
		c28.502-26.301,44.781-63.35,44.781-102.197C386.924,177.498,324.558,115.131,247.898,115.131z"/>
	<path style="fill:#E59F6A;" d="M272.174,366.793h-10.073c-4.143,0-7.5-3.358-7.5-7.5s3.357-7.5,7.5-7.5h10.073
		c5.761,0,10.448-4.687,10.448-10.448v-26.08c0-5.761-4.688-10.448-10.448-10.448h-10.073c-4.143,0-7.5-3.358-7.5-7.5
		s3.357-7.5,7.5-7.5h10.073c14.032,0,25.448,11.416,25.448,25.448v26.08C297.622,355.377,286.206,366.793,272.174,366.793z"/>
</g>
<path style="fill:#EBEEF2;" d="M352.251,460.779H192.978c-2.458,0-4.761,1.205-6.162,3.225l-25.129,36.222
	c-1.591,2.293-1.777,5.28-0.483,7.752s3.854,4.022,6.645,4.022h184.402c4.143,0,7.5-3.358,7.5-7.5v-36.222
	C359.751,464.137,356.394,460.779,352.251,460.779z"/>
<path style="fill:#D1D6DE;" d="M352.251,460.779h-28.5c4.143,0,7.5,3.358,7.5,7.5v36.222c0,4.142-3.357,7.5-7.5,7.5h28.5
	c4.143,0,7.5-3.358,7.5-7.5v-36.222C359.751,464.137,356.394,460.779,352.251,460.779z"/>
<path style="fill:#E59F6A;" d="M371.891,200.906c-1.157-2.811-3.896-4.645-6.936-4.645h-36.24l13.685-47.276
	c0.656-2.265,0.208-4.707-1.209-6.591c-1.416-1.885-3.637-2.994-5.995-2.994H289.8c-3.339,0-6.275,2.208-7.204,5.415l-22.698,78.415
	c-0.656,2.265-0.208,4.707,1.209,6.592c1.416,1.885,3.637,2.994,5.995,2.994h26.53l-14.898,47.099
	c-1.041,3.291,0.298,6.866,3.243,8.664c1.21,0.738,2.562,1.098,3.905,1.098c1.928,0,3.839-0.742,5.283-2.175l79.072-78.415
	C372.395,206.947,373.047,203.716,371.891,200.906z"/>
<path style="fill:#F2DF33;" d="M366.891,192.906c-1.157-2.811-3.896-4.645-6.936-4.645h-36.24l13.685-47.276
	c0.656-2.265,0.208-4.707-1.209-6.591c-1.416-1.885-3.637-2.994-5.995-2.994H284.8c-3.339,0-6.275,2.208-7.204,5.415l-22.698,78.415
	c-0.656,2.265-0.208,4.707,1.209,6.592c1.416,1.885,3.637,2.994,5.995,2.994h26.53l-14.898,47.099
	c-1.041,3.291,0.298,6.866,3.243,8.664c1.21,0.738,2.562,1.098,3.905,1.098c1.928,0,3.839-0.742,5.283-2.175l79.072-78.415
	C367.395,198.947,368.047,195.716,366.891,192.906z"/>
<g>
	<path style="fill:#D9B92C;" d="M366.891,192.906c-1.157-2.811-3.896-4.645-6.936-4.645h-36.24l13.685-47.276
		c0.656-2.265,0.208-4.707-1.209-6.591c-1.416-1.885-3.637-2.994-5.995-2.994H284.8c-3.339,0-6.275,2.208-7.204,5.415l-0.278,0.962
		c0.017,0,0.034-0.005,0.051-0.005h35.057c1.821,0,3.536,1.109,4.63,2.994c1.094,1.885,1.44,4.326,0.934,6.591l-10.568,47.276
		h27.986c2.347,0,4.462,1.834,5.356,4.645c0.893,2.81,0.389,6.041-1.277,8.181l-57.753,74.165c1.631-0.186,3.202-0.9,4.434-2.122
		l79.072-78.415C367.395,198.947,368.047,195.716,366.891,192.906z"/>
	<path style="fill:#D9B92C;" d="M319.769,186.271c1.514,0,3.036-0.053,4.562-0.137l13.069-45.149
		c0.656-2.265,0.208-4.707-1.209-6.591c-1.416-1.885-3.637-2.994-5.995-2.994H284.8c-3.339,0-6.275,2.208-7.204,5.415l-8.927,30.841
		C282.205,179.469,300.386,186.271,319.769,186.271z"/>
</g>
<path style="fill:#EC86C8;" d="M442.581,110.57c-1.355-15.9-11.303-29.662-26.419-37.071c0.076-1.685,0.042-3.374-0.102-5.058
	c-1.988-23.285-24.394-40.815-49.915-39.06c-3.23,0.221-6.389,0.738-9.453,1.544c-7.079-19.324-27.806-32.374-50.962-30.796
	c-19.563,1.338-36.218,13.029-42.921,29.351c-4.942-0.85-9.991-1.105-15.083-0.756c-16.171,1.106-31.171,8.4-41.152,20.011
	c-7.821,9.099-12.077,20.196-12.224,31.662c-13.192,9.498-20.444,24.402-19.125,39.858c2.163,25.342,26.544,44.41,54.399,42.506
	c10.763-0.736,20.937-4.599,29.054-10.873c13.677,18.359,36.412,29.382,61.09,29.382c1.886,0,3.782-0.064,5.688-0.195
	c19.614-1.342,37.7-9.674,50.439-23.08c6.379,1.939,13.165,2.716,19.899,2.255c14.229-0.974,27.425-7.405,36.202-17.645
	C439.809,133.495,443.567,122.117,442.581,110.57z"/>
<g>
	<path style="fill:#D770B7;" d="M442.581,110.57c-1.355-15.9-11.303-29.662-26.419-37.071c0.076-1.685,0.042-3.374-0.102-5.058
		c-1.988-23.285-24.394-40.815-49.915-39.06c-3.23,0.221-6.389,0.738-9.453,1.544c-7.079-19.324-27.806-32.374-50.962-30.796
		c-6.071,0.415-11.861,1.829-17.162,4.068c21.788-0.174,40.887,12.523,47.624,30.913c3.064-0.806,6.223-1.323,9.453-1.544
		c25.521-1.756,47.927,15.775,49.915,39.06c0.144,1.684,0.178,3.373,0.102,5.058c15.116,7.41,25.063,21.171,26.419,37.071
		c0.986,11.547-2.772,22.924-10.584,32.036c-5.053,5.895-11.576,10.519-18.912,13.575c1.07-0.011,2.141-0.042,3.21-0.115
		c14.229-0.974,27.425-7.405,36.202-17.645C439.809,133.495,443.567,122.117,442.581,110.57z"/>
	<path style="fill:#D770B7;" d="M236.035,83.359c2.173-3.526,1.076-8.146-2.449-10.32c-9.557-5.89-20.704-8.584-32.242-7.797
		c-1.515,0.104-3.016,0.282-4.504,0.508c-1.58,4.723-2.426,9.65-2.49,14.648c-0.892,0.642-1.751,1.313-2.587,2.003
		c3.355-1.188,6.925-1.942,10.605-2.194c8.272-0.568,16.567,1.422,23.347,5.602C229.241,87.98,233.863,86.886,236.035,83.359z"/>
</g>
<g>
</g>
<g>
</g>
<g>
</g>
<g>
</g>
<g>
</g>
<g>
</g>
<g>
</g>
<g>
</g>
<g>
</g>
<g>
</g>
<g>
</g>
<g>
</g>
<g>
</g>
<g>
</g>
<g>
</g>
</svg>
