<?xml version="1.0" encoding="iso-8859-1"?>
<!-- Generator: Adobe Illustrator 19.0.0, SVG Export Plug-In . SVG Version: 6.00 Build 0)  -->
<svg version="1.1" id="Capa_1" xmlns="http://www.w3.org/2000/svg" xmlns:xlink="http://www.w3.org/1999/xlink" x="0px" y="0px"
	 viewBox="0 0 512 512" style="enable-background:new 0 0 512 512;" xml:space="preserve">
<path style="fill:#EBEEF2;" d="M350.616,0H66.961C46.336,0,29.556,16.78,29.556,37.405v385.766c0,20.625,16.78,37.405,37.405,37.405
	h283.655c20.625,0,37.405-16.78,37.405-37.405V37.405C388.022,16.78,371.241,0,350.616,0z"/>
<path style="fill:#D1D6DE;" d="M350.616,0h-30.344c20.625,0,37.405,16.78,37.405,37.405v385.766
	c0,20.625-16.78,37.405-37.405,37.405h30.344c20.625,0,37.405-16.78,37.405-37.405V37.405C388.022,16.78,371.241,0,350.616,0z"/>
<g>
	<path style="fill:#444966;" d="M128.617,166.576c-2.611,0-5.148-1.365-6.53-3.8c-2.044-3.603-0.78-8.18,2.822-10.225l34.979-19.849
		c3.601-2.044,8.179-0.781,10.225,2.822c2.044,3.603,0.78,8.18-2.822,10.225l-34.979,19.849
		C131.144,166.262,129.871,166.576,128.617,166.576z"/>
	<path style="fill:#444966;" d="M226.271,166.576c-1.255,0-2.525-0.314-3.694-0.978l-34.979-19.849
		c-3.603-2.045-4.866-6.622-2.822-10.225c2.046-3.603,6.622-4.865,10.225-2.822l34.979,19.849c3.603,2.045,4.866,6.622,2.822,10.225
		C231.419,165.21,228.882,166.576,226.271,166.576z"/>
	<path style="fill:#444966;" d="M249.402,161.497c-1.512,0-3.036-0.455-4.358-1.401c-3.369-2.411-4.146-7.096-1.735-10.464
		l44.138-61.68c2.413-3.37,7.098-4.144,10.464-1.735c3.369,2.411,4.146,7.096,1.735,10.464l-44.138,61.68
		C254.043,160.407,251.739,161.497,249.402,161.497z"/>
</g>
<path style="fill:#F2DF33;" d="M177.444,107.916c-12.924,0-23.438,10.514-23.438,23.438s10.515,23.438,23.438,23.438
	s23.438-10.514,23.438-23.438S190.368,107.916,177.444,107.916z"/>
<path style="fill:#9FD479;" d="M302.822,55.929c-12.924,0-23.438,10.514-23.438,23.438s10.515,23.438,23.438,23.438
	S326.26,92.29,326.26,79.366S315.746,55.929,302.822,55.929z"/>
<path style="fill:#5C9CEE;" d="M114.755,143.511c-12.924,0-23.438,10.514-23.438,23.438s10.514,23.438,23.438,23.438
	s23.438-10.514,23.438-23.438S127.679,143.511,114.755,143.511z"/>
<path style="fill:#ED5575;" d="M240.133,143.511c-12.924,0-23.438,10.514-23.438,23.438s10.514,23.438,23.438,23.438
	s23.438-10.514,23.438-23.438S253.057,143.511,240.133,143.511z"/>
<g>
	<path style="fill:#444966;" d="M326.509,300.43H91.069c-4.143,0-7.5-3.357-7.5-7.5s3.357-7.5,7.5-7.5h235.44
		c4.143,0,7.5,3.357,7.5,7.5S330.652,300.43,326.509,300.43z"/>
	<path style="fill:#444966;" d="M326.509,385.657H91.069c-4.143,0-7.5-3.357-7.5-7.5s3.357-7.5,7.5-7.5h235.44
		c4.143,0,7.5,3.357,7.5,7.5S330.652,385.657,326.509,385.657z"/>
</g>
<path style="fill:#ED5575;" d="M278.598,191.236v25.788c0,4.021,3.259,7.28,7.28,7.28h189.286c4.021,0,7.28-3.259,7.28-7.28v-25.788
	c0-4.021-3.259-7.28-7.28-7.28H285.878C281.858,183.956,278.598,187.215,278.598,191.236z"/>
<path style="fill:#CC3A60;" d="M457.034,183.956v40.348h18.13c4.021,0,7.28-3.259,7.28-7.28v-25.788c0-4.021-3.259-7.28-7.28-7.28
	H457.034z"/>
<path style="fill:#ED5575;" d="M278.598,504.72v-25.788c0-4.021,3.259-7.28,7.28-7.28h189.286c4.021,0,7.28,3.259,7.28,7.28v25.788
	c0,4.021-3.259,7.28-7.28,7.28H285.878C281.858,512,278.598,508.741,278.598,504.72z"/>
<path style="fill:#CC3A60;" d="M457.034,471.652V512h18.13c4.021,0,7.28-3.259,7.28-7.28v-25.788c0-4.021-3.259-7.28-7.28-7.28
	H457.034z"/>
<path style="fill:#5C9CEE;" d="M467.12,248.003v-23.699H293.922v23.699c0,37.101,23.338,68.739,56.129,81.07v37.809
	c-32.791,12.331-56.129,43.969-56.129,81.07v23.699H467.12v-23.699c0-37.101-23.338-68.74-56.129-81.07v-37.809
	C443.782,316.742,467.12,285.104,467.12,248.003z"/>
<path style="fill:#3580D3;" d="M467.12,248.003v-23.699h-25.46v23.699c0,37.101-23.338,68.739-56.129,81.07v37.809
	c32.791,12.331,56.129,43.969,56.129,81.071v23.699h25.46v-23.699c0-37.102-23.338-68.74-56.129-81.071v-37.809
	C443.782,316.742,467.12,285.104,467.12,248.003z"/>
<path style="fill:#F2DF33;" d="M299.837,279.453c12.59,32.273,43.955,55.149,80.684,55.149l0,0
	c36.729,0,68.094-22.876,80.684-55.149H299.837z"/>
<path style="fill:#D9B92C;" d="M385.531,329.073v5.37c8.986-0.513,17.603-2.395,25.648-5.444c0.915-0.347,1.823-0.707,2.722-1.083
	c0.13-0.054,0.258-0.11,0.387-0.165c0.86-0.365,1.713-0.742,2.559-1.133c0.166-0.077,0.33-0.156,0.495-0.234
	c0.801-0.377,1.596-0.764,2.383-1.165c0.207-0.105,0.412-0.214,0.618-0.321c0.736-0.381,1.466-0.772,2.189-1.174
	c0.252-0.14,0.502-0.284,0.753-0.427c0.667-0.38,1.33-0.767,1.986-1.163c0.298-0.18,0.593-0.364,0.888-0.548
	c0.597-0.371,1.19-0.748,1.778-1.132c0.345-0.226,0.687-0.457,1.028-0.688c0.526-0.355,1.049-0.715,1.566-1.082
	c0.392-0.278,0.779-0.56,1.166-0.844c0.454-0.333,0.905-0.669,1.352-1.01c0.437-0.334,0.869-0.674,1.299-1.016
	c0.384-0.305,0.767-0.613,1.146-0.925c0.479-0.394,0.953-0.794,1.423-1.198c0.316-0.272,0.631-0.545,0.944-0.821
	c0.519-0.46,1.033-0.926,1.54-1.398c0.251-0.233,0.501-0.466,0.749-0.701c0.555-0.527,1.102-1.062,1.642-1.603
	c0.19-0.191,0.381-0.382,0.569-0.574c0.584-0.597,1.16-1.201,1.727-1.815c0.135-0.146,0.27-0.292,0.404-0.439
	c0.609-0.668,1.208-1.345,1.796-2.031c0.084-0.098,0.169-0.197,0.252-0.295c0.628-0.74,1.244-1.489,1.847-2.25
	c0.04-0.05,0.08-0.101,0.12-0.151c0.64-0.811,1.267-1.633,1.878-2.467c0.002-0.002,0.003-0.004,0.004-0.006
	c4.41-6.019,8.062-12.628,10.815-19.686h-25.452C426.838,302.297,408.513,320.43,385.531,329.073z"/>
<path style="fill:#F2DF33;" d="M402.395,429.448l34.789,42.204H323.858l35.619-42.403
	C370.701,415.887,391.296,415.982,402.395,429.448z"/>
<path style="fill:#D9B92C;" d="M402.395,429.448c-7.811-9.476-20.322-12.321-30.964-8.524c3.264,1.627,6.283,4.463,8.681,8.524
	l24.919,42.204h32.153L402.395,429.448z"/>
<g>
	<path style="fill:#F2DF33;" d="M380.522,400.049c-4.308,0-7.8-3.492-7.8-7.8v-3.617c0-4.308,3.492-7.8,7.8-7.8s7.8,3.492,7.8,7.8
		v3.617C388.322,396.557,384.83,400.049,380.522,400.049z"/>
	<path style="fill:#F2DF33;" d="M380.522,369.396c-4.308,0-7.8-3.492-7.8-7.8v-26.994c0-4.308,3.492-7.8,7.8-7.8s7.8,3.492,7.8,7.8
		v26.994C388.322,365.904,384.83,369.396,380.522,369.396z"/>
</g>
<g>
</g>
<g>
</g>
<g>
</g>
<g>
</g>
<g>
</g>
<g>
</g>
<g>
</g>
<g>
</g>
<g>
</g>
<g>
</g>
<g>
</g>
<g>
</g>
<g>
</g>
<g>
</g>
<g>
</g>
</svg>
