<?xml version="1.0" encoding="iso-8859-1"?>
<!-- Generator: Adobe Illustrator 19.0.0, SVG Export Plug-In . SVG Version: 6.00 Build 0)  -->
<svg version="1.1" id="Capa_1" xmlns="http://www.w3.org/2000/svg" xmlns:xlink="http://www.w3.org/1999/xlink" x="0px" y="0px"
	 viewBox="0 0 512 512" style="enable-background:new 0 0 512 512;" xml:space="preserve">
<path style="fill:#EBEEF2;" d="M360.325,76.362h-208.65c-24.465,0-44.292,19.828-44.292,44.281v195.615v60.437v14.663
	c0,24.453,19.828,44.281,44.292,44.281h208.65c24.465,0,44.292-19.828,44.292-44.281V195.743v-60.437v-14.663
	C404.617,96.189,384.79,76.362,360.325,76.362z"/>
<path style="fill:#D1D6DE;" d="M360.325,76.362h-208.65c-17.561,0-32.731,10.217-39.896,25.027c4.339-1.42,8.969-2.198,13.784-2.198
	h208.65c24.465,0,44.292,19.828,44.292,44.281v14.663v60.437v195.615c0,6.901-1.58,13.432-4.397,19.254
	c17.712-5.795,30.508-22.442,30.508-42.083V195.743v-60.437v-14.663C404.617,96.189,384.79,76.362,360.325,76.362z"/>
<path style="fill:#ED5575;" d="M31.826,375.774C14.277,375.774,0,361.497,0,343.948s14.277-31.826,31.826-31.826
	s31.826,14.277,31.826,31.826S49.375,375.774,31.826,375.774z M31.826,327.122c-9.278,0-16.826,7.548-16.826,16.826
	s7.548,16.826,16.826,16.826s16.826-7.548,16.826-16.826S41.104,327.122,31.826,327.122z"/>
<g>
	<path style="fill:#5C9CEE;" d="M504.5,189.773c-1.919,0-3.839-0.732-5.303-2.196l-38.547-38.548c-2.929-2.93-2.929-7.678,0-10.607
		c2.929-2.928,7.678-2.928,10.606,0l38.547,38.548c2.929,2.93,2.929,7.678,0,10.607C508.339,189.041,506.419,189.773,504.5,189.773z
		"/>
	<path style="fill:#5C9CEE;" d="M465.953,189.773c-1.919,0-3.839-0.732-5.303-2.196c-2.929-2.93-2.929-7.678,0-10.607l38.547-38.548
		c2.929-2.928,7.678-2.928,10.606,0c2.929,2.93,2.929,7.678,0,10.607l-38.547,38.548
		C469.792,189.041,467.872,189.773,465.953,189.773z"/>
</g>
<path style="fill:#48CFB7;" d="M146.867,353.975H85.308c-4.142,0-7.5-3.357-7.5-7.5s3.358-7.5,7.5-7.5h54.059V243.65
	c0-4.143,3.358-7.5,7.5-7.5H226c4.142,0,7.5,3.357,7.5,7.5v56.85h69.64V165.525c0-4.143,3.358-7.5,7.5-7.5h116.052
	c4.142,0,7.5,3.357,7.5,7.5s-3.358,7.5-7.5,7.5H318.14V308c0,4.143-3.358,7.5-7.5,7.5H226c-4.142,0-7.5-3.357-7.5-7.5v-56.851
	h-64.133v95.325C154.367,350.617,151.009,353.975,146.867,353.975z"/>
<g>
	<path style="fill:#656D88;" d="M265.198,443.139c-4.142,0-7.5-3.357-7.5-7.5V400.5h-71.265c-4.142,0-7.5-3.357-7.5-7.5V288.5
		c0-4.143,3.358-7.5,7.5-7.5s7.5,3.357,7.5,7.5v97h71.265c4.142,0,7.5,3.357,7.5,7.5v42.639
		C272.698,439.781,269.34,443.139,265.198,443.139z"/>
	<path style="fill:#656D88;" d="M161.434,217.5c-4.142,0-7.5-3.357-7.5-7.5v-86c0-4.143,3.358-7.5,7.5-7.5s7.5,3.357,7.5,7.5v86
		C168.934,214.143,165.576,217.5,161.434,217.5z"/>
	<path style="fill:#656D88;" d="M225.816,180.5h-64.382c-4.142,0-7.5-3.357-7.5-7.5s3.358-7.5,7.5-7.5h56.882V76.361
		c0-4.143,3.358-7.5,7.5-7.5s7.5,3.357,7.5,7.5V173C233.316,177.143,229.958,180.5,225.816,180.5z"/>
	<path style="fill:#656D88;" d="M357,359.448H234c-4.142,0-7.5-3.357-7.5-7.5s3.358-7.5,7.5-7.5h115.5V227
		c0-4.143,3.358-7.5,7.5-7.5h47.617c4.142,0,7.5,3.357,7.5,7.5s-3.358,7.5-7.5,7.5H364.5v117.448
		C364.5,356.091,361.142,359.448,357,359.448z"/>
	<path style="fill:#656D88;" d="M269,264.5c-4.142,0-7.5-3.357-7.5-7.5V124.681c0-4.143,3.358-7.5,7.5-7.5h66.5v-40.82
		c0-4.143,3.358-7.5,7.5-7.5s7.5,3.357,7.5,7.5v48.319c0,4.143-3.358,7.5-7.5,7.5h-66.5V257C276.5,261.143,273.142,264.5,269,264.5z
		"/>
</g>
<g>
	<path style="fill:#1B3D66;" d="M107.383,321.758c-4.142,0-7.5-3.357-7.5-7.5V120.643c0-28.553,23.234-51.781,51.792-51.781h208.65
		c28.558,0,51.792,23.229,51.792,51.781v12.663c0,4.143-3.358,7.5-7.5,7.5s-7.5-3.357-7.5-7.5v-12.663
		c0-20.281-16.505-36.781-36.792-36.781h-208.65c-20.287,0-36.792,16.5-36.792,36.781v193.615
		C114.883,318.4,111.525,321.758,107.383,321.758z"/>
	<path style="fill:#1B3D66;" d="M360.325,443.139h-208.65c-28.558,0-51.792-23.229-51.792-51.781v-12.663c0-4.143,3.358-7.5,7.5-7.5
		s7.5,3.357,7.5,7.5v12.663c0,20.281,16.505,36.781,36.792,36.781h208.65c20.287,0,36.792-16.5,36.792-36.781V197.742
		c0-4.143,3.358-7.5,7.5-7.5s7.5,3.357,7.5,7.5v193.615C412.117,419.91,388.883,443.139,360.325,443.139z"/>
</g>
<g>
</g>
<g>
</g>
<g>
</g>
<g>
</g>
<g>
</g>
<g>
</g>
<g>
</g>
<g>
</g>
<g>
</g>
<g>
</g>
<g>
</g>
<g>
</g>
<g>
</g>
<g>
</g>
<g>
</g>
</svg>
