<?xml version="1.0" encoding="iso-8859-1"?>
<!-- Generator: Adobe Illustrator 19.0.0, SVG Export Plug-In . SVG Version: 6.00 Build 0)  -->
<svg version="1.1" id="Capa_1" xmlns="http://www.w3.org/2000/svg" xmlns:xlink="http://www.w3.org/1999/xlink" x="0px" y="0px"
	 viewBox="0 0 512 512" style="enable-background:new 0 0 512 512;" xml:space="preserve">
<path style="fill:#AFB5BF;" d="M305.343,102.37l-24.55-3.75c-1.58-4.71-3.48-9.29-5.68-13.72l14.7-20.01
	c2.19-2.99,1.88-7.12-0.74-9.74l-32.51-32.52c-2.62-2.62-6.76-2.93-9.75-0.74l-20.01,14.7c-4.43-2.2-9.01-4.1-13.71-5.67
	l-3.76-24.55c-0.56-3.67-3.71-6.37-7.42-6.37h-45.98c-3.7,0-6.85,2.7-7.41,6.37l-3.76,24.55c-4.7,1.57-9.29,3.47-13.71,5.67
	l-20.02-14.7c-2.98-2.19-7.12-1.88-9.74,0.74l-32.51,32.52c-2.62,2.62-2.94,6.75-0.74,9.74l14.7,20.01
	c-2.21,4.43-4.1,9.01-5.68,13.72l-24.55,3.75c-3.66,0.56-6.37,3.71-6.37,7.42v45.98c0,3.7,2.71,6.85,6.37,7.41l24.55,3.76
	c1.58,4.7,3.47,9.29,5.68,13.71l-14.7,20.02c-2.2,2.98-1.88,7.12,0.74,9.74l32.51,32.51c2.62,2.62,6.76,2.94,9.74,0.75l20.02-14.71
	c4.42,2.21,9.01,4.11,13.71,5.68l3.76,24.55c0.56,3.66,3.71,6.37,7.41,6.37h45.98c3.71,0,6.86-2.71,7.42-6.37l3.76-24.55
	c4.7-1.57,9.28-3.47,13.71-5.68l20.01,14.71c2.99,2.19,7.13,1.87,9.75-0.75l32.51-32.51c2.62-2.62,2.93-6.76,0.74-9.74l-14.7-20.02
	c2.2-4.42,4.1-9.01,5.68-13.71l24.55-3.76c3.66-0.56,6.36-3.71,6.36-7.41v-45.98C311.702,106.08,309.002,102.93,305.343,102.37z
	 M232.482,132.78c0,29.58-23.98,53.56-53.56,53.56s-53.56-23.98-53.56-53.56s23.98-53.56,53.56-53.56S232.482,103.2,232.482,132.78z
	"/>
<path style="fill:#9098A5;" d="M178.922,65.512c-37.151,0-67.268,30.117-67.268,67.268s30.117,67.268,67.268,67.268
	s67.268-30.117,67.268-67.268S216.074,65.512,178.922,65.512z M178.922,186.34c-29.58,0-53.56-23.98-53.56-53.56
	s23.98-53.56,53.56-53.56s53.56,23.98,53.56,53.56S208.502,186.34,178.922,186.34z"/>
<path style="fill:#F9C295;" d="M399.459,255.257c0.593-72.396-58.183-132.116-130.579-132.623
	c-73.072-0.512-132.468,58.569-132.468,131.522c0,2.905,0.104,5.785,0.29,8.644L99.81,362.123c-1.456,3.92,1.443,8.089,5.625,8.089
	h35.139v40.751c0,16.407,13.3,29.707,29.707,29.707h60.195v63.83h124.207V353.014C381.876,329.134,399.14,294.217,399.459,255.257z"
	/>
<path style="fill:#E59F6A;" d="M267.938,122.631c-4.442,0-8.831,0.223-13.159,0.653c66.461,6.603,118.366,62.674,118.366,130.872
	c0,39.403-17.332,74.753-44.781,98.858V504.5h26.318V353.014c27.45-24.105,44.781-59.455,44.781-98.858
	C399.463,181.517,340.577,122.631,267.938,122.631z"/>
<path style="fill:#EBEEF2;" d="M372.291,460.778H213.018c-2.458,0-4.761,1.205-6.162,3.225l-25.129,36.222
	c-1.591,2.293-1.777,5.28-0.483,7.753c1.295,2.473,3.854,4.022,6.646,4.022h184.401c4.143,0,7.5-3.357,7.5-7.5v-36.222
	C379.791,464.136,376.433,460.778,372.291,460.778z"/>
<path style="fill:#D1D6DE;" d="M372.291,460.778H345.98c4.143,0,7.5,3.357,7.5,7.5V504.5c0,4.143-3.357,7.5-7.5,7.5h26.311
	c4.143,0,7.5-3.357,7.5-7.5v-36.222C379.791,464.136,376.433,460.778,372.291,460.778z"/>
<path style="fill:#F2DF33;" d="M403.129,232.014l59.007-45.153c4.962-3.797,4.962-11.271,0-15.068l-59.007-45.153
	c-6.242-4.776-15.252-0.326-15.252,7.534v17.657H331.99c-6.596,0-11.943,5.347-11.943,11.943v31.106
	c0,6.596,5.347,11.943,11.943,11.943h55.887v17.657C387.877,232.339,396.887,236.79,403.129,232.014z"/>
<path style="fill:#48CFB7;" d="M277.082,255.75l-59.007-45.153c-4.962-3.797-4.962-11.271,0-15.068l59.007-45.153
	c6.242-4.776,15.252-0.326,15.252,7.534v17.657h55.887c6.596,0,11.943,5.347,11.943,11.943v31.106
	c0,6.596-5.347,11.943-11.943,11.943h-55.887v17.657C292.333,256.076,283.324,260.526,277.082,255.75z"/>
<path style="fill:#5C9CEE;" d="M360.163,187.51c0-6.596-5.347-11.943-11.943-11.943h-28.173v19.313
	c0,6.596,5.347,11.943,11.943,11.943h28.173V187.51z"/>
<path style="fill:#E59F6A;" d="M292.213,366.793H282.14c-4.143,0-7.5-3.357-7.5-7.5s3.357-7.5,7.5-7.5h10.073
	c5.761,0,10.448-4.688,10.448-10.449v-26.079c0-5.761-4.688-10.448-10.448-10.448H282.14c-4.143,0-7.5-3.357-7.5-7.5
	s3.357-7.5,7.5-7.5h10.073c14.032,0,25.448,11.416,25.448,25.448v26.079C317.662,355.377,306.246,366.793,292.213,366.793z"/>
<g>
</g>
<g>
</g>
<g>
</g>
<g>
</g>
<g>
</g>
<g>
</g>
<g>
</g>
<g>
</g>
<g>
</g>
<g>
</g>
<g>
</g>
<g>
</g>
<g>
</g>
<g>
</g>
<g>
</g>
</svg>
