<?xml version="1.0" encoding="iso-8859-1"?>
<!-- Generator: Adobe Illustrator 19.0.0, SVG Export Plug-In . SVG Version: 6.00 Build 0)  -->
<svg version="1.1" id="Capa_1" xmlns="http://www.w3.org/2000/svg" xmlns:xlink="http://www.w3.org/1999/xlink" x="0px" y="0px"
	 viewBox="0 0 511.999 511.999" style="enable-background:new 0 0 511.999 511.999;" xml:space="preserve">
<path style="fill:#EBEEF2;" d="M134.346,338.555H74.473C33.343,338.555,0,371.898,0,413.028v67.318c0,5.799,4.701,10.5,10.5,10.5
	h187.819c5.799,0,10.5-4.701,10.5-10.5v-67.318C208.819,371.898,175.476,338.555,134.346,338.555z"/>
<path style="fill:#D1D6DE;" d="M134.345,338.555h-32.253c41.13,0,74.473,33.343,74.473,74.473v77.818h21.754
	c5.799,0,10.5-4.701,10.5-10.5v-67.318C208.819,371.898,175.476,338.555,134.345,338.555z"/>
<path style="fill:#ED5575;" d="M113.301,338.555H95.518l-22.923,77.916c-1.024,3.482-0.089,7.245,2.447,9.842l22.189,22.726
	c3.937,4.032,10.422,4.032,14.359,0l22.189-22.726c2.535-2.597,3.471-6.36,2.447-9.842L113.301,338.555z"/>
<path style="fill:#F9C295;" d="M104.409,95.205L104.409,95.205c-46.951,0-85.012,38.061-85.012,85.012v40.986
	c0,46.951,38.062,85.012,85.012,85.012l0,0c46.951,0,85.012-38.061,85.012-85.012v-40.986
	C189.421,133.266,151.36,95.205,104.409,95.205z"/>
<path style="fill:#E59F6A;" d="M95.644,95.653c34.825,4.388,61.992,40.573,61.992,84.564v40.986
	c0,43.991-27.168,80.176-61.992,84.564c2.882,0.295,5.806,0.448,8.766,0.448c46.95,0,85.012-38.061,85.012-85.012v-40.986
	C189.422,130.078,146.118,90.483,95.644,95.653z"/>
<path style="fill:#444966;" d="M159.721,115.7c0.001-0.003,0.002-0.007,0.002-0.01c-54.789-46.947-140.326-8.182-140.326,64.527
	v7.859c12.518,5.523,26.35,8.613,40.912,8.613c29.904,0,56.771-12.95,75.343-33.529c11.743,18.095,31.225,30.704,53.769,33.105
	C188.204,189.402,196.759,147.46,159.721,115.7z"/>
<path style="fill:#2E344C;" d="M159.721,115.7c0.001-0.003,0.002-0.006,0.002-0.01c-0.708-0.394-25.409-23.999-64.08-20.037
	c34.825,4.388,61.992,40.573,61.992,84.564v4.816c9.357,6.022,20.158,9.993,31.786,11.231
	C188.256,189.459,196.658,147.374,159.721,115.7z"/>
<path style="fill:#E59F6A;" d="M114.449,253.543h-10.041c-4.349,0-7.875-3.525-7.875-7.875v-26.242c0-4.35,3.526-7.875,7.875-7.875
	s7.875,3.525,7.875,7.875v18.367h2.166c4.349,0,7.875,3.525,7.875,7.875S118.799,253.543,114.449,253.543z"/>
<path style="fill:#ED5575;" d="M453.7,446.562c-0.566-2.292-2.179-4.184-4.353-5.105l-83.356-35.346
	c-3.588-1.519-7.747-0.039-9.563,3.41c-13.185,25.031-30.527,47.352-51.545,66.34c-2.302,2.08-3.086,5.363-1.972,8.259
	s3.896,4.807,7,4.807h104.098c1.784,0,3.51-0.636,4.867-1.794c12.145-10.358,23.366-21.807,33.351-34.024
	C453.721,451.28,454.267,448.854,453.7,446.562z"/>
<g>
	<path style="fill:#9FD479;" d="M236.518,21.162c-7.257,0.303-14.509,0.896-21.556,1.766C188.03,26.244,161.95,33.59,137.448,44.76
		c-3.234,1.474-4.989,5.016-4.204,8.481c0.785,3.466,3.856,5.881,7.449,5.842c26.822-0.482,53.354,3.54,78.836,11.951
		c0.778,0.257,1.571,0.38,2.351,0.38c2.936,0,5.701-1.735,6.905-4.574l14.95-35.257c1.004-2.367,0.725-5.084-0.739-7.198
		C241.532,22.271,239.09,21.033,236.518,21.162z"/>
	<path style="fill:#9FD479;" d="M405.457,73.387C369.05,46.25,326.134,28.854,281.35,23.08c-3.334-0.433-6.551,1.414-7.864,4.511
		l-20.929,49.358c-1.522,3.59-0.04,7.747,3.41,9.563c25.397,13.376,47.983,31.008,67.13,52.405c1.475,1.648,3.525,2.499,5.593,2.499
		c1.578,0,3.165-0.496,4.513-1.512l72.288-54.516c1.885-1.422,2.991-3.648,2.984-6.009C408.468,77.019,407.35,74.799,405.457,73.387
		z"/>
</g>
<g>
	<path style="fill:#F2DF33;" d="M511.741,274.199c-0.092-2.089-1.053-4.045-2.649-5.396s-3.684-1.976-5.76-1.717l-113.067,13.927
		c-3.875,0.477-6.736,3.848-6.577,7.749c1.174,28.758-2.785,57.13-11.765,84.328c-1.224,3.707,0.6,7.732,4.194,9.257l91.064,38.614
		c0.952,0.403,1.945,0.596,2.924,0.596c2.609,0,5.121-1.366,6.498-3.75C501.813,374.158,513.963,324.499,511.741,274.199z"/>
	<path style="fill:#F2DF33;" d="M386.182,255.432c0.305,0,0.614-0.019,0.924-0.058l113.067-13.927
		c2.075-0.255,3.95-1.366,5.171-3.063c1.222-1.697,1.679-3.828,1.261-5.877c-10.049-49.335-33.886-94.562-68.936-130.79
		c-2.632-2.722-6.882-3.055-9.906-0.773l-78.973,59.558c-3.116,2.351-3.909,6.699-1.822,9.998
		c15.313,24.206,26.037,50.77,31.876,78.953C379.574,252.97,382.673,255.432,386.182,255.432z"/>
</g>
<path style="fill:#5C9CEE;" d="M443.761,352.276c1.909-2.36,1.544-5.821-0.816-7.73c-0.417-0.337-0.874-0.578-1.345-0.775
	l0.008-0.024c-10.143-4.24-146.789-61.362-186.079-77.786l-0.004,0.011c-8.504-3.559-18.667-1.287-24.759,6.242
	c-7.396,9.14-5.982,22.546,3.159,29.942c2.527,2.044,5.383,3.392,8.345,4.113l-0.007,0.021
	c41.368,10.107,185.241,45.259,195.92,47.869l0.005-0.016C440.189,354.629,442.38,353.983,443.761,352.276z"/>
<circle style="fill:#EBEEF2;" cx="247.32" cy="285.61" r="37.679"/>
<g>
</g>
<g>
</g>
<g>
</g>
<g>
</g>
<g>
</g>
<g>
</g>
<g>
</g>
<g>
</g>
<g>
</g>
<g>
</g>
<g>
</g>
<g>
</g>
<g>
</g>
<g>
</g>
<g>
</g>
</svg>
