<?xml version="1.0" encoding="iso-8859-1"?>
<!-- Generator: Adobe Illustrator 19.0.0, SVG Export Plug-In . SVG Version: 6.00 Build 0)  -->
<svg version="1.1" id="Capa_1" xmlns="http://www.w3.org/2000/svg" xmlns:xlink="http://www.w3.org/1999/xlink" x="0px" y="0px"
	 viewBox="0 0 512 512" style="enable-background:new 0 0 512 512;" xml:space="preserve">
<path style="fill:#EBEEF2;" d="M425.255,92.059v339.155c0,13.397-10.857,24.254-24.254,24.254H110.999
	c-13.397,0-24.254-10.857-24.254-24.254V31.754c0-13.397,10.857-24.254,24.254-24.254h229.697L425.255,92.059z"/>
<path style="fill:#48CFB7;" d="M430.558,86.755L345.999,2.196C344.593,0.79,342.685,0,340.696,0H110.998
	C93.49,0,79.245,14.245,79.245,31.754v399.46c0,17.509,14.245,31.753,31.753,31.753h290.003c17.509,0,31.753-14.244,31.753-31.753
	V92.059C432.755,90.069,431.965,88.162,430.558,86.755z M394.852,78.764v305.439c0,2.53-1.921,4.599-4.432,4.905
	c-16.463,2.009-29.516,15.062-31.524,31.524c-0.306,2.511-2.375,4.432-4.905,4.432H158.009c-2.53,0-4.599-1.921-4.905-4.432
	c-2.008-16.463-15.061-29.516-31.524-31.524c-2.511-0.306-4.432-2.375-4.432-4.905V78.764c0-2.53,1.921-4.599,4.432-4.905
	c16.463-2.008,29.516-15.061,31.524-31.524c0.306-2.511,2.375-4.432,4.905-4.432h195.982c2.53,0,4.599,1.921,4.905,4.432
	c2.008,16.463,15.061,29.515,31.524,31.524C392.931,74.165,394.852,76.234,394.852,78.764z"/>
<path style="fill:#35B5A0;" d="M430.558,86.755l-56.083-56.083v24.501l31.582,31.582c1.407,1.407,2.197,3.314,2.197,5.304v339.155
	c0,17.509-14.245,31.753-31.753,31.753h24.502c17.509,0,31.753-14.244,31.753-31.753V92.059
	C432.755,90.069,431.965,88.162,430.558,86.755z"/>
<path style="fill:#D1D6DE;" d="M430.558,86.755L345.999,2.196c-2.145-2.145-5.372-2.786-8.173-1.625
	c-2.803,1.16-4.63,3.896-4.63,6.929v60.306c0,17.509,14.245,31.753,31.753,31.753h60.305c3.034,0,5.768-1.827,6.929-4.63
	C433.345,92.126,432.703,88.9,430.558,86.755z"/>
<path style="fill:#1B3D66;" d="M316.499,111.275H195.501c-4.142,0-7.5-3.357-7.5-7.5s3.358-7.5,7.5-7.5h120.998
	c4.142,0,7.5,3.357,7.5,7.5S320.641,111.275,316.499,111.275z"/>
<g>
	<path style="fill:#656D88;" d="M350.107,190.715H161.893c-4.142,0-7.5-3.357-7.5-7.5s3.358-7.5,7.5-7.5h188.214
		c4.142,0,7.5,3.357,7.5,7.5S354.249,190.715,350.107,190.715z"/>
	<path style="fill:#656D88;" d="M350.107,238.983H161.893c-4.142,0-7.5-3.357-7.5-7.5s3.358-7.5,7.5-7.5h188.214
		c4.142,0,7.5,3.357,7.5,7.5S354.249,238.983,350.107,238.983z"/>
	<path style="fill:#656D88;" d="M350.107,287.253H161.893c-4.142,0-7.5-3.357-7.5-7.5s3.358-7.5,7.5-7.5h188.214
		c4.142,0,7.5,3.357,7.5,7.5S354.249,287.253,350.107,287.253z"/>
	<path style="fill:#656D88;" d="M350.107,335.522H161.893c-4.142,0-7.5-3.357-7.5-7.5s3.358-7.5,7.5-7.5h188.214
		c4.142,0,7.5,3.357,7.5,7.5S354.249,335.522,350.107,335.522z"/>
</g>
<path style="fill:#5C9CEE;" d="M327.11,394.57V504.5c0,3.59-2.55,6.68-6.07,7.36c-0.48,0.1-0.96,0.14-1.43,0.14
	c-3.01,0-5.8-1.82-6.96-4.7c-4.32-10.72-10.41-18.27-17.11-21.53c-2.44-1.2-4.96-1.82-7.5-1.82s-5.06,0.62-7.5,1.81
	c-6.7,3.27-12.8,10.82-17.12,21.54c-1.34,3.33-4.86,5.24-8.38,4.56c-3.53-0.68-6.08-3.77-6.08-7.36V394.57c0-4.14,3.36-7.5,7.5-7.5
	h63.15C323.75,387.07,327.11,390.43,327.11,394.57z"/>
<path style="fill:#FFCE65;" d="M295.54,397.52v88.25c-2.44-1.2-4.96-1.82-7.5-1.82s-5.06,0.62-7.5,1.81v-88.24
	c0-4.15,3.35-7.5,7.5-7.5C292.18,390.02,295.54,393.37,295.54,397.52z"/>
<path style="fill:#ED5575;" d="M352.39,351.177l-6.153-4.933c-1.541-1.235-2.331-3.145-2.115-5.107l0.862-7.838
	c0.692-6.289-1.477-12.462-5.95-16.936s-10.646-6.643-16.936-5.951l-7.839,0.862c-1.969,0.217-3.872-0.574-5.107-2.115l-4.932-6.152
	c-3.958-4.937-9.856-7.768-16.183-7.768s-12.226,2.831-16.183,7.768l-4.932,6.151c-1.236,1.542-3.146,2.327-5.109,2.116
	l-7.838-0.862c-6.293-0.694-12.463,1.478-16.936,5.951c-4.474,4.474-6.643,10.646-5.95,16.936l0.862,7.838
	c0.216,1.963-0.575,3.872-2.116,5.107l-6.153,4.933c-4.937,3.959-7.767,9.857-7.767,16.185c0,6.326,2.832,12.225,7.768,16.182
	l6.152,4.933c1.541,1.235,2.332,3.146,2.116,5.108l-0.862,7.838c-0.692,6.289,1.477,12.462,5.95,16.936
	c4.474,4.475,10.649,6.646,16.937,5.951l7.836-0.863c1.96-0.218,3.873,0.576,5.108,2.116l4.933,6.152
	c3.958,4.936,9.856,7.767,16.183,7.768l0,0c6.326,0,12.225-2.831,16.183-7.768l4.932-6.152c1.235-1.542,3.147-2.334,5.107-2.116
	l7.839,0.863c6.291,0.688,12.462-1.479,16.936-5.951c4.474-4.474,6.643-10.646,5.95-16.936l-0.862-7.838
	c-0.216-1.963,0.575-3.873,2.115-5.108l6.153-4.933c4.936-3.957,7.767-9.855,7.768-16.182
	C360.157,361.034,357.327,355.136,352.39,351.177z"/>
<path style="fill:#CC3A60;" d="M352.39,351.177l-6.153-4.933c-1.541-1.235-2.331-3.145-2.115-5.107l0.862-7.838
	c0.692-6.289-1.477-12.462-5.95-16.936c-3.75-3.75-8.696-5.873-13.902-6.057c0.843,0.62,1.648,1.303,2.402,2.057
	c4.474,4.474,6.643,10.646,5.95,16.936l-0.862,7.838c-0.216,1.963,0.574,3.872,2.115,5.107l6.153,4.933
	c4.937,3.959,7.768,9.857,7.768,16.185c0,6.326-2.832,12.225-7.768,16.182l-6.153,4.933c-1.541,1.235-2.332,3.146-2.115,5.108
	l0.862,7.838c0.692,6.289-1.477,12.462-5.95,16.936c-4.474,4.473-10.645,6.64-16.936,5.951l-7.839-0.863
	c-1.96-0.218-3.872,0.574-5.107,2.116l-4.932,6.152c-3.958,4.937-9.857,7.768-16.183,7.768l0,0c-0.259,0-0.516-0.012-0.774-0.021
	c3.517,2.59,7.786,4.021,12.274,4.021l0,0c6.326,0,12.225-2.831,16.183-7.768l4.932-6.152c1.235-1.542,3.147-2.334,5.107-2.116
	l7.839,0.863c6.291,0.688,12.462-1.479,16.936-5.951c4.474-4.474,6.643-10.646,5.95-16.936l-0.862-7.838
	c-0.216-1.963,0.575-3.873,2.115-5.108l6.153-4.933c4.936-3.957,7.767-9.855,7.768-16.182
	C360.157,361.034,357.327,355.136,352.39,351.177z"/>
<circle style="fill:#FCAB29;" cx="288.04" cy="367.36" r="30.16"/>
<g>
</g>
<g>
</g>
<g>
</g>
<g>
</g>
<g>
</g>
<g>
</g>
<g>
</g>
<g>
</g>
<g>
</g>
<g>
</g>
<g>
</g>
<g>
</g>
<g>
</g>
<g>
</g>
<g>
</g>
</svg>
