<?xml version="1.0" encoding="iso-8859-1"?>
<!-- Generator: Adobe Illustrator 19.0.0, SVG Export Plug-In . SVG Version: 6.00 Build 0)  -->
<svg version="1.1" id="Capa_1" xmlns="http://www.w3.org/2000/svg" xmlns:xlink="http://www.w3.org/1999/xlink" x="0px" y="0px"
	 viewBox="0 0 512 512" style="enable-background:new 0 0 512 512;" xml:space="preserve">
<g>
	<path style="fill:#F9C295;" d="M113.723,179.044h25.571v-50.906h-25.571c-14.057,0-25.453,11.396-25.453,25.453l0,0
		C88.27,167.648,99.666,179.044,113.723,179.044z"/>
	<path style="fill:#F9C295;" d="M364.49,179.044h-25.571v-50.906h25.571c14.057,0,25.453,11.396,25.453,25.453l0,0
		C389.943,167.648,378.547,179.044,364.49,179.044z"/>
</g>
<path style="fill:#656D88;" d="M276.637,305.66h-75.061c-13.525,0-26.379,0.876-37.982,6.05
	c-32.633,14.551-55.38,47.275-55.38,85.313V512H370V397.023c0-38.084-22.802-70.842-55.499-85.366
	C302.928,306.516,290.116,305.66,276.637,305.66z"/>
<path style="fill:#444966;" d="M276.637,305.66h-27.3c22.373,0,42.908,5.869,58.988,18.991
	c20.979,17.12,34.375,43.181,34.375,72.371V512H370V397.023c0-37.907-22.592-70.538-55.046-85.163
	C303.263,306.592,290.292,305.66,276.637,305.66z"/>
<path style="fill:#F9C295;" d="M239.106,0L239.106,0c-60.004,0-108.647,48.643-108.647,108.647v52.381
	c0,60.004,48.643,108.647,108.647,108.647l0,0c60.004,0,108.647-48.643,108.647-108.647v-52.381C347.753,48.643,299.11,0,239.106,0z
	"/>
<path style="fill:#E59F6A;" d="M239.106,0c-4.697,0-9.325,0.299-13.865,0.877c53.456,6.809,94.781,52.463,94.781,107.77v52.381
	c0,55.307-41.325,100.961-94.781,107.77c4.54,0.579,9.168,0.877,13.865,0.877c60.004,0,108.647-48.643,108.647-108.647v-52.381
	C347.753,48.643,299.11,0,239.106,0z"/>
<path style="fill:#EBEEF2;" d="M239.106,461.595L314.49,311.68c-11.573-5.141-24.373-8.021-37.853-8.021h-75.061
	c-13.48,0-26.28,2.88-37.853,8.021L239.106,461.595z"/>
<path style="fill:#ED5575;" d="M227.001,334.168l-11.288,80.905l23.394,46.523l23.394-46.523l-11.288-80.905
	c12.134-4.819,20.718-16.657,20.718-30.508h-65.646C206.284,317.51,214.867,329.349,227.001,334.168z"/>
<path style="fill:#E59F6A;" d="M256.52,194.236h-17.413c-4.268,0-7.726-3.459-7.726-7.726v-46.283c0-4.268,3.459-7.726,7.726-7.726
	s7.726,3.459,7.726,7.726v38.556h9.687c4.268,0,7.726,3.459,7.726,7.726C264.246,190.778,260.788,194.236,256.52,194.236z"/>
<path style="fill:#EBEEF2;" d="M413.391,382.628H262.461c-5.71,0-10.339,4.629-10.339,10.339v108.694
	c0,5.71,4.629,10.339,10.339,10.339h150.929c5.71,0,10.339-4.629,10.339-10.339V392.967
	C423.73,387.257,419.102,382.628,413.391,382.628z"/>
<path style="fill:#D1D6DE;" d="M413.391,382.628h-25.288c5.71,0,10.339,4.629,10.339,10.339V501.66c0,5.71-4.629,10.34-10.339,10.34
	h25.288c5.71,0,10.339-4.629,10.339-10.34V392.967C423.73,387.257,419.102,382.628,413.391,382.628z"/>
<g>
	<path style="fill:#656D88;" d="M323.054,456.96c-1.311,0-2.639-0.334-3.856-1.036c-3.695-2.134-4.962-6.859-2.828-10.554
		l13.714-23.755c2.133-3.697,6.857-4.961,10.554-2.828c3.695,2.134,4.962,6.859,2.828,10.554l-13.714,23.755
		C328.322,455.574,325.724,456.96,323.054,456.96z"/>
	<path style="fill:#656D88;" d="M339.068,476.876c-1.311,0-2.64-0.334-3.856-1.036c-3.695-2.134-4.962-6.859-2.828-10.554
		l13.715-23.755c2.133-3.697,6.86-4.962,10.554-2.828c3.695,2.134,4.962,6.859,2.828,10.554l-13.715,23.755
		C344.336,475.491,341.738,476.876,339.068,476.876z"/>
	<path style="fill:#656D88;" d="M130.494,105.914c29.615-0.019,53.618-24.031,53.618-53.651c0-11.488-3.622-22.124-9.771-30.853
		C148.393,40.705,131.349,71.3,130.494,105.914z"/>
</g>
<path style="fill:#444966;" d="M158.367,35.953c14.027,40.291,72.008,70.493,141.415,70.493c16.726,0,32.784-1.76,47.729-4.986
	C343.81,44.807,296.694,0,239.106,0C207.058,0,178.253,13.88,158.367,35.953z"/>
<path style="fill:#2E344C;" d="M234.782,0.095c-0.743,0.029-1.485,0.062-2.224,0.106c-0.401,0.024-0.801,0.053-1.2,0.081
	c-0.691,0.049-1.381,0.103-2.068,0.164c-0.405,0.036-0.81,0.074-1.215,0.115c-0.696,0.07-1.389,0.148-2.081,0.232
	c-0.24,0.029-0.481,0.058-0.722,0.088c52.444,6.696,93.2,50.781,94.703,104.682c9.503-0.822,18.717-2.2,27.536-4.104
	c-0.058-0.885-0.126-1.767-0.205-2.646v-0.001c-0.079-0.878-0.168-1.754-0.268-2.626c0-0.002,0-0.004,0-0.005
	c-1.895-16.587-7.524-32.04-16.027-45.495c-0.001-0.002-0.002-0.003-0.003-0.004c-0.429-0.679-0.866-1.352-1.31-2.02
	c-0.027-0.041-0.054-0.083-0.082-0.124c-0.423-0.636-0.853-1.266-1.289-1.892c-0.051-0.073-0.102-0.147-0.153-0.22
	c-0.419-0.6-0.847-1.195-1.278-1.786c-0.071-0.097-0.141-0.193-0.212-0.29c-0.419-0.57-0.844-1.135-1.274-1.696
	c-0.087-0.114-0.174-0.228-0.262-0.341c-0.421-0.545-0.847-1.085-1.277-1.621c-0.101-0.126-0.203-0.253-0.305-0.378
	c-0.423-0.523-0.852-1.042-1.284-1.556c-0.113-0.135-0.227-0.269-0.341-0.403c-0.428-0.505-0.861-1.005-1.299-1.502
	c-0.123-0.139-0.246-0.278-0.369-0.416c-0.434-0.488-0.872-0.972-1.315-1.452c-0.131-0.142-0.263-0.283-0.395-0.424
	c-0.442-0.474-0.887-0.945-1.338-1.41c-0.137-0.142-0.275-0.282-0.412-0.422c-0.45-0.461-0.903-0.919-1.361-1.371
	c-0.143-0.141-0.288-0.281-0.432-0.422c-0.459-0.448-0.919-0.894-1.386-1.334c-0.146-0.138-0.294-0.273-0.44-0.41
	c-0.471-0.439-0.944-0.877-1.423-1.308c-0.143-0.129-0.288-0.255-0.432-0.383c-0.486-0.433-0.975-0.865-1.469-1.289
	c-0.138-0.119-0.278-0.235-0.417-0.353c-0.506-0.43-1.013-0.858-1.526-1.279c-0.122-0.1-0.246-0.197-0.368-0.297
	c-0.535-0.435-1.072-0.867-1.616-1.292c-0.081-0.064-0.164-0.125-0.246-0.189c-3.16-2.455-6.46-4.74-9.885-6.841
	c-0.074-0.045-0.146-0.092-0.22-0.138c-0.526-0.32-1.057-0.632-1.589-0.944c-0.209-0.122-0.415-0.248-0.625-0.37
	c-0.474-0.274-0.953-0.54-1.432-0.807c-0.273-0.152-0.544-0.308-0.818-0.457c-0.448-0.245-0.901-0.483-1.354-0.722
	c-0.309-0.163-0.616-0.328-0.926-0.489c-0.435-0.224-0.874-0.442-1.312-0.661c-0.333-0.166-0.665-0.334-1.001-0.497
	c-0.427-0.207-0.856-0.408-1.286-0.61c-0.352-0.166-0.704-0.332-1.059-0.494c-0.42-0.192-0.843-0.378-1.267-0.565
	c-0.369-0.163-0.737-0.326-1.109-0.485c-0.416-0.178-0.836-0.352-1.255-0.525c-0.382-0.158-0.765-0.316-1.149-0.47
	c-0.414-0.166-0.831-0.327-1.248-0.488c-0.394-0.152-0.788-0.303-1.184-0.45c-0.414-0.154-0.831-0.305-1.247-0.454
	c-0.404-0.144-0.808-0.287-1.214-0.427c-0.413-0.142-0.828-0.282-1.243-0.419c-0.414-0.137-0.83-0.272-1.246-0.404
	c-0.413-0.132-0.828-0.26-1.243-0.387c-0.423-0.129-0.846-0.254-1.271-0.378c-0.413-0.12-0.827-0.238-1.242-0.354
	c-0.433-0.12-0.866-0.237-1.301-0.352c-0.413-0.109-0.826-0.217-1.241-0.322c-0.44-0.111-0.881-0.218-1.323-0.323
	c-0.414-0.099-0.828-0.197-1.243-0.291c-0.448-0.101-0.897-0.198-1.347-0.293c-0.414-0.088-0.827-0.176-1.243-0.26
	c-0.456-0.092-0.914-0.177-1.371-0.263c-0.413-0.077-0.826-0.155-1.241-0.228c-0.466-0.081-0.934-0.157-1.402-0.232
	c-0.41-0.066-0.819-0.134-1.231-0.196c-0.479-0.072-0.961-0.136-1.442-0.202c-0.404-0.055-0.807-0.112-1.212-0.163
	c-0.493-0.061-0.989-0.115-1.484-0.17c-0.398-0.044-0.795-0.091-1.195-0.131c-0.509-0.051-1.02-0.093-1.531-0.136
	c-0.388-0.033-0.775-0.07-1.165-0.099c-0.537-0.04-1.076-0.07-1.615-0.102c-0.367-0.022-0.732-0.049-1.1-0.067
	c-0.597-0.03-1.197-0.048-1.797-0.068c-0.312-0.011-0.622-0.026-0.935-0.034C240.941,0.012,240.025,0,239.107,0
	c-1.097,0-2.189,0.02-3.277,0.052C235.479,0.062,235.131,0.081,234.782,0.095z"/>
<path style="fill:#444966;" d="M173.786,415.556H140.82c-4.268,0-7.726-3.459-7.726-7.726s3.459-7.726,7.726-7.726h32.966
	c4.268,0,7.726,3.459,7.726,7.726S178.053,415.556,173.786,415.556z"/>
<g>
</g>
<g>
</g>
<g>
</g>
<g>
</g>
<g>
</g>
<g>
</g>
<g>
</g>
<g>
</g>
<g>
</g>
<g>
</g>
<g>
</g>
<g>
</g>
<g>
</g>
<g>
</g>
<g>
</g>
</svg>
