<?xml version="1.0" encoding="iso-8859-1"?>
<!-- Generator: Adobe Illustrator 19.0.0, SVG Export Plug-In . SVG Version: 6.00 Build 0)  -->
<svg version="1.1" id="Capa_1" xmlns="http://www.w3.org/2000/svg" xmlns:xlink="http://www.w3.org/1999/xlink" x="0px" y="0px"
	 viewBox="0 0 512 512" style="enable-background:new 0 0 512 512;" xml:space="preserve">
<path style="fill:#444966;" d="M34.525,157.27v284.643c0,15.044,14.934,29.979,33.357,29.979h376.237
	c18.423,0,33.357-14.934,33.357-29.979V157.27c0-21.801-14.934-36.735-33.357-36.735H67.882
	C49.459,120.534,34.525,135.469,34.525,157.27z"/>
<path style="fill:#2E344C;" d="M444.118,120.535h-18.771c18.423,0,33.357,14.934,33.357,36.735v284.644
	c0,15.044-14.934,29.979-33.357,29.979h18.771c18.423,0,33.357-14.935,33.357-29.979V157.27
	C477.475,135.469,462.541,120.535,444.118,120.535z"/>
<path style="fill:#5C9CEE;" d="M67.881,390.809c-1.883,0-3.435-1.182-4.077-1.955V157.269c0-0.763,0.114-7.455,4.077-7.455h376.237
	c3.964,0,4.078,6.692,4.078,7.455v231.585c-0.642,0.773-2.194,1.955-4.078,1.955H67.881z"/>
<path style="fill:#EBEEF2;" d="M301.311,443.668v7.716c0,3.754-3.043,6.797-6.797,6.797h-77.029c-3.754,0-6.797-3.043-6.797-6.797
	v-7.716c0-3.754-3.043-6.797-6.797-6.797H6.797c-3.754,0-6.797,3.043-6.797,6.797v17.721c0,13.751,11.147,24.898,24.898,24.898
	h462.204c13.751,0,24.898-11.147,24.898-24.898v-17.721c0-3.754-3.043-6.797-6.797-6.797H308.108
	C304.354,436.872,301.311,439.915,301.311,443.668z"/>
<path style="fill:#D1D6DE;" d="M505.203,436.872h-25.007c3.754,0,6.797,3.043,6.797,6.797v17.721
	c0,13.75-11.147,24.898-24.898,24.898h25.007c13.751,0,24.898-11.147,24.898-24.898v-17.721
	C512,439.915,508.957,436.872,505.203,436.872z"/>
<path style="fill:#ED5575;" d="M343.69,245.716c6.03,0,11.011-4.681,11.42-10.697c0.148-2.178,0.225-4.376,0.225-6.592
	c0-54.861-44.474-99.335-99.335-99.335s-99.335,44.474-99.335,99.335c0,2.216,0.077,4.414,0.225,6.592
	c0.409,6.016,5.391,10.697,11.42,10.697H343.69z"/>
<path style="fill:#CC3A60;" d="M197.454,148.179c4.517,30.161,13.832,66.709,24.851,97.537h85.39
	c9.341-26.134,17.46-56.38,22.469-83.365c-18.193-20.405-44.675-33.259-74.164-33.259
	C234.107,129.092,213.872,136.18,197.454,148.179z"/>
<path style="fill:#EBEEF2;" d="M282.395,265.055c5.404,0,10.248-3.313,12.209-8.349c17.493-44.936,31.87-106.914,31.87-141.879
	c0-50.943-70.474-89.115-70.474-89.115s-70.474,38.172-70.474,89.115c0,34.965,14.377,96.943,31.87,141.879
	c1.96,5.036,6.805,8.349,12.209,8.349H282.395z"/>
<path style="fill:#D1D6DE;" d="M256,25.713c0,0,43,38.172,43,89.115c0,34.965-8.772,96.943-19.446,141.879
	c-1.196,5.036-4.152,8.349-7.449,8.349h10.29c5.404,0,10.248-3.313,12.209-8.349c17.493-44.936,31.87-106.914,31.87-141.879
	C326.474,63.885,256,25.713,256,25.713z"/>
<circle style="fill:#8088A0;" cx="256" cy="139.36" r="26.325"/>
<path style="fill:#5C9CEE;" d="M194.688,82.572h122.624C298.237,48.598,256,25.713,256,25.713S213.763,48.598,194.688,82.572z"/>
<path style="fill:#3580D3;" d="M293.41,82.572h23.902c-15.779-28.104-47.405-48.618-57.864-54.869
	c-0.027-0.016-0.053-0.032-0.079-0.047c-0.558-0.333-1.054-0.625-1.483-0.874c-0.012-0.007-0.026-0.015-0.038-0.022
	c-0.124-0.072-0.239-0.139-0.351-0.203c-0.037-0.021-0.074-0.043-0.109-0.063c-0.104-0.06-0.203-0.116-0.295-0.169
	c-0.04-0.022-0.077-0.043-0.114-0.065c-0.081-0.046-0.163-0.092-0.234-0.133c-0.097-0.055-0.188-0.106-0.266-0.15
	c-0.045-0.025-0.08-0.044-0.119-0.066c-0.042-0.023-0.087-0.048-0.122-0.067c-0.03-0.017-0.057-0.032-0.081-0.045
	c-0.025-0.014-0.047-0.026-0.066-0.037c-0.021-0.011-0.044-0.024-0.057-0.031s-0.031-0.017-0.031-0.017
	S281.771,48.598,293.41,82.572z"/>
<path style="fill:#FCAB29;" d="M237.228,326.485c0,14.488,7.475,27.223,18.772,34.582c11.297-7.36,18.771-20.094,18.771-34.582
	s-7.475-27.223-18.771-34.582C244.703,299.262,237.228,311.997,237.228,326.485z"/>
<g>
</g>
<g>
</g>
<g>
</g>
<g>
</g>
<g>
</g>
<g>
</g>
<g>
</g>
<g>
</g>
<g>
</g>
<g>
</g>
<g>
</g>
<g>
</g>
<g>
</g>
<g>
</g>
<g>
</g>
</svg>
