<?xml version="1.0" encoding="iso-8859-1"?>
<!-- Generator: Adobe Illustrator 19.0.0, SVG Export Plug-In . SVG Version: 6.00 Build 0)  -->
<svg version="1.1" id="Capa_1" xmlns="http://www.w3.org/2000/svg" xmlns:xlink="http://www.w3.org/1999/xlink" x="0px" y="0px"
	 viewBox="0 0 511.999 511.999" style="enable-background:new 0 0 511.999 511.999;" xml:space="preserve">
<path style="fill:#1B3D66;" d="M255.999,0c-60.08,0-108.96,48.88-108.96,108.96c0,36.16,17.88,69.89,47.83,90.23
	c18.07,12.27,39.21,18.75,61.13,18.75s43.06-6.48,61.13-18.75c29.95-20.34,47.83-54.07,47.83-90.23
	C364.959,48.88,316.079,0,255.999,0z"/>
<path style="fill:#5C9CEE;" d="M349.959,108.96c0,30.19-14.44,58.41-38.79,76.09c-0.81,0.59-1.63,1.17-2.46,1.73
	c-15.19,10.31-32.89,15.88-51.3,16.14c-0.47,0.02-0.94,0.02-1.41,0.02s-0.94,0-1.41-0.02c-18.41-0.26-36.11-5.83-51.3-16.14
	c-0.83-0.56-1.65-1.14-2.46-1.73c-24.35-17.68-38.79-45.9-38.79-76.09c0-51.81,42.15-93.96,93.96-93.96
	S349.959,57.15,349.959,108.96z"/>
<path style="fill:#3580D3;" d="M288.88,20.942c27.29,16.459,45.579,46.392,45.579,80.518c0,30.19-14.44,58.41-38.79,76.09
	c-0.81,0.59-1.63,1.17-2.46,1.73c-15.19,10.31-32.89,15.88-51.3,16.14c-0.47,0.02-0.94,0.02-1.41,0.02s-0.94,0-1.41-0.02
	c-10.886-0.154-21.518-2.178-31.535-5.927c14.197,8.564,30.32,13.191,47.035,13.427c0.47,0.02,0.94,0.02,1.41,0.02
	c0.47,0,0.94,0,1.41-0.02c18.41-0.26,36.11-5.83,51.3-16.14c0.83-0.56,1.65-1.14,2.46-1.73c24.35-17.68,38.79-45.9,38.79-76.09
	C349.959,68.712,324.521,34.3,288.88,20.942z"/>
<path style="fill:#F9C295;" d="M255.999,41.065L255.999,41.065c-21.233,0-38.445,17.213-38.445,38.445v18.535
	c0,21.233,17.213,38.445,38.445,38.445l0,0c21.233,0,38.445-17.213,38.445-38.445V79.511
	C294.444,58.278,277.232,41.065,255.999,41.065z"/>
<path style="fill:#444966;" d="M311.169,185.05c-0.81,0.59-1.63,1.17-2.46,1.73c-15.19,10.31-32.89,15.88-51.3,16.14
	c-0.47,0.02-0.94,0.02-1.41,0.02s-0.94,0-1.41-0.02c-18.41-0.26-36.11-5.83-51.3-16.14c-0.83-0.56-1.65-1.14-2.46-1.73
	c4-12.22,13.63-21.87,25.82-25.96l-0.01-0.02c0.45-0.15,0.9-0.29,1.35-0.42c0.07-0.03,0.15-0.05,0.22-0.07
	c0.08-0.03,0.15-0.05,0.23-0.07c0.43-0.11,0.87-0.23,1.31-0.35c0.36-0.08,0.72-0.17,1.08-0.24c0.16-0.04,0.31-0.07,0.47-0.1
	c0.03-0.01,0.06-0.01,0.08-0.02c0.26-0.06,0.52-0.1,0.78-0.15c0.27-0.05,0.53-0.09,0.79-0.14c0.13-0.02,0.26-0.04,0.39-0.07
	c0.35-0.05,0.71-0.1,1.07-0.15c0.08-0.01,0.16-0.02,0.24-0.03c0.53-0.06,1.05-0.12,1.59-0.16c0.52-0.04,1.04-0.08,1.57-0.1
	c0.11,0,0.21-0.01,0.32-0.01c0.49-0.021,0.98-0.03,1.47-0.03h32.8c0.49,0,0.98,0.01,1.47,0.03c0.11,0,0.21,0.01,0.32,0.01
	c0.53,0.02,1.05,0.06,1.57,0.1c0.54,0.04,1.06,0.1,1.59,0.16c0.08,0.01,0.16,0.02,0.24,0.03c0.36,0.05,0.72,0.1,1.07,0.15
	c0.13,0.03,0.26,0.05,0.39,0.07c0.26,0.05,0.52,0.09,0.79,0.14c0.26,0.05,0.52,0.09,0.78,0.15c0.02,0.01,0.05,0.01,0.08,0.02
	c0.16,0.03,0.31,0.06,0.47,0.1c0.36,0.07,0.72,0.16,1.08,0.24c0.44,0.12,0.88,0.24,1.31,0.35c0.08,0.02,0.15,0.04,0.23,0.07
	c0.07,0.02,0.15,0.04,0.22,0.07c0.45,0.13,0.9,0.27,1.35,0.42l-0.01,0.02C297.539,163.18,307.169,172.83,311.169,185.05z"/>
<path style="fill:#2E344C;" d="M295.669,177.55c-0.81,0.59-1.63,1.17-2.46,1.73c-15.19,10.31-32.89,15.88-51.3,16.14
	c-0.47,0.02-0.94,0.02-1.41,0.02s-0.94,0-1.41-0.02c-10.885-0.154-21.518-2.178-31.535-5.927c0.002,0.001,0.003,0.002,0.005,0.003
	c6.948,4.19,14.36,7.432,22.074,9.683c0.221,0.064,0.441,0.133,0.663,0.195c0.713,0.203,1.43,0.391,2.149,0.576
	c0.34,0.087,0.68,0.177,1.022,0.261c0.651,0.16,1.304,0.31,1.959,0.457c0.416,0.093,0.833,0.184,1.25,0.271
	c0.606,0.126,1.213,0.247,1.822,0.361c0.477,0.089,0.955,0.174,1.434,0.257c0.566,0.098,1.133,0.192,1.702,0.279
	c0.533,0.082,1.068,0.155,1.604,0.228c0.526,0.071,1.052,0.143,1.58,0.206c0.597,0.071,1.197,0.13,1.796,0.189
	c0.476,0.047,0.951,0.098,1.429,0.138c0.697,0.058,1.397,0.101,2.097,0.144c0.388,0.023,0.774,0.055,1.163,0.074
	c1.093,0.053,2.188,0.09,3.287,0.106c0.47,0.02,0.94,0.02,1.41,0.02s0.94,0,1.41-0.02c18.41-0.26,36.11-5.83,51.3-16.14
	c0.83-0.56,1.65-1.14,2.46-1.73c-1.675-5.117-4.348-9.775-7.773-13.771C300.944,173.489,298.371,175.588,295.669,177.55z"/>
<path style="fill:#EBEEF2;" d="M285.359,159.07l-0.01,0.02l-27.94,43.83c-0.47,0.02-0.94,0.02-1.41,0.02s-0.94,0-1.41-0.02
	l-27.94-43.83l-0.01-0.02c0.45-0.15,0.9-0.29,1.35-0.42c0.07-0.03,0.15-0.05,0.22-0.07c0.86-0.25,1.74-0.47,2.62-0.66
	c0.16-0.04,0.31-0.07,0.47-0.1c0.03-0.01,0.06-0.01,0.08-0.02c0.26-0.06,0.52-0.1,0.78-0.15c0.39-0.08,0.78-0.15,1.18-0.21
	c0.35-0.05,0.71-0.1,1.07-0.15c0.08-0.01,0.16-0.02,0.24-0.03c0.53-0.06,1.05-0.12,1.59-0.16c0.52-0.04,1.04-0.08,1.57-0.1
	c0.11,0,0.21-0.01,0.32-0.01c0.49-0.021,0.98-0.03,1.47-0.03h32.8c0.49,0,0.98,0.01,1.47,0.03c0.11,0,0.21,0.01,0.32,0.01
	c0.53,0.02,1.05,0.06,1.57,0.1c0.54,0.04,1.06,0.1,1.59,0.16c0.08,0.01,0.16,0.02,0.24,0.03c0.36,0.05,0.72,0.1,1.07,0.15
	c0.4,0.06,0.79,0.13,1.18,0.21c0.26,0.05,0.52,0.09,0.78,0.15c0.02,0.01,0.05,0.01,0.08,0.02c0.16,0.03,0.31,0.06,0.47,0.1
	c0.88,0.19,1.76,0.41,2.62,0.66c0.07,0.02,0.15,0.04,0.22,0.07C284.459,158.78,284.909,158.92,285.359,159.07z"/>
<path style="fill:#D1D6DE;" d="M249.537,194.995l5.052,7.925c0.47,0.02,0.94,0.02,1.41,0.02s0.94,0,1.41-0.02l6.68-10.479
	C259.332,193.669,254.471,194.526,249.537,194.995z"/>
<g>
	<path style="fill:#444966;" d="M281.013,50.334c0-0.002,0.001-0.003,0.001-0.005c-0.071-0.061-0.145-0.118-0.217-0.178
		c-0.295-0.249-0.592-0.494-0.894-0.734c-0.138-0.109-0.277-0.217-0.416-0.325c-0.277-0.214-0.556-0.424-0.839-0.631
		c-0.165-0.121-0.33-0.24-0.497-0.358c-0.259-0.183-0.52-0.362-0.784-0.538c-0.194-0.13-0.388-0.259-0.583-0.386
		c-0.237-0.152-0.476-0.3-0.716-0.447c-0.227-0.139-0.454-0.279-0.684-0.414c-0.203-0.119-0.409-0.233-0.614-0.348
		c-0.27-0.152-0.54-0.304-0.815-0.45c-0.141-0.075-0.285-0.145-0.427-0.218c-5.257-2.703-11.211-4.238-17.529-4.238
		c-21.233,0-38.445,17.213-38.445,38.445v3.554c5.661,2.498,11.917,3.895,18.502,3.895c13.524,0,25.674-5.856,34.073-15.163
		c5.311,8.183,14.121,13.886,24.316,14.971v-7.257C294.444,67.834,289.232,57.382,281.013,50.334z"/>
	<path style="fill:#444966;" d="M433.957,261.552H263.499v-13.968c0-4.143-3.357-7.5-7.5-7.5s-7.5,3.357-7.5,7.5v13.968H78.041
		c-4.143,0-7.5,3.357-7.5,7.5v34.588c0,4.143,3.357,7.5,7.5,7.5s7.5-3.357,7.5-7.5v-27.088h162.958v27.088
		c0,4.143,3.357,7.5,7.5,7.5s7.5-3.357,7.5-7.5v-27.088h162.958v27.088c0,4.143,3.357,7.5,7.5,7.5s7.5-3.357,7.5-7.5v-34.588
		C441.457,264.909,438.1,261.552,433.957,261.552z"/>
</g>
<path style="fill:#FCD0AE;" d="M433.957,426.599L433.957,426.599c-19.895,0-36.023-16.128-36.023-36.023v-23.445
	c0-18.444,14.952-33.396,33.396-33.396h5.255c18.444,0,33.396,14.952,33.396,33.396v23.445
	C469.979,410.471,453.852,426.599,433.957,426.599z"/>
<path style="fill:#444966;" d="M448.263,447.254H419.65c-19.656,0-35.59,15.934-35.59,35.59v26.379c0,1.533,1.243,2.776,2.776,2.776
	h94.242c1.533,0,2.776-1.243,2.776-2.776v-26.379C483.854,463.189,467.919,447.254,448.263,447.254z"/>
<path style="fill:#FCAB29;" d="M436.584,333.736h-5.254c-18.444,0-33.396,14.952-33.396,33.396v6.387
	c16.626,4.924,42.477-3.327,49.729-13.755c2.613,8.051,13.609,13.191,22.317,15.536v-8.168
	C469.979,348.687,455.028,333.736,436.584,333.736z"/>
<path style="fill:#FCD0AE;" d="M255.999,426.599L255.999,426.599c-19.895,0-36.023-16.128-36.023-36.023v-23.445
	c0-18.444,14.952-33.396,33.396-33.396h5.255c18.444,0,33.396,14.952,33.396,33.396v23.445
	C292.022,410.471,275.894,426.599,255.999,426.599z"/>
<path style="fill:#444966;" d="M270.306,447.254h-28.613c-19.656,0-35.59,15.934-35.59,35.59v26.379
	c0,1.533,1.243,2.776,2.776,2.776h94.242c1.533,0,2.776-1.243,2.776-2.776v-26.379C305.896,463.189,289.962,447.254,270.306,447.254
	z"/>
<path style="fill:#FCAB29;" d="M258.626,333.736h-5.254c-18.444,0-33.396,14.952-33.396,33.396v6.387
	c16.626,4.924,42.477-3.327,49.729-13.755c2.613,8.051,13.609,13.191,22.317,15.536v-8.168
	C292.022,348.687,277.07,333.736,258.626,333.736z"/>
<path style="fill:#FCD0AE;" d="M78.041,426.599L78.041,426.599c-19.895,0-36.023-16.128-36.023-36.023v-23.445
	c0-18.444,14.952-33.396,33.396-33.396h5.255c18.444,0,33.396,14.952,33.396,33.396v23.445
	C114.064,410.471,97.936,426.599,78.041,426.599z"/>
<path style="fill:#444966;" d="M92.348,447.254H63.735c-19.656,0-35.59,15.934-35.59,35.59v26.379c0,1.533,1.243,2.776,2.776,2.776
	h94.242c1.533,0,2.776-1.243,2.776-2.776v-26.379C127.938,463.189,112.004,447.254,92.348,447.254z"/>
<path style="fill:#FCAB29;" d="M80.669,333.736h-5.254c-18.444,0-33.396,14.952-33.396,33.396v6.387
	c16.626,4.924,42.477-3.327,49.729-13.755c2.613,8.051,13.609,13.191,22.317,15.536v-8.168
	C114.064,348.687,99.113,333.736,80.669,333.736z"/>
<g>
</g>
<g>
</g>
<g>
</g>
<g>
</g>
<g>
</g>
<g>
</g>
<g>
</g>
<g>
</g>
<g>
</g>
<g>
</g>
<g>
</g>
<g>
</g>
<g>
</g>
<g>
</g>
<g>
</g>
</svg>
