<?xml version="1.0" encoding="iso-8859-1"?>
<!-- Generator: Adobe Illustrator 19.0.0, SVG Export Plug-In . SVG Version: 6.00 Build 0)  -->
<svg version="1.1" id="Capa_1" xmlns="http://www.w3.org/2000/svg" xmlns:xlink="http://www.w3.org/1999/xlink" x="0px" y="0px"
	 viewBox="0 0 512 512" style="enable-background:new 0 0 512 512;" xml:space="preserve">
<path style="fill:#EBEEF2;" d="M362.132,0H61.065c-13.59,0-24.646,11.056-24.646,24.646v436.188
	c0,13.59,11.056,24.646,24.646,24.646H362.13c13.589,0,24.646-11.056,24.646-24.646V24.646C386.776,11.056,375.72,0,362.132,0z"/>
<path style="fill:#D1D6DE;" d="M362.132,0h-28.285c13.589,0,24.646,11.056,24.646,24.646v436.188
	c0,13.59-11.056,24.646-24.646,24.646h28.285c13.589,0,24.646-11.056,24.646-24.646V24.646C386.776,11.056,375.72,0,362.132,0z"/>
<g>
	<path style="fill:#656D88;" d="M319.089,225.167H104.107c-4.142,0-7.5-3.357-7.5-7.5s3.358-7.5,7.5-7.5h214.982
		c4.142,0,7.5,3.357,7.5,7.5S323.231,225.167,319.089,225.167z"/>
	<path style="fill:#656D88;" d="M319.089,288.277H104.107c-4.142,0-7.5-3.357-7.5-7.5s3.358-7.5,7.5-7.5h214.982
		c4.142,0,7.5,3.357,7.5,7.5S323.231,288.277,319.089,288.277z"/>
	<path style="fill:#656D88;" d="M319.089,351.389H104.107c-4.142,0-7.5-3.357-7.5-7.5s3.358-7.5,7.5-7.5h214.982
		c4.142,0,7.5,3.357,7.5,7.5S323.231,351.389,319.089,351.389z"/>
	<path style="fill:#656D88;" d="M319.089,414.5H104.107c-4.142,0-7.5-3.357-7.5-7.5s3.358-7.5,7.5-7.5h214.982
		c4.142,0,7.5,3.357,7.5,7.5S323.231,414.5,319.089,414.5z"/>
	<path style="fill:#656D88;" d="M139.252,145.228c-2.612,0-5.149-1.365-6.53-3.8c-2.044-3.603-0.781-8.18,2.821-10.225
		l31.564-17.911c3.602-2.044,8.181-0.781,10.225,2.822s0.781,8.18-2.821,10.225l-31.564,17.911
		C141.778,144.913,140.506,145.228,139.252,145.228z"/>
	<path style="fill:#656D88;" d="M227.373,145.228c-1.254,0-2.526-0.314-3.695-0.978l-31.564-17.911
		c-3.603-2.045-4.866-6.622-2.821-10.225s6.622-4.867,10.225-2.822l31.564,17.911c3.603,2.045,4.866,6.622,2.821,10.225
		C232.522,143.861,229.984,145.228,227.373,145.228z"/>
	<path style="fill:#656D88;" d="M248.248,140.645c-1.511,0-3.036-0.455-4.358-1.401c-3.369-2.411-4.146-7.096-1.735-10.464
		l39.829-55.66c2.411-3.367,7.096-4.146,10.463-1.735c3.369,2.411,4.146,7.096,1.735,10.464l-39.829,55.66
		C252.889,139.554,250.585,140.645,248.248,140.645z"/>
</g>
<path style="fill:#5C9CEE;" d="M126.742,122.949c-12.066,0-21.882,9.816-21.882,21.882s9.816,21.883,21.882,21.883
	s21.882-9.816,21.882-21.883C148.625,132.766,138.808,122.949,126.742,122.949z"/>
<path style="fill:#9FD479;" d="M296.454,43.915c-12.066,0-21.882,9.816-21.882,21.883c0,12.065,9.816,21.882,21.882,21.882
	s21.882-9.816,21.882-21.882C318.336,53.731,308.52,43.915,296.454,43.915z"/>
<path style="fill:#F2DF33;" d="M183.313,90.828c-12.066,0-21.883,9.816-21.883,21.883c0,12.065,9.816,21.882,21.883,21.882
	c12.066,0,21.882-9.816,21.882-21.882S195.379,90.828,183.313,90.828z"/>
<path style="fill:#ED5575;" d="M239.883,122.949c-12.066,0-21.882,9.816-21.882,21.882s9.816,21.883,21.882,21.883
	s21.882-9.816,21.882-21.883C261.766,132.766,251.949,122.949,239.883,122.949z"/>
<path style="fill:#5C9CEE;" d="M469.22,391.98l-16.1-2.46c-0.91-2.57-1.95-5.08-3.12-7.53l9.64-13.12c2.19-2.99,1.88-7.13-0.74-9.75
	l-23.05-23.05c-2.62-2.61-6.76-2.93-9.74-0.74l-13.13,9.64c-2.45-1.17-4.96-2.21-7.53-3.12l-2.46-16.09
	c-0.56-3.67-3.71-6.37-7.42-6.37h-32.59c-3.71,0-6.85,2.7-7.42,6.37l-2.46,16.09c-2.57,0.91-5.08,1.95-7.53,3.12l-13.12-9.64
	c-2.99-2.19-7.13-1.87-9.75,0.74l-23.05,23.05c-2.61,2.62-2.93,6.76-0.74,9.75l9.64,13.12c-1.16,2.45-2.21,4.96-3.11,7.53
	l-16.1,2.46c-3.66,0.56-6.37,3.71-6.37,7.42v32.59c0,3.71,2.71,6.86,6.37,7.42l16.1,2.46c0.9,2.57,1.95,5.08,3.11,7.53l-9.64,13.13
	c-2.19,2.98-1.87,7.12,0.74,9.74l23.05,23.05c2.62,2.62,6.76,2.93,9.75,0.74l13.12-9.64c2.45,1.17,4.96,2.21,7.53,3.12l2.46,16.09
	c0.57,3.67,3.71,6.37,7.42,6.37h32.59c3.71,0,6.86-2.7,7.42-6.37l2.46-16.09c2.57-0.91,5.08-1.95,7.53-3.12l13.13,9.64
	c2.98,2.19,7.12,1.87,9.74-0.74l23.05-23.05c2.62-2.62,2.93-6.76,0.74-9.74L450,449.4c1.17-2.45,2.21-4.96,3.12-7.53l16.1-2.46
	c3.66-0.56,6.36-3.71,6.36-7.42V399.4C475.581,395.69,472.882,392.54,469.22,391.98z M423.681,415.7c0,24.52-19.88,44.4-44.4,44.4
	c-24.53,0-44.41-19.88-44.41-44.4c0-24.53,19.88-44.41,44.41-44.41C403.801,371.29,423.681,391.17,423.681,415.7z"/>
<path style="fill:#ED5575;" d="M303.061,291.75l-12.33-3.45c-0.75-1.61-1.58-3.19-2.46-4.73c-0.89-1.54-1.85-3.05-2.87-4.5
	l3.18-12.41c0.84-3.26-0.6-6.68-3.51-8.36l-25.13-14.51c-2.92-1.68-6.6-1.21-9,1.14l-9.16,8.96c-3.55-0.32-7.12-0.32-10.66-0.01
	l-9.15-8.95c-2.4-2.35-6.08-2.82-9-1.14l-25.12,14.51c-2.92,1.68-4.36,5.1-3.52,8.36l3.18,12.4c-2.04,2.91-3.82,6-5.32,9.24
	l-12.34,3.45c-3.24,0.9-5.49,3.86-5.49,7.22v29.021c0,3.36,2.25,6.32,5.49,7.22l12.33,3.45c0.75,1.61,1.58,3.19,2.47,4.73
	c0.88,1.54,1.84,3.04,2.86,4.5l-3.18,12.41c-0.84,3.26,0.6,6.68,3.52,8.36l25.12,14.51c2.92,1.68,6.6,1.22,9-1.14l9.16-8.96
	c3.55,0.32,7.12,0.32,10.66,0.01l9.15,8.95c1.44,1.41,3.33,2.14,5.25,2.14c1.28,0,2.58-0.33,3.75-1l25.13-14.51
	c2.91-1.68,4.35-5.1,3.51-8.36l-3.18-12.4c2.04-2.91,3.83-6,5.32-9.24l12.34-3.45c3.25-0.9,5.49-3.86,5.49-7.22V298.97
	C308.551,295.61,306.311,292.65,303.061,291.75z M250.951,338.59c-13.87,8-31.6,3.25-39.6-10.61c-8.01-13.87-3.26-31.6,10.61-39.61
	s31.6-3.25,39.6,10.61C269.572,312.85,264.822,330.58,250.951,338.59z"/>
<g>
</g>
<g>
</g>
<g>
</g>
<g>
</g>
<g>
</g>
<g>
</g>
<g>
</g>
<g>
</g>
<g>
</g>
<g>
</g>
<g>
</g>
<g>
</g>
<g>
</g>
<g>
</g>
<g>
</g>
</svg>
