<?xml version="1.0" encoding="iso-8859-1"?>
<!-- Generator: Adobe Illustrator 19.0.0, SVG Export Plug-In . SVG Version: 6.00 Build 0)  -->
<svg version="1.1" id="Capa_1" xmlns="http://www.w3.org/2000/svg" xmlns:xlink="http://www.w3.org/1999/xlink" x="0px" y="0px"
	 viewBox="0 0 512 512" style="enable-background:new 0 0 512 512;" xml:space="preserve">
<path style="fill:#EBEEF2;" d="M408.29,61.114H39.394C17.672,61.114,0,78.786,0,100.508v294.659
	c0,21.721,17.672,39.393,39.394,39.393H408.29c21.722,0,39.394-17.672,39.394-39.393V100.508
	C447.684,78.786,430.012,61.114,408.29,61.114z"/>
<path style="fill:#D1D6DE;" d="M408.29,61.114h-29.981c21.722,0,39.394,17.672,39.394,39.394v294.659
	c0,21.721-17.672,39.393-39.394,39.393h29.981c21.722,0,39.394-17.672,39.394-39.393V100.508
	C447.684,78.786,430.012,61.114,408.29,61.114z"/>
<path style="fill:#ED5575;" d="M408.29,61.114H39.394C17.672,61.114,0,78.786,0,100.508v49.952h447.684v-49.952
	C447.684,78.786,430.012,61.114,408.29,61.114z"/>
<path style="fill:#CC3A60;" d="M408.29,61.114h-29.981c21.722,0,39.394,17.672,39.394,39.394v49.952h29.981v-49.952
	C447.684,78.786,430.012,61.114,408.29,61.114z"/>
<g>
	<path style="fill:#F2DF33;" d="M117.874,31.714c-9.004,0-16.303,7.299-16.303,16.303v41.417c0,9.004,7.299,16.303,16.303,16.303
		s16.303-7.299,16.303-16.303V48.017C134.176,39.013,126.878,31.714,117.874,31.714z"/>
	<path style="fill:#F2DF33;" d="M329.81,31.714c-9.004,0-16.303,7.299-16.303,16.303v41.417c0,9.004,7.299,16.303,16.303,16.303
		s16.303-7.299,16.303-16.303V48.017C346.113,39.013,338.814,31.714,329.81,31.714z"/>
</g>
<path style="fill:#ED5575;" d="M389.687,372.039H282.21c-4.204,0-7.612-3.407-7.612-7.612s3.408-7.611,7.612-7.611h107.478
	c4.204,0,7.611,3.407,7.611,7.611S393.892,372.039,389.687,372.039z"/>
<path style="fill:#48CFB7;" d="M192.846,220.593H57.996c-4.204,0-7.611-3.407-7.611-7.611c0-4.205,3.408-7.611,7.611-7.611h134.85
	c4.204,0,7.611,3.407,7.611,7.611C200.457,217.186,197.049,220.593,192.846,220.593z"/>
<path style="fill:#5C9CEE;" d="M282.21,296.316h-89.364c-4.204,0-7.611-3.407-7.611-7.611c0-4.205,3.408-7.612,7.611-7.612h89.364
	c4.204,0,7.612,3.407,7.612,7.612C289.821,292.91,286.414,296.316,282.21,296.316z"/>
<g>
	<path style="fill:#1B3D66;" d="M57.996,239.545c-4.204,0-7.611-3.407-7.611-7.611V194.03c0-4.205,3.408-7.611,7.611-7.611
		s7.611,3.407,7.611,7.611v37.903C65.607,236.138,62.2,239.545,57.996,239.545z"/>
	<path style="fill:#1B3D66;" d="M192.846,239.545c-4.204,0-7.611-3.407-7.611-7.611V194.03c0-4.205,3.408-7.611,7.611-7.611
		c4.204,0,7.611,3.407,7.611,7.611v37.903C200.457,236.138,197.05,239.545,192.846,239.545z"/>
	<path style="fill:#1B3D66;" d="M192.846,315.267c-4.204,0-7.611-3.407-7.611-7.611v-37.903c0-4.205,3.408-7.611,7.611-7.611
		c4.204,0,7.611,3.407,7.611,7.611v37.903C200.457,311.86,197.05,315.267,192.846,315.267z"/>
	<path style="fill:#1B3D66;" d="M282.21,315.267c-4.204,0-7.612-3.407-7.612-7.611v-37.903c0-4.205,3.408-7.611,7.612-7.611
		s7.612,3.407,7.612,7.611v37.903C289.821,311.86,286.414,315.267,282.21,315.267z"/>
	<path style="fill:#1B3D66;" d="M282.21,390.99c-4.204,0-7.612-3.407-7.612-7.612v-37.903c0-4.205,3.408-7.611,7.612-7.611
		s7.612,3.407,7.612,7.611v37.903C289.821,387.582,286.414,390.99,282.21,390.99z"/>
</g>
<path d="M389.688,390.99c-4.204,0-7.612-3.407-7.612-7.612v-37.903c0-4.205,3.408-7.611,7.612-7.611
	c4.204,0,7.611,3.407,7.611,7.611v37.903C397.3,387.582,393.892,390.99,389.688,390.99z"/>
<g>
	<path style="fill:#656D88;" d="M466.816,346.962c-1.948,0-3.896-0.743-5.382-2.23c-2.973-2.973-2.973-7.792,0-10.764l14.754-14.753
		c2.973-2.972,7.792-2.973,10.764,0.001c2.973,2.973,2.973,7.792,0,10.764l-14.754,14.753
		C470.712,346.218,468.764,346.962,466.816,346.962z"/>
	<path style="fill:#656D88;" d="M412.593,324.502c-4.204,0-7.612-3.407-7.612-7.611v-27.775c0-4.205,3.408-7.612,7.612-7.612
		s7.611,3.407,7.611,7.612v27.775C420.204,321.095,416.796,324.502,412.593,324.502z"/>
</g>
<circle style="fill:#93C4F9;" cx="412.594" cy="394.783" r="77.891"/>
<path style="fill:#3580D3;" d="M425.409,317.958c25.043,12.952,42.172,39.072,42.172,69.212c0,43.018-34.873,77.891-77.891,77.891
	c-4.367,0-8.645-0.377-12.816-1.068c10.702,5.535,22.841,8.68,35.72,8.68c43.018,0,77.891-34.873,77.891-77.891
	C490.484,356.132,462.326,324.073,425.409,317.958z"/>
<path style="fill:#1B3D66;" d="M412.593,480.285c-47.147,0-85.502-38.356-85.502-85.502s38.356-85.504,85.502-85.504
	s85.502,38.357,85.502,85.504S459.739,480.285,412.593,480.285z M412.593,324.502c-38.753,0-70.279,31.527-70.279,70.281
	c0,38.753,31.527,70.279,70.279,70.279s70.279-31.527,70.279-70.279C482.872,356.029,451.346,324.502,412.593,324.502z"/>
<path style="fill:#ED5575;" d="M423.693,391.294c-1.948,0-3.896-0.743-5.382-2.229c-2.973-2.974-2.973-7.792,0-10.765l23.618-23.618
	c2.973-2.972,7.792-2.972,10.764,0c2.973,2.974,2.973,7.792,0,10.765l-23.618,23.618C427.59,390.55,425.641,391.294,423.693,391.294
	z"/>
<path style="fill:#48CFB7;" d="M431.601,255.907h-38.017c-6.759,0-12.239,5.479-12.239,12.239v8.732
	c0,6.759,5.479,12.239,12.239,12.239h38.017c6.759,0,12.239-5.479,12.239-12.239v-8.732
	C443.84,261.386,438.36,255.907,431.601,255.907z"/>
<path style="fill:#ED5575;" d="M509.308,317.054l-20.194-20.194c-3.591-3.591-9.412-3.591-13.002,0l-4.638,4.638
	c-3.591,3.591-3.591,9.412,0,13.003l20.194,20.194c3.591,3.591,9.412,3.591,13.002,0l4.638-4.638
	C512.897,326.466,512.897,320.645,509.308,317.054z"/>
<path style="fill:#F2DF33;" d="M412.593,371.471c-12.853,0-23.31,10.457-23.31,23.311c0,12.853,10.457,23.31,23.31,23.31
	s23.31-10.457,23.31-23.31C435.903,381.929,425.446,371.471,412.593,371.471z"/>
<g>
</g>
<g>
</g>
<g>
</g>
<g>
</g>
<g>
</g>
<g>
</g>
<g>
</g>
<g>
</g>
<g>
</g>
<g>
</g>
<g>
</g>
<g>
</g>
<g>
</g>
<g>
</g>
<g>
</g>
</svg>
