<?xml version="1.0" encoding="iso-8859-1"?>
<!-- Generator: Adobe Illustrator 19.0.0, SVG Export Plug-In . SVG Version: 6.00 Build 0)  -->
<svg version="1.1" id="Capa_1" xmlns="http://www.w3.org/2000/svg" xmlns:xlink="http://www.w3.org/1999/xlink" x="0px" y="0px"
	 viewBox="0 0 512 512" style="enable-background:new 0 0 512 512;" xml:space="preserve">
<path style="fill:#656D88;" d="M255.488,69.962c-4.204,0-7.611-3.407-7.611-7.611V7.611c0-4.204,3.408-7.611,7.611-7.611
	c4.204,0,7.612,3.407,7.612,7.611V62.35C263.1,66.555,259.692,69.962,255.488,69.962z"/>
<path style="fill:#5C9CEE;" d="M44.349,274.994V512h122.513V268.905H50.438C47.075,268.905,44.349,271.631,44.349,274.994z"/>
<g>
	<path style="fill:#48CFB7;" d="M127.436,324.704H83.775c-4.204,0-7.611-3.407-7.611-7.612s3.408-7.611,7.611-7.611h43.662
		c4.204,0,7.612,3.407,7.612,7.611S131.64,324.704,127.436,324.704z"/>
	<path style="fill:#48CFB7;" d="M127.436,373.611H83.775c-4.204,0-7.611-3.407-7.611-7.611s3.408-7.612,7.611-7.612h43.662
		c4.204,0,7.612,3.407,7.612,7.612S131.64,373.611,127.436,373.611z"/>
	<path style="fill:#48CFB7;" d="M127.436,422.517H83.775c-4.204,0-7.611-3.407-7.611-7.611s3.408-7.612,7.611-7.612h43.662
		c4.204,0,7.612,3.407,7.612,7.612S131.64,422.517,127.436,422.517z"/>
	<path style="fill:#48CFB7;" d="M127.436,471.424H83.775c-4.204,0-7.611-3.407-7.611-7.612s3.408-7.611,7.611-7.611h43.662
		c4.204,0,7.612,3.407,7.612,7.611S131.64,471.424,127.436,471.424z"/>
</g>
<path style="fill:#5C9CEE;" d="M345.138,268.905V512h122.513V274.994c0-3.363-2.726-6.089-6.089-6.089H345.138z"/>
<rect x="345.14" y="268.9" style="fill:#3580D3;" width="63.27" height="243.09"/>
<g>
	<path style="fill:#48CFB7;" d="M428.225,324.704h-43.661c-4.204,0-7.612-3.407-7.612-7.612s3.407-7.611,7.612-7.611h43.661
		c4.204,0,7.612,3.407,7.612,7.611S432.429,324.704,428.225,324.704z"/>
	<path style="fill:#48CFB7;" d="M428.225,373.611h-43.661c-4.204,0-7.612-3.407-7.612-7.611s3.407-7.612,7.612-7.612h43.661
		c4.204,0,7.612,3.407,7.612,7.612S432.429,373.611,428.225,373.611z"/>
	<path style="fill:#48CFB7;" d="M428.225,422.517h-43.661c-4.204,0-7.612-3.407-7.612-7.611s3.407-7.612,7.612-7.612h43.661
		c4.204,0,7.612,3.407,7.612,7.612S432.429,422.517,428.225,422.517z"/>
	<path style="fill:#48CFB7;" d="M428.225,471.424h-43.661c-4.204,0-7.612-3.407-7.612-7.612s3.407-7.611,7.612-7.611h43.661
		c4.204,0,7.612,3.407,7.612,7.611S432.429,471.424,428.225,471.424z"/>
</g>
<path style="fill:#EBEEF2;" d="M332.199,160.101v-39.935c0-3.363-2.726-6.089-6.089-6.089H185.89c-3.363,0-6.089,2.726-6.089,6.089
	v39.935h-46.275c-3.363,0-6.089,2.726-6.089,6.089V512h257.128V166.19c0-3.363-2.726-6.089-6.089-6.089H332.199z"/>
<g>
	<path style="fill:#D1D6DE;" d="M360.714,160.101V512h23.849V166.19c0-3.363-2.726-6.089-6.089-6.089H360.714z"/>
	<path style="fill:#D1D6DE;" d="M332.199,160.101v-39.935c0-3.363-2.726-6.089-6.089-6.089h-17.76v46.024H332.199z"/>
	<path style="fill:#D1D6DE;" d="M217.692,68.441v45.637h75.593V68.441c0-3.363-2.726-6.089-6.089-6.089h-63.415
		C220.418,62.351,217.692,65.078,217.692,68.441z"/>
</g>
<path style="fill:#B8BFC9;" d="M269.436,62.351v51.726h23.849V68.441c0-3.363-2.726-6.089-6.089-6.089L269.436,62.351
	L269.436,62.351z"/>
<g>
	<path style="fill:#48CFB7;" d="M162.971,204.687v18.583c0,1.681,1.363,3.045,3.045,3.045h179.97c1.681,0,3.045-1.363,3.045-3.045
		v-18.583c0-1.681-1.363-3.045-3.045-3.045h-179.97C164.334,201.643,162.971,203.006,162.971,204.687z"/>
	<path style="fill:#48CFB7;" d="M162.971,280.151v18.583c0,1.681,1.363,3.045,3.045,3.045h179.97c1.681,0,3.045-1.363,3.045-3.045
		v-18.583c0-1.681-1.363-3.045-3.045-3.045h-179.97C164.334,277.107,162.971,278.47,162.971,280.151z"/>
	<path style="fill:#48CFB7;" d="M162.971,355.615v18.583c0,1.681,1.363,3.045,3.045,3.045h179.97c1.681,0,3.045-1.363,3.045-3.045
		v-18.583c0-1.681-1.363-3.045-3.045-3.045h-179.97C164.334,352.57,162.971,353.934,162.971,355.615z"/>
</g>
<rect x="225.89" y="427.26" style="fill:#ED5575;" width="60.22" height="84.74"/>
<g>
</g>
<g>
</g>
<g>
</g>
<g>
</g>
<g>
</g>
<g>
</g>
<g>
</g>
<g>
</g>
<g>
</g>
<g>
</g>
<g>
</g>
<g>
</g>
<g>
</g>
<g>
</g>
<g>
</g>
</svg>
