<?xml version="1.0" encoding="iso-8859-1"?>
<!-- Generator: Adobe Illustrator 19.0.0, SVG Export Plug-In . SVG Version: 6.00 Build 0)  -->
<svg version="1.1" id="Capa_1" xmlns="http://www.w3.org/2000/svg" xmlns:xlink="http://www.w3.org/1999/xlink" x="0px" y="0px"
	 viewBox="0 0 512 512" style="enable-background:new 0 0 512 512;" xml:space="preserve">
<path style="fill:#F29F5C;" d="M433.588,126.633H78.412c-34.222,0-62.063,27.842-62.063,62.063v220.688
	c0,34.222,27.842,62.063,62.063,62.063h355.176c34.222,0,62.063-27.842,62.063-62.063V188.696
	C495.651,154.475,467.81,126.633,433.588,126.633z"/>
<g>
	<path style="fill:#E08546;" d="M280.878,471.448h-31.756V136.042c0-4.783,3.877-8.66,8.66-8.66h14.435
		c4.783,0,8.66,3.877,8.66,8.66v335.406H280.878z"/>
	<path style="fill:#E08546;" d="M446.095,142.633H65.905c-15.341,0-29.463,5.284-40.675,14.107
		c-5.634,9.341-8.882,20.275-8.882,31.957v96.717c0.527,0.219,1.058,0.433,1.604,0.62c65.411,22.36,149.952,34.675,238.048,34.675
		s172.637-12.314,238.048-34.675c0.546-0.187,1.076-0.401,1.604-0.62v-96.717c0-11.681-3.248-22.616-8.882-31.957
		C475.557,147.917,461.436,142.633,446.095,142.633z"/>
	<path style="fill:#E08546;" d="M433.588,126.633h-29.806c34.222,0,62.063,27.842,62.063,62.063v220.688
		c0,34.222-27.842,62.063-62.063,62.063h29.806c34.222,0,62.063-27.842,62.063-62.063V188.696
		C495.651,154.475,467.81,126.633,433.588,126.633z"/>
</g>
<g>
	<path style="fill:#656D88;" d="M327.533,141.633c-4.143,0-7.5-3.357-7.5-7.5v-29.044c0-4.143,3.357-7.5,7.5-7.5s7.5,3.357,7.5,7.5
		v29.044C335.033,138.275,331.676,141.633,327.533,141.633z"/>
	<path style="fill:#656D88;" d="M184.467,141.633c-4.143,0-7.5-3.357-7.5-7.5v-29.044c0-4.143,3.357-7.5,7.5-7.5s7.5,3.357,7.5,7.5
		v29.044C191.967,138.275,188.609,141.633,184.467,141.633z"/>
</g>
<path style="fill:#F29F5C;" d="M302.525,40.552h-93.051c-25.95,0-46.986,21.036-46.986,46.986v14.551c0,4.418,3.582,8,8,8h27.956
	c4.418,0,8-3.582,8-8V87.538c0-1.674,1.357-3.03,3.03-3.03h93.051c1.674,0,3.03,1.357,3.03,3.03v14.551c0,4.418,3.582,8,8,8h27.956
	c4.418,0,8-3.582,8-8V87.538C349.512,61.588,328.475,40.552,302.525,40.552z"/>
<path style="fill:#F9C295;" d="M446.095,126.633H65.905C29.565,126.633,0,156.198,0,192.538v52.441
	c0,11.315,7.215,21.384,17.952,25.054c65.411,22.36,149.952,34.675,238.048,34.675s172.637-12.314,238.048-34.675
	c10.737-3.67,17.952-13.738,17.952-25.054v-52.441C512,156.198,482.435,126.633,446.095,126.633z"/>
<g>
	<path style="fill:#E59F6A;" d="M256,304.708c8.329,0,16.626-0.111,24.878-0.329V134.042c0-3.146-1.683-5.892-4.193-7.409h-23.37
		c-2.509,1.517-4.193,4.263-4.193,7.409v170.636C251.413,304.695,253.704,304.708,256,304.708z"/>
	<path style="fill:#E59F6A;" d="M446.095,126.633H429.54c30.979,5.185,54.76,33.978,54.76,68.616v55.264
		c0,11.924-7.093,22.535-17.649,26.402c-6.419,2.352-13.033,4.594-19.812,6.732c16.594-4.007,32.396-8.55,47.209-13.613
		C504.785,266.364,512,256.296,512,244.98v-52.441C512,156.198,482.435,126.633,446.095,126.633z"/>
</g>
<path style="fill:#5C9CEE;" d="M271.878,471.448h-31.756V135.042c0-4.783,3.877-8.66,8.66-8.66h14.435c4.783,0,8.66,3.877,8.66,8.66
	L271.878,471.448L271.878,471.448z"/>
<path style="fill:#F2DF33;" d="M285.806,285.833c0-16.462-13.345-29.807-29.806-29.807s-29.806,13.345-29.806,29.807
	c0,11.882,6.971,22.111,17.031,26.898v17.059c0,7.056,5.72,12.775,12.775,12.775c7.056,0,12.775-5.719,12.775-12.775v-17.059
	C278.835,307.943,285.806,297.715,285.806,285.833z"/>
<g>
</g>
<g>
</g>
<g>
</g>
<g>
</g>
<g>
</g>
<g>
</g>
<g>
</g>
<g>
</g>
<g>
</g>
<g>
</g>
<g>
</g>
<g>
</g>
<g>
</g>
<g>
</g>
<g>
</g>
</svg>
