<?xml version="1.0" encoding="iso-8859-1"?>
<!-- Generator: Adobe Illustrator 19.0.0, SVG Export Plug-In . SVG Version: 6.00 Build 0)  -->
<svg version="1.1" id="Capa_1" xmlns="http://www.w3.org/2000/svg" xmlns:xlink="http://www.w3.org/1999/xlink" x="0px" y="0px"
	 viewBox="0 0 512 512" style="enable-background:new 0 0 512 512;" xml:space="preserve">
<path style="fill:#EBEEF2;" d="M428.174,171.834h-23.916h-66.951h-47.832h-66.951h-47.832h-66.951H83.826H59.91v50.712
	c0,2.209,1.791,4,4,4h39.832c2.209,0,4-1.791,4-4v-5.643c0-13.55,10.985-24.535,24.535-24.535h17.88
	c13.55,0,24.535,10.985,24.535,24.535v5.643c0,2.209,1.791,4,4,4h39.832c2.209,0,4-1.791,4-4v-5.643
	c0-13.55,10.985-24.535,24.535-24.535h17.88c13.55,0,24.535,10.985,24.535,24.535v5.643c0,2.209,1.791,4,4,4h39.832
	c2.209,0,4-1.791,4-4v-5.643c0-13.55,10.985-24.535,24.535-24.535h17.88c13.55,0,24.535,10.985,24.535,24.535v5.643
	c0,2.209,1.791,4,4,4H432h16.09c2.209,0,4-1.791,4-4v-50.712H428.174z"/>
<rect x="59.91" y="171.76" style="fill:#D1D6DE;" width="392.18" height="10.243"/>
<path style="fill:#B5BCC6;" d="M32.091,154.953v-13.366h447.818v13.366c0,9.282-7.524,16.806-16.806,16.806H48.897
	C39.615,171.759,32.091,164.234,32.091,154.953z"/>
<path style="fill:#989FA8;" d="M452.09,141.587v13.366c0,9.281-7.524,16.806-16.806,16.806h27.818
	c9.282,0,16.806-7.524,16.806-16.806v-13.366H452.09z"/>
<path style="fill:#EBEEF2;" d="M507.257,110.418l-248.5-98.237c-1.771-0.7-3.742-0.7-5.514,0l-248.5,98.237
	C1.881,111.55,0,114.315,0,117.393v24.194c0,4.142,3.357,7.5,7.5,7.5h497c4.143,0,7.5-3.358,7.5-7.5v-24.194
	C512,114.315,510.119,111.55,507.257,110.418z"/>
<g>
	<path style="fill:#D1D6DE;" d="M507.257,110.418l-248.5-98.237c-1.771-0.7-3.742-0.7-5.514,0l-17.734,7.01l241.729,95.56
		c2.862,1.131,4.743,3.897,4.743,6.975v24.194c0,1.133-0.258,2.203-0.708,3.166H504.5c4.143,0,7.5-3.358,7.5-7.5v-24.194
		C512,114.315,510.119,111.55,507.257,110.418z"/>
	<circle style="fill:#D1D6DE;" cx="256" cy="84.7" r="24.337"/>
</g>
<path style="fill:#EBEEF2;" d="M275.608,391.493h-39.216c-26.94,0-48.779,21.839-48.779,48.779v60.071h136.774v-60.071
	C324.387,413.333,302.548,391.493,275.608,391.493z"/>
<path style="fill:#D1D6DE;" d="M275.608,391.493H260.89c22.434,0,40.62,21.839,40.62,48.779v60.071h22.876v-60.071
	C324.387,413.333,302.548,391.493,275.608,391.493z"/>
<path style="fill:#444966;" d="M261.824,391.493h-11.647l-15.422,52.419c-0.419,1.425-0.036,2.965,1.001,4.028l17.307,17.725
	c1.611,1.65,4.265,1.65,5.876,0l17.307-17.725c1.038-1.063,1.42-2.603,1.001-4.028L261.824,391.493z"/>
<path style="fill:#F9C295;" d="M256,229.942L256,229.942c-30.752,0-55.682,24.93-55.682,55.682v26.845
	c0,30.752,24.93,55.682,55.682,55.682l0,0c30.752,0,55.682-24.93,55.682-55.682v-26.845
	C311.682,254.871,286.752,229.942,256,229.942z"/>
<path style="fill:#E59F6A;" d="M256,229.942c-2.383,0-4.725,0.167-7.029,0.457c22.18,3.458,39.34,26.855,39.34,55.224v26.845
	c0,28.37-17.159,51.767-39.34,55.225c2.304,0.29,4.646,0.457,7.029,0.457c30.752,0,55.682-24.93,55.682-55.682v-26.845
	C311.682,254.871,286.752,229.942,256,229.942z"/>
<path style="fill:#444966;" d="M292.228,243.366c0-0.002,0.001-0.004,0.002-0.007c-0.103-0.088-0.21-0.17-0.314-0.258
	c-0.427-0.36-0.857-0.716-1.295-1.064c-0.199-0.159-0.401-0.314-0.602-0.47c-0.401-0.31-0.805-0.615-1.215-0.913
	c-0.239-0.175-0.478-0.347-0.72-0.518c-0.375-0.265-0.754-0.524-1.136-0.78c-0.281-0.188-0.561-0.375-0.845-0.559
	c-0.343-0.221-0.689-0.435-1.037-0.648c-0.329-0.202-0.657-0.404-0.99-0.6c-0.294-0.172-0.592-0.337-0.89-0.504
	c-0.392-0.22-0.783-0.441-1.18-0.652c-0.204-0.108-0.413-0.21-0.619-0.316c-7.613-3.915-16.237-6.138-25.387-6.138
	c-30.752,0-55.682,24.93-55.682,55.682v5.147c8.199,3.618,17.259,5.641,26.797,5.641c19.587,0,37.184-8.482,49.349-21.961
	c7.692,11.852,20.452,20.111,35.218,21.683v-10.51C311.682,268.711,304.132,253.574,292.228,243.366z"/>
<path style="fill:#2E344C;" d="M292.228,243.366c0.001-0.002,0.001-0.004,0.002-0.006c-0.491-0.258-17.028-16.266-43.259-12.961
	c22.18,3.458,39.34,26.855,39.34,55.224v1.389c6.68,4.935,14.672,8.196,23.371,9.122
	C310.719,290.375,316.685,264.336,292.228,243.366z"/>
<path style="fill:#5C9CEE;" d="M388.796,371.873h-28.705c-19.719,0-35.704,15.985-35.704,35.704v43.97H424.5v-43.97
	C424.5,387.858,408.515,371.873,388.796,371.873z"/>
<path style="fill:#444966;" d="M378.706,371.873h-8.526l-11.446,38.904c-0.21,0.712-0.018,1.482,0.501,2.014l13.739,14.071
	c0.806,0.825,2.132,0.825,2.938,0l13.739-14.071c0.519-0.531,0.71-1.301,0.501-2.014L378.706,371.873z"/>
<path style="fill:#5C9CEE;" d="M151.909,371.873h-28.705c-19.719,0-35.704,15.985-35.704,35.704v43.97h100.113v-43.97
	C187.613,387.858,171.628,371.873,151.909,371.873z"/>
<path style="fill:#444966;" d="M141.819,371.873h-8.526l-11.446,38.904c-0.21,0.712-0.018,1.482,0.501,2.014l13.739,14.071
	c0.806,0.825,2.132,0.825,2.938,0l13.739-14.071c0.519-0.531,0.71-1.301,0.501-2.014L141.819,371.873z"/>
<path style="fill:#F9C295;" d="M137.557,251.457L137.557,251.457c-22.509,0-40.757,18.247-40.757,40.757v19.65
	c0,22.509,18.248,40.757,40.757,40.757l0,0c22.509,0,40.757-18.247,40.757-40.757v-19.65
	C178.313,269.704,160.066,251.457,137.557,251.457z"/>
<path style="fill:#F2DF33;" d="M164.074,261.283c0-0.002,0.001-0.003,0.001-0.005c-0.075-0.065-0.154-0.125-0.23-0.189
	c-0.312-0.264-0.627-0.524-0.948-0.779c-0.146-0.116-0.293-0.23-0.441-0.344c-0.293-0.227-0.59-0.45-0.889-0.669
	c-0.175-0.128-0.35-0.254-0.527-0.379c-0.275-0.194-0.552-0.384-0.831-0.571c-0.205-0.138-0.411-0.275-0.619-0.409
	c-0.251-0.161-0.505-0.318-0.759-0.474c-0.241-0.148-0.481-0.296-0.725-0.439c-0.215-0.126-0.434-0.247-0.651-0.369
	c-0.287-0.161-0.573-0.323-0.864-0.477c-0.15-0.079-0.303-0.154-0.453-0.231c-5.573-2.865-11.885-4.493-18.583-4.493
	c-22.509,0-40.757,18.247-40.757,40.757v3.768c6.002,2.648,12.633,4.129,19.614,4.129c14.337,0,27.217-6.208,36.121-16.075
	c5.63,8.675,14.97,14.72,25.778,15.871v-7.693C178.313,279.835,172.787,268.754,164.074,261.283z"/>
<path style="fill:#F9C295;" d="M374.443,251.457L374.443,251.457c-22.509,0-40.757,18.247-40.757,40.757v19.65
	c0,22.509,18.248,40.757,40.757,40.757l0,0c22.509,0,40.757-18.247,40.757-40.757v-19.65
	C415.2,269.704,396.953,251.457,374.443,251.457z"/>
<path style="fill:#F2DF33;" d="M400.961,261.283c0-0.002,0.001-0.003,0.001-0.005c-0.075-0.065-0.154-0.125-0.23-0.189
	c-0.312-0.264-0.627-0.524-0.948-0.779c-0.146-0.116-0.293-0.23-0.441-0.344c-0.293-0.227-0.59-0.45-0.889-0.669
	c-0.175-0.128-0.35-0.254-0.527-0.379c-0.275-0.194-0.552-0.384-0.831-0.571c-0.205-0.138-0.411-0.275-0.619-0.409
	c-0.251-0.161-0.505-0.318-0.759-0.474c-0.241-0.148-0.481-0.296-0.725-0.439c-0.215-0.126-0.434-0.247-0.651-0.369
	c-0.287-0.161-0.573-0.323-0.864-0.477c-0.15-0.079-0.303-0.154-0.453-0.231c-5.573-2.865-11.885-4.493-18.583-4.493
	c-22.509,0-40.757,18.247-40.757,40.757v3.768c6.002,2.648,12.633,4.129,19.614,4.129c14.337,0,27.217-6.208,36.121-16.075
	c5.63,8.675,14.97,14.72,25.778,15.871v-7.693C415.2,279.835,409.674,268.754,400.961,261.283z"/>
<g>
</g>
<g>
</g>
<g>
</g>
<g>
</g>
<g>
</g>
<g>
</g>
<g>
</g>
<g>
</g>
<g>
</g>
<g>
</g>
<g>
</g>
<g>
</g>
<g>
</g>
<g>
</g>
<g>
</g>
</svg>
