<?xml version="1.0" encoding="iso-8859-1"?>
<!-- Generator: Adobe Illustrator 19.0.0, SVG Export Plug-In . SVG Version: 6.00 Build 0)  -->
<svg version="1.1" id="Capa_1" xmlns="http://www.w3.org/2000/svg" xmlns:xlink="http://www.w3.org/1999/xlink" x="0px" y="0px"
	 viewBox="0 0 512 512" style="enable-background:new 0 0 512 512;" xml:space="preserve">
<path style="fill:#CC3A60;" d="M390.919,265.314v-47.86V27.186c0-14.826-11.865-26.885-26.631-27.18
	c-15.248-0.305-27.729,12.53-27.729,27.781v233.485c0,15.008,12.166,27.174,27.174,27.174h27.186h14.606
	c2.169,0,2.993-2.853,1.145-3.989C399.9,280.294,390.919,273.273,390.919,265.314z"/>
<path style="fill:#F9C295;" d="M319.812,63.073v38.557v143.005H211.368c-13.657,0-24.723-11.067-24.723-24.723V206.82h-65.988
	V84.133h65.988v-6.784c0-5.213,1.428-10.104,3.918-14.276c4.869-8.189,13.8-13.667,24.015-13.667h105.234L319.812,63.073
	L319.812,63.073z"/>
<path style="fill:#E59F6A;" d="M186.645,193.8v-13.091h-65.988v26.112h65.988v13.091c0,13.657,11.067,24.723,24.723,24.723h108.443
	v-26.112H211.368C197.712,218.523,186.645,207.456,186.645,193.8z"/>
<path style="fill:#EBEEF2;" d="M154.299,76.926v137.099c0,5.514-4.474,9.988-9.998,9.988h-31.727V66.938h31.727
	C149.825,66.938,154.299,71.412,154.299,76.926z"/>
<path style="fill:#D1D6DE;" d="M144.301,200.113h-31.727v23.899h31.727c5.524,0,9.998-4.474,9.998-9.988v-23.899
	C154.299,195.639,149.825,200.113,144.301,200.113z"/>
<path style="fill:#656D88;" d="M80.929,237.496h20.962c5.9,0,10.683-4.783,10.683-10.683V64.137c0-5.9-4.783-10.683-10.683-10.683
	h-46.63c-5.675,0-10.013,5.062-9.144,10.671l25.667,165.536C72.484,234.17,76.366,237.496,80.929,237.496z"/>
<path style="fill:#444966;" d="M69.247,213.295l2.539,16.373c0.698,4.505,4.576,7.828,9.135,7.828h20.97
	c5.9,0,10.683-4.783,10.683-10.683v-13.518H69.247z"/>
<path style="fill:#F2DF33;" d="M120.716,287.632c-4.327,13.518-9.447,18.638-22.965,22.965c-2.27,0.727-2.27,3.945,0,4.672
	c13.518,4.327,18.638,9.447,22.965,22.965c0.727,2.27,3.945,2.27,4.672,0c4.327-13.518,9.447-18.638,22.965-22.965
	c2.27-0.727,2.27-3.945,0-4.672c-13.518-4.327-18.638-9.447-22.965-22.965C124.661,285.362,121.443,285.362,120.716,287.632z"/>
<path style="fill:#5C9CEE;" d="M436.655,415.953c-4.327,13.518-9.447,18.638-22.965,22.965c-2.27,0.727-2.27,3.945,0,4.672
	c13.518,4.327,18.638,9.447,22.965,22.965c0.727,2.27,3.945,2.27,4.672,0c4.327-13.518,9.447-18.638,22.965-22.965
	c2.27-0.727,2.27-3.945,0-4.672c-13.518-4.327-18.638-9.447-22.965-22.965C440.6,413.683,437.381,413.683,436.655,415.953z"/>
<path style="fill:#EBEEF2;" d="M436.655,157.817c-4.327,13.518-9.447,18.638-22.965,22.965c-2.27,0.727-2.27,3.945,0,4.672
	c13.518,4.327,18.638,9.447,22.965,22.965c0.727,2.27,3.945,2.27,4.672,0c4.327-13.518,9.447-18.638,22.965-22.965
	c2.27-0.727,2.27-3.945,0-4.672c-13.518-4.327-18.638-9.447-22.965-22.965C440.6,155.547,437.381,155.547,436.655,157.817z"/>
<path style="fill:#5C9CEE;" d="M363.733,0c-15.011,0-27.174,12.175-27.174,27.186v328.863H235.371V27.186
	C235.371,12.175,247.534,0,262.546,0H363.733z"/>
<path style="fill:#ED5575;" d="M363.733,0c-11.508,0-21.34,7.155-25.291,17.262c-1.218,3.078-1.883,6.421-1.883,9.924v328.863
	h-50.594V27.186C285.965,12.175,298.128,0,313.139,0H363.733z"/>
<circle style="fill:#FCAB29;" cx="284.88" cy="398.82" r="105.68"/>
<path style="fill:#DD8D19;" d="M337.045,306.894c19.84,19.211,32.178,46.125,32.178,75.924c0,58.367-47.315,105.682-105.682,105.682
	c-18.973,0-36.775-5.004-52.167-13.757c19.021,18.417,44.936,29.757,73.504,29.757c58.366,0,105.682-47.315,105.682-105.682
	C390.56,359.425,369.003,325.069,337.045,306.894z"/>
<g>
	<path style="fill:#F2DF33;" d="M284.878,512c-62.408,0-113.182-50.773-113.182-113.182s50.773-113.182,113.182-113.182
		S398.06,336.409,398.06,398.818S347.286,512,284.878,512z M284.878,300.637c-54.138,0-98.182,44.044-98.182,98.182
		S230.74,497,284.878,497s98.182-44.044,98.182-98.182S339.015,300.637,284.878,300.637z"/>
	<path style="fill:#F2DF33;" d="M281.671,447.494l-23.306,7.297c-6.866,2.15-13.861-2.933-13.938-10.127l-0.263-24.42
		c-0.024-2.188-0.715-4.316-1.982-6.099l-14.141-19.911c-4.166-5.866-1.494-14.089,5.324-16.386l23.144-7.796
		c2.073-0.698,3.883-2.014,5.188-3.77l14.566-19.602c4.291-5.775,12.938-5.775,17.229,0l14.567,19.602
		c1.305,1.756,3.115,3.071,5.188,3.77l23.144,7.796c6.818,2.297,9.49,10.52,5.324,16.386l-14.141,19.911
		c-1.267,1.784-1.958,3.912-1.982,6.099l-0.263,24.42c-0.077,7.194-7.072,12.276-13.938,10.127l-23.306-7.297
		C285.996,446.84,283.759,446.84,281.671,447.494z"/>
</g>
<path style="fill:#F4B07D;" d="M369.192,221.94c0,12.534-10.161,22.695-22.695,22.695h-48.024
	c-12.534,0-22.695-10.161-22.695-22.695s10.161-22.695,22.695-22.695h48.024C359.031,199.245,369.192,209.406,369.192,221.94z"/>
<path style="fill:#FCD0AE;" d="M369.192,176.55c0,12.534-10.161,22.695-22.695,22.695h-48.024
	c-12.534,0-22.695-10.161-22.695-22.695s10.161-22.695,22.695-22.695h48.024C359.031,153.856,369.192,164.016,369.192,176.55z"/>
<path style="fill:#EF9E67;" d="M369.192,131.161c0,12.534-10.161,22.695-22.695,22.695h-48.024
	c-12.534,0-22.695-10.161-22.695-22.695c0-12.534,10.161-22.695,22.695-22.695h48.024
	C359.031,108.466,369.192,118.627,369.192,131.161z"/>
<path style="fill:#FCD0AE;" d="M369.192,85.772c0,12.534-10.161,22.695-22.695,22.695h-48.024
	c-12.534,0-22.695-10.161-22.695-22.695s10.161-22.695,22.695-22.695h48.024C359.031,63.077,369.192,73.238,369.192,85.772z"/>
<path style="fill:#F9C295;" d="M308.38,49.411h11.933c10.15,0,18.378,8.228,18.378,18.378v77.591c0,4.682-3.795,8.477-8.477,8.477
	h-10.985c-14.854,0-26.895-12.041-26.895-26.895V96.893h-21.865c-4.646,0-8.413,3.766-8.413,8.412v4.524
	c0,21.887-17.743,39.631-39.631,39.631h-6.506c-11.492,0-29.274-13.012-29.274-39.631V84.133v-6.784
	c0-5.213,1.428-10.104,3.918-14.276c4.869-8.189,13.8-13.667,24.015-13.667h93.802L308.38,49.411L308.38,49.411z"/>
<g>
</g>
<g>
</g>
<g>
</g>
<g>
</g>
<g>
</g>
<g>
</g>
<g>
</g>
<g>
</g>
<g>
</g>
<g>
</g>
<g>
</g>
<g>
</g>
<g>
</g>
<g>
</g>
<g>
</g>
</svg>
