<?xml version="1.0" encoding="iso-8859-1"?>
<!-- Generator: Adobe Illustrator 19.0.0, SVG Export Plug-In . SVG Version: 6.00 Build 0)  -->
<svg version="1.1" id="Capa_1" xmlns="http://www.w3.org/2000/svg" xmlns:xlink="http://www.w3.org/1999/xlink" x="0px" y="0px"
	 viewBox="0 0 512 512" style="enable-background:new 0 0 512 512;" xml:space="preserve">
<g>
	<path style="fill:#D39053;" d="M453.475,443.844l-66.881-114.882c-1.343-2.307-3.812-3.727-6.481-3.727h-42.532
		c-2.578,0-4.974,1.323-6.347,3.505c-1.373,2.181-1.53,4.915-0.415,7.239l55.104,114.882c1.248,2.602,3.877,4.256,6.762,4.256h54.31
		c2.684,0,5.164-1.435,6.502-3.762S454.826,446.164,453.475,443.844z"/>
	<path style="fill:#D39053;" d="M271.916,325.235h-42.532c-2.67,0-5.138,1.419-6.481,3.727l-66.882,114.882
		c-1.351,2.32-1.358,5.185-0.021,7.512s3.818,3.762,6.502,3.762h54.31c2.885,0,5.515-1.655,6.762-4.256l55.104-114.882
		c1.115-2.324,0.958-5.058-0.415-7.239C276.89,326.558,274.494,325.235,271.916,325.235z"/>
</g>
<g>
	<path style="fill:#AF713E;" d="M271.916,325.235h-42.532c-2.67,0-5.138,1.419-6.481,3.727l-29.886,51.335
		c15.595,11.344,32.977,20.378,51.649,26.592l34.012-70.91c1.115-2.324,0.958-5.058-0.415-7.239
		C276.89,326.558,274.494,325.235,271.916,325.235z"/>
	<path style="fill:#AF713E;" d="M386.594,328.962c-1.343-2.307-3.812-3.727-6.481-3.727h-42.532c-2.578,0-4.974,1.323-6.347,3.505
		c-1.373,2.181-1.53,4.915-0.415,7.239l34.012,70.91c18.673-6.214,36.054-15.248,51.649-26.592L386.594,328.962z"/>
</g>
<circle style="fill:#5C9CEE;" cx="304.75" cy="226.432" r="169.55"/>
<path style="fill:#3580D3;" d="M381.603,75.27c43.937,30.637,72.693,81.538,72.693,139.163c0,93.638-75.909,169.547-169.547,169.547
	c-27.667,0-53.784-6.63-76.854-18.383c27.458,19.146,60.842,30.383,96.854,30.383c93.638,0,169.547-75.909,169.547-169.547
	C474.295,160.462,436.614,103.295,381.603,75.27z"/>
<circle style="fill:#EBEEF2;" cx="304.75" cy="226.432" r="128.78"/>
<circle style="fill:#F2DF33;" cx="304.75" cy="226.432" r="82.975"/>
<circle style="fill:#ED5575;" cx="304.75" cy="226.432" r="34.994"/>
<path style="fill:#1B3D66;" d="M304.748,233.934H49.377c-4.142,0-7.5-3.358-7.5-7.5s3.358-7.5,7.5-7.5h255.371
	c4.142,0,7.5,3.358,7.5,7.5S308.89,233.934,304.748,233.934z"/>
<path style="fill:#F29F5C;" d="M115.863,220.419L79.72,193.504c-1.294-0.964-2.865-1.485-4.479-1.485H7.5
	c-3.057,0-5.809,1.856-6.954,4.69c-1.145,2.835-0.455,6.081,1.744,8.205c5.898,5.696,9.147,13.338,9.147,21.52
	s-3.249,15.824-9.146,21.519c-2.2,2.124-2.89,5.37-1.745,8.205c1.146,2.835,3.896,4.691,6.954,4.691h67.741
	c1.614,0,3.185-0.521,4.479-1.485l36.143-26.915c1.9-1.415,3.021-3.646,3.021-6.015S117.763,221.834,115.863,220.419z"/>
<path style="fill:#D37D42;" d="M2.291,247.953c-2.2,2.124-2.89,5.37-1.745,8.205c1.146,2.835,3.896,4.691,6.954,4.691h67.741
	c1.614,0,3.185-0.521,4.479-1.485l36.143-26.915c1.9-1.415,3.021-3.646,3.021-6.015H11.437
	C11.437,234.615,8.189,242.258,2.291,247.953z"/>
<path style="fill:#9FD479;" d="M175.704,354.314c-16.637-12.003-26.399-24.006-33.131-36.009
	c-14.911,12.169-26.71,24.337-31.386,36.506c-0.9,2.341-4.154,2.578-5.311,0.353c-23.621-45.41,52.469-90.82,19.986-136.23h76.195
	c31.452,43.968-38.883,87.936-21.941,131.904C181.167,353.564,178.074,356.024,175.704,354.314z"/>
<path style="fill:#7DB24F;" d="M202.057,218.934h-12.269c27.499,43.77-33.584,87.539-19.456,131.309
	c1.711,1.357,3.492,2.714,5.373,4.071c2.37,1.71,5.462-0.75,4.411-3.477C163.174,306.869,233.509,262.902,202.057,218.934z"/>
<path style="fill:#1B3D66;" d="M504.5,455.117H104.997c-4.142,0-7.5-3.358-7.5-7.5s3.358-7.5,7.5-7.5H504.5
	c4.142,0,7.5,3.358,7.5,7.5S508.642,455.117,504.5,455.117z"/>
<g>
</g>
<g>
</g>
<g>
</g>
<g>
</g>
<g>
</g>
<g>
</g>
<g>
</g>
<g>
</g>
<g>
</g>
<g>
</g>
<g>
</g>
<g>
</g>
<g>
</g>
<g>
</g>
<g>
</g>
</svg>
