<?xml version="1.0" encoding="iso-8859-1"?>
<!-- Generator: Adobe Illustrator 19.0.0, SVG Export Plug-In . SVG Version: 6.00 Build 0)  -->
<svg version="1.1" id="Capa_1" xmlns="http://www.w3.org/2000/svg" xmlns:xlink="http://www.w3.org/1999/xlink" x="0px" y="0px"
	 viewBox="0 0 511.999 511.999" style="enable-background:new 0 0 511.999 511.999;" xml:space="preserve">
<path style="fill:#1B3D66;" d="M294.148,378.191c-4.143,0-7.5-3.358-7.5-7.5V338.48c0-4.142,3.357-7.5,7.5-7.5s7.5,3.358,7.5,7.5
	v32.211C301.648,374.833,298.291,378.191,294.148,378.191z"/>
<path style="fill:#ED5575;" d="M294.148,411.585c-13.342,0-24.196-10.854-24.196-24.197s10.854-24.197,24.196-24.197
	c13.343,0,24.197,10.854,24.197,24.197S307.491,411.585,294.148,411.585z M294.148,378.191c-5.071,0-9.196,4.125-9.196,9.197
	s4.125,9.197,9.196,9.197s9.197-4.125,9.197-9.197S299.22,378.191,294.148,378.191z"/>
<path style="fill:#EBEEF2;" d="M482.294,63.295h-376.29c-4.142,0-7.5,3.358-7.5,7.5V338.48c0,4.142,3.358,7.5,7.5,7.5h376.29
	c4.143,0,7.5-3.358,7.5-7.5V70.795C489.794,66.653,486.436,63.295,482.294,63.295z"/>
<g>
	<path style="fill:#D1D6DE;" d="M482.294,63.295h-25.333c4.143,0,7.5,3.358,7.5,7.5V338.48c0,4.142-3.357,7.5-7.5,7.5h25.333
		c4.143,0,7.5-3.358,7.5-7.5V70.795C489.794,66.653,486.436,63.295,482.294,63.295z"/>
	<rect x="98.499" y="70.795" style="fill:#D1D6DE;" width="391.29" height="23.03"/>
</g>
<path style="fill:#F9C295;" d="M204.79,330.441H122.2c-20.289,0-36.736,16.447-36.736,36.736v13.436H61.466v97.953h23.998h117.181
	V376.51c0-6.392-5.182-11.574-11.574-11.574h-6.804c15.193,0,27.509-12.316,27.509-27.509l0,0
	C211.776,333.569,208.648,330.441,204.79,330.441z"/>
<path style="fill:#1B3D66;" d="M125.38,450.322c-1.744,0-3.495-0.604-4.915-1.838c-3.127-2.716-3.46-7.453-0.744-10.581
	l174.733-201.161c2.717-3.127,7.453-3.46,10.58-0.744c3.128,2.716,3.461,7.453,0.744,10.581L131.046,447.741
	C129.563,449.448,127.477,450.322,125.38,450.322z"/>
<g>
	<path style="fill:#F4B07D;" d="M212.83,364.936h-31.217c-7.629,0-13.813,6.184-13.813,13.813v3.728
		c0,7.629,6.184,13.813,13.813,13.813h31.217c7.629,0,13.813-6.184,13.813-13.813v-3.728
		C226.643,371.121,220.459,364.936,212.83,364.936z"/>
	<path style="fill:#F4B07D;" d="M206.742,396.291h-31.217c-7.629,0-13.813,6.184-13.813,13.813v3.728
		c0,7.629,6.184,13.813,13.813,13.813h31.217c7.629,0,13.813-6.184,13.813-13.813v-3.728
		C220.556,402.476,214.371,396.291,206.742,396.291z"/>
	<path style="fill:#F4B07D;" d="M203.699,427.646h-31.217c-7.629,0-13.813,6.185-13.813,13.813v3.728
		c0,7.629,6.184,13.813,13.813,13.813h31.217c7.629,0,13.813-6.185,13.813-13.813v-3.728
		C217.512,433.831,211.328,427.646,203.699,427.646z"/>
	<path style="fill:#F4B07D;" d="M193.67,459.001h-28.661c-7.004,0-12.682,5.678-12.682,12.682v3.423
		c0,7.004,5.678,12.682,12.682,12.682h28.661c7.004,0,12.682-5.678,12.682-12.682v-3.423
		C206.352,464.679,200.674,459.001,193.67,459.001z"/>
</g>
<path style="fill:#ED5575;" d="M61.466,362.763H7.499c-2.145,0-4.186,0.918-5.609,2.521c-1.423,1.604-2.092,3.74-1.837,5.869
	l14.194,118.655c0.451,3.771,3.649,6.609,7.447,6.609h39.773c4.142,0,7.5-3.358,7.5-7.5V370.263
	C68.966,366.121,65.608,362.763,61.466,362.763z"/>
<path style="fill:#CC3A60;" d="M60.358,466.556H14.709c-1.176,0-2.298-0.244-3.326-0.675l2.862,23.927
	c0.451,3.771,3.649,6.609,7.447,6.609h39.773c4.142,0,7.5-3.358,7.5-7.5v-30.97C68.966,462.702,65.112,466.556,60.358,466.556z"/>
<path style="fill:#444966;" d="M39.809,475.609c-4.142,0-7.5-3.358-7.5-7.5v-0.937c0-4.142,3.358-7.5,7.5-7.5s7.5,3.358,7.5,7.5
	v0.937C47.309,472.251,43.951,475.609,39.809,475.609z"/>
<path style="fill:#5C9CEE;" d="M504.499,15.583h-420.7c-4.142,0-7.5,3.358-7.5,7.5v47.712c0,4.142,3.358,7.5,7.5,7.5h420.7
	c4.143,0,7.5-3.358,7.5-7.5V23.083C511.999,18.94,508.642,15.583,504.499,15.583z"/>
<path style="fill:#3580D3;" d="M504.499,15.583h-29.795c4.143,0,7.5,3.358,7.5,7.5v47.712c0,4.142-3.357,7.5-7.5,7.5h29.795
	c4.143,0,7.5-3.358,7.5-7.5V23.083C511.999,18.94,508.642,15.583,504.499,15.583z"/>
<g>
	<path style="fill:#444966;" d="M168.484,244.681c-2.024,0-4.042-0.814-5.521-2.421c-2.805-3.048-2.607-7.793,0.44-10.598
		l67.84-62.425c3.048-2.805,7.792-2.607,10.598,0.44c2.805,3.048,2.607,7.793-0.44,10.598l-67.84,62.425
		C172.12,244.026,170.299,244.681,168.484,244.681z"/>
	<path style="fill:#444966;" d="M326.302,219.783c-1.338,0-2.691-0.357-3.915-1.108l-64.455-39.541
		c-3.531-2.166-4.637-6.784-2.471-10.315c2.167-3.531,6.786-4.636,10.315-2.471l64.455,39.541c3.53,2.166,4.637,6.784,2.471,10.315
		C331.286,218.511,328.823,219.783,326.302,219.783z"/>
	<path style="fill:#444966;" d="M352.155,217.759c-2.119,0-4.224-0.893-5.708-2.63c-2.689-3.15-2.316-7.884,0.834-10.574
		l67.272-57.442c3.149-2.69,7.884-2.315,10.574,0.833c2.689,3.15,2.316,7.884-0.834,10.574l-67.272,57.442
		C355.609,217.168,353.877,217.759,352.155,217.759z"/>
</g>
<path style="fill:#F4B07D;" d="M206.79,330.441H122.2c-7.672,0-14.785,2.365-20.677,6.387l-0.009-0.009
	c-0.079,0.054-0.154,0.115-0.233,0.169c-0.333,0.231-0.657,0.472-0.982,0.714c-0.298,0.221-0.594,0.444-0.885,0.674
	c-0.316,0.25-0.626,0.507-0.933,0.768c-0.284,0.241-0.565,0.485-0.841,0.734c-0.298,0.268-0.592,0.539-0.88,0.816
	c-0.272,0.261-0.538,0.529-0.802,0.799c-0.276,0.282-0.551,0.563-0.817,0.853c-0.263,0.287-0.516,0.582-0.771,0.877
	c-0.25,0.29-0.503,0.577-0.744,0.875c-0.262,0.323-0.509,0.658-0.76,0.99c-0.215,0.285-0.437,0.564-0.644,0.856
	c-0.342,0.482-0.666,0.979-0.985,1.478c-0.218,0.341-0.428,0.687-0.635,1.036c-0.274,0.461-0.547,0.922-0.801,1.395
	c-0.026,0.049-0.057,0.096-0.083,0.145l0.005,0.011c-2.715,5.124-4.26,10.964-4.26,17.167v13.436c0,16.276,13.194,29.47,29.47,29.47
	h4.01c38.046,0,34.495-45.148,34.495-45.148h32.828c15.193,0,27.509-12.316,27.509-27.509
	C213.776,333.569,210.648,330.441,206.79,330.441z"/>
<path style="fill:#ED5575;" d="M339.968,197.137c-12.971,0-23.523,10.553-23.523,23.524s10.553,23.524,23.523,23.524
	c12.972,0,23.524-10.553,23.524-23.524S352.939,197.137,339.968,197.137z"/>
<path style="fill:#9FD479;" d="M431.606,118.89c-12.972,0-23.524,10.553-23.524,23.524s10.553,23.524,23.524,23.524
	c12.971,0,23.523-10.553,23.523-23.524S444.577,118.89,431.606,118.89z"/>
<path style="fill:#5C9CEE;" d="M248.33,140.626c-12.971,0-23.524,10.553-23.524,23.524s10.553,23.524,23.524,23.524
	s23.523-10.553,23.523-23.524S261.301,140.626,248.33,140.626z"/>
<path style="fill:#F2DF33;" d="M156.691,224.507c-12.971,0-23.524,10.553-23.524,23.524s10.553,23.524,23.524,23.524
	s23.524-10.553,23.524-23.524S169.663,224.507,156.691,224.507z"/>
<g>
</g>
<g>
</g>
<g>
</g>
<g>
</g>
<g>
</g>
<g>
</g>
<g>
</g>
<g>
</g>
<g>
</g>
<g>
</g>
<g>
</g>
<g>
</g>
<g>
</g>
<g>
</g>
<g>
</g>
</svg>
