<?xml version="1.0" encoding="iso-8859-1"?>
<!-- Generator: Adobe Illustrator 19.0.0, SVG Export Plug-In . SVG Version: 6.00 Build 0)  -->
<svg version="1.1" id="Capa_1" xmlns="http://www.w3.org/2000/svg" xmlns:xlink="http://www.w3.org/1999/xlink" x="0px" y="0px"
	 viewBox="0 0 512 512" style="enable-background:new 0 0 512 512;" xml:space="preserve">
<path style="fill:#EBEEF2;" d="M273.538,142.56h-35.076c-28.191,0-51.127,22.936-51.127,51.128v45.588c0,4.142,3.357,7.5,7.5,7.5
	h122.33c4.143,0,7.5-3.358,7.5-7.5v-45.588C324.665,165.496,301.729,142.56,273.538,142.56z"/>
<path style="fill:#D1D6DE;" d="M273.538,142.56h-22.5c28.191,0,51.127,22.936,51.127,51.128v45.588c0,4.142-3.357,7.5-7.5,7.5h22.5
	c4.143,0,7.5-3.358,7.5-7.5v-45.588C324.665,165.496,301.729,142.56,273.538,142.56z"/>
<path style="fill:#ED5575;" d="M261.482,142.583h-10.964l-14.33,48.705c-0.51,1.735-0.044,3.61,1.219,4.904l15.015,15.378
	c1.962,2.009,5.193,2.009,7.155,0l15.015-15.378c1.263-1.294,1.73-3.169,1.219-4.904L261.482,142.583z"/>
<path style="fill:#F9C295;" d="M255.977,0.036L255.977,0.036c-28.651,0-51.878,23.227-51.878,51.878v25.011
	c0,28.652,23.227,51.878,51.878,51.878l0,0c28.651,0,51.878-23.227,51.878-51.878V51.914
	C307.856,23.263,284.629,0.036,255.977,0.036z"/>
<path style="fill:#E59F6A;" d="M249.308,0.477c19.689,3.275,34.909,25.047,34.909,51.437v25.012
	c0,26.39-15.219,48.162-34.909,51.437c2.185,0.281,4.408,0.441,6.67,0.441c28.652,0,51.879-23.227,51.879-51.878V51.914
	C307.856,20.838,280.616-3.544,249.308,0.477z"/>
<path style="fill:#444966;" d="M289.731,12.543c0-0.002,0.001-0.004,0.001-0.006c-33.561-28.757-85.633-4.858-85.633,39.377v4.796
	c7.639,3.37,16.08,5.256,24.967,5.256c18.249,0,34.644-7.902,45.978-20.461c7.166,11.043,19.055,18.737,32.812,20.202
	C307.113,57.52,312.333,31.924,289.731,12.543z"/>
<path style="fill:#2E344C;" d="M289.731,12.543c0-0.002,0.001-0.004,0.002-0.006c-0.436-0.229-15.94-15.205-40.425-12.06
	c19.648,3.268,34.843,24.958,34.906,51.274c6.576,5.415,14.71,9.004,23.642,9.956C307.016,57.306,312.632,32.18,289.731,12.543z"/>
<path style="fill:#EBEEF2;" d="M435.537,407.784h-35.076c-28.191,0-51.127,22.936-51.127,51.128V504.5c0,4.142,3.357,7.5,7.5,7.5
	h122.33c4.143,0,7.5-3.358,7.5-7.5v-45.588C486.664,430.72,463.729,407.784,435.537,407.784z"/>
<path style="fill:#D1D6DE;" d="M435.537,407.784h-22.5c28.191,0,51.127,22.936,51.127,51.128V504.5c0,4.142-3.357,7.5-7.5,7.5h22.5
	c4.143,0,7.5-3.358,7.5-7.5v-45.588C486.664,430.72,463.729,407.784,435.537,407.784z"/>
<path style="fill:#ED5575;" d="M423.481,407.807h-10.964l-14.33,48.705c-0.51,1.735-0.044,3.61,1.219,4.904l15.015,15.378
	c1.962,2.009,5.193,2.009,7.155,0l15.015-15.378c1.263-1.294,1.73-3.169,1.219-4.904L423.481,407.807z"/>
<path style="fill:#F9C295;" d="M417.976,265.26L417.976,265.26c-28.651,0-51.878,23.227-51.878,51.878v25.011
	c0,28.652,23.227,51.878,51.878,51.878l0,0c28.651,0,51.878-23.227,51.878-51.878v-25.011
	C469.855,288.487,446.628,265.26,417.976,265.26z"/>
<path style="fill:#E59F6A;" d="M411.307,265.701c19.689,3.275,34.909,25.047,34.909,51.437v25.012
	c0,26.39-15.219,48.162-34.909,51.437c2.185,0.281,4.408,0.441,6.67,0.441c28.652,0,51.879-23.227,51.879-51.878v-25.012
	C469.855,286.062,442.615,261.68,411.307,265.701z"/>
<path style="fill:#444966;" d="M451.73,277.767c0-0.002,0.001-0.004,0.001-0.006c-33.561-28.757-85.633-4.858-85.633,39.377v4.796
	c7.639,3.37,16.08,5.256,24.967,5.256c18.249,0,34.644-7.902,45.978-20.461c7.166,11.043,19.055,18.737,32.812,20.202
	C469.112,322.744,474.332,297.148,451.73,277.767z"/>
<path style="fill:#2E344C;" d="M451.73,277.767c0.001-0.002,0.001-0.004,0.002-0.006c-0.436-0.229-15.94-15.205-40.425-12.06
	c19.648,3.268,34.843,24.958,34.906,51.274c6.576,5.415,14.71,9.004,23.642,9.956C469.015,322.531,474.631,297.404,451.73,277.767z"
	/>
<g>
	<path style="fill:#1B3D66;" d="M374.768,263.52c-2.268,0-4.507-1.024-5.982-2.969c-8.286-10.93-18.092-20.588-29.143-28.707
		c-3.338-2.452-4.057-7.146-1.604-10.485c2.452-3.338,7.146-4.056,10.484-1.604c12.216,8.974,23.055,19.651,32.215,31.733
		c2.503,3.301,1.855,8.005-1.445,10.508C377.938,263.023,376.346,263.52,374.768,263.52z"/>
	<path style="fill:#1B3D66;" d="M256,502.346c-26.229,0-52.18-6.62-75.046-19.144c-3.633-1.99-4.965-6.548-2.976-10.181
		s6.548-4.963,10.181-2.976c20.664,11.318,44.123,17.3,67.841,17.3c23.549,0,46.859-5.901,67.412-17.066
		c3.642-1.977,8.192-0.629,10.171,3.01c1.977,3.64,0.629,8.193-3.011,10.17C307.829,495.815,282.042,502.346,256,502.346z"/>
	<path style="fill:#1B3D66;" d="M137.445,263.24c-1.584,0-3.182-0.5-4.539-1.534c-3.295-2.51-3.932-7.216-1.421-10.511
		c9.11-11.959,19.873-22.537,31.99-31.439c3.34-2.452,8.032-1.733,10.484,1.604c2.453,3.338,1.734,8.032-1.604,10.485
		c-10.961,8.052-20.698,17.621-28.939,28.44C141.941,262.221,139.706,263.24,137.445,263.24z"/>
</g>
<path style="fill:#9FD479;" d="M313.17,351.82c0.2-1.99,0.31-3.96,0.31-5.91s-0.11-3.93-0.31-5.91l13.5-13.28
	c2.43-2.4,2.94-6.14,1.23-9.1l-11.45-19.83c-1.71-2.96-5.2-4.39-8.5-3.48l-18.25,5.04c-3.21-2.33-6.63-4.31-10.24-5.92l-4.75-18.31
	c-0.86-3.31-3.84-5.62-7.26-5.62h-22.9c-3.42,0-6.4,2.31-7.26,5.62l-4.75,18.31c-3.61,1.61-7.03,3.59-10.24,5.92l-18.25-5.04
	c-3.3-0.91-6.79,0.52-8.5,3.48l-11.45,19.83c-1.71,2.96-1.2,6.7,1.23,9.1l13.5,13.28c-0.2,1.98-0.31,3.96-0.31,5.91
	s0.11,3.92,0.31,5.91l-13.5,13.28c-2.43,2.4-2.94,6.14-1.23,9.1l11.45,19.83c1.71,2.96,5.2,4.39,8.5,3.48l18.25-5.04
	c3.21,2.33,6.63,4.31,10.24,5.92l4.75,18.31c0.86,3.31,3.84,5.62,7.26,5.62h22.9c3.42,0,6.4-2.31,7.26-5.62l4.75-18.31
	c3.61-1.61,7.03-3.59,10.24-5.92l18.25,5.04c3.3,0.91,6.79-0.52,8.5-3.48l11.45-19.83c1.71-2.96,1.2-6.7-1.23-9.1L313.17,351.82z
	 M256,372.34c-14.57,0-26.43-11.86-26.43-26.43c0-14.58,11.86-26.43,26.43-26.43c14.57,0,26.43,11.85,26.43,26.43
	C282.43,360.48,270.57,372.34,256,372.34z"/>
<path style="fill:#7DB24F;" d="M256,307.379c-21.28,0-38.531,17.251-38.531,38.531S234.72,384.441,256,384.441
	s38.531-17.251,38.531-38.531S277.28,307.379,256,307.379z M256,372.34c-14.57,0-26.43-11.86-26.43-26.43
	c0-14.58,11.86-26.43,26.43-26.43c14.57,0,26.43,11.85,26.43,26.43C282.43,360.48,270.57,372.34,256,372.34z"/>
<path style="fill:#EBEEF2;" d="M111.539,407.784H76.463c-28.191,0-51.127,22.936-51.127,51.128V504.5c0,4.142,3.357,7.5,7.5,7.5
	h122.33c4.143,0,7.5-3.358,7.5-7.5v-45.588C162.666,430.72,139.73,407.784,111.539,407.784z"/>
<path style="fill:#D1D6DE;" d="M111.539,407.784h-22.5c28.191,0,51.127,22.936,51.127,51.128V504.5c0,4.142-3.357,7.5-7.5,7.5h22.5
	c4.143,0,7.5-3.358,7.5-7.5v-45.588C162.666,430.72,139.73,407.784,111.539,407.784z"/>
<path style="fill:#ED5575;" d="M99.483,407.807H88.519l-14.33,48.705c-0.51,1.735-0.044,3.61,1.219,4.904l15.015,15.378
	c1.962,2.009,5.193,2.009,7.155,0l15.015-15.378c1.263-1.294,1.73-3.169,1.219-4.904L99.483,407.807z"/>
<path style="fill:#F9C295;" d="M93.978,265.26L93.978,265.26c-28.651,0-51.878,23.227-51.878,51.878v25.011
	c0,28.652,23.227,51.878,51.878,51.878l0,0c28.651,0,51.878-23.227,51.878-51.878v-25.011
	C145.856,288.487,122.63,265.26,93.978,265.26z"/>
<path style="fill:#E59F6A;" d="M87.308,265.701c19.689,3.275,34.909,25.047,34.909,51.437v25.012
	c0,26.39-15.219,48.162-34.909,51.437c2.185,0.281,4.408,0.441,6.67,0.441c28.652,0,51.879-23.227,51.879-51.878v-25.012
	C145.857,286.062,118.616,261.68,87.308,265.701z"/>
<path style="fill:#444966;" d="M127.732,277.767c0-0.002,0.001-0.004,0.001-0.006C94.172,249.004,42.1,272.904,42.1,317.138v4.796
	c7.639,3.37,16.08,5.256,24.967,5.256c18.249,0,34.644-7.902,45.978-20.461c7.166,11.043,19.055,18.737,32.812,20.202
	C145.114,322.744,150.334,297.148,127.732,277.767z"/>
<path style="fill:#2E344C;" d="M127.732,277.767c0.001-0.002,0.001-0.004,0.002-0.006c-0.436-0.229-15.94-15.205-40.425-12.06
	c19.648,3.268,34.843,24.958,34.906,51.274c6.576,5.415,14.71,9.004,23.642,9.956C145.016,322.531,150.633,297.404,127.732,277.767z
	"/>
<g>
</g>
<g>
</g>
<g>
</g>
<g>
</g>
<g>
</g>
<g>
</g>
<g>
</g>
<g>
</g>
<g>
</g>
<g>
</g>
<g>
</g>
<g>
</g>
<g>
</g>
<g>
</g>
<g>
</g>
</svg>
